<?xml version="1.0" standalone="no"?>
<!DOCTYPE svg PUBLIC "-//W3C//DTD SVG 1.1//EN" "http://www.w3.org/Graphics/SVG/1.1/DTD/svg11.dtd" >
<svg>
<metadata>
Created by FontForge 20120731 at Sat Nov 22 11:34:18 2014
 By Orthosie Webhosting
\251 1994 \245 /lineto \245 Cornel Windlin for FontFont release 12, FontShop International
</metadata>
<defs>
<font id="DotMatrixRegular" horiz-adv-x="588" >
  <font-face 
    font-family="DotMatrixRegular"
    font-weight="400"
    font-stretch="normal"
    units-per-em="1000"
    panose-1="2 0 0 6 2 0 0 2 0 4"
    ascent="800"
    descent="-200"
    x-height="488"
    cap-height="686"
    bbox="50 -99 835 884"
    underline-thickness="50"
    underline-position="-75"
    unicode-range="U+0020-E00D"
  />
<missing-glyph horiz-adv-x="500" 
 />
    <glyph glyph-name=".notdef" horiz-adv-x="500" 
 />
    <glyph glyph-name=".null" horiz-adv-x="0" 
 />
    <glyph glyph-name="nonmarkingreturn" horiz-adv-x="333" 
 />
    <glyph glyph-name="space" unicode=" " horiz-adv-x="390" 
 />
    <glyph glyph-name="exclam" unicode="!" horiz-adv-x="390" 
d="M241 640q0 19 -13.5 32.5t-32.5 13.5t-32.5 -13.5t-13.5 -32.5t13.5 -32.5t32.5 -13.5t32.5 13.5t13.5 32.5zM241 541q0 19 -13.5 32.5t-32.5 13.5t-32.5 -13.5t-13.5 -32.5t13.5 -32.5t32.5 -13.5t32.5 13.5t13.5 32.5zM241 442q0 19 -13.5 32.5t-32.5 13.5t-32.5 -13.5
t-13.5 -32.5t13.5 -32.5t32.5 -13.5t32.5 13.5t13.5 32.5zM241 343q0 19 -13.5 32.5t-32.5 13.5t-32.5 -13.5t-13.5 -32.5t13.5 -32.5t32.5 -13.5t32.5 13.5t13.5 32.5zM241 244q0 19 -13.5 32.5t-32.5 13.5t-32.5 -13.5t-13.5 -32.5t13.5 -32.5t32.5 -13.5t32.5 13.5
t13.5 32.5zM241 46q0 19 -13.5 32.5t-32.5 13.5t-32.5 -13.5t-13.5 -32.5t13.5 -32.5t32.5 -13.5t32.5 13.5t13.5 32.5z" />
    <glyph glyph-name="quotedbl" unicode="&#x22;" 
d="M439 640q0 19 -13.5 32.5t-32.5 13.5q-20 0 -33 -13.5t-13 -32.5t13 -32.5t33 -13.5q19 0 32.5 13.5t13.5 32.5zM439 541q0 19 -13.5 32.5t-32.5 13.5q-20 0 -33 -13.5t-13 -32.5t13 -32.5t33 -13.5q19 0 32.5 13.5t13.5 32.5zM241 640q0 19 -13.5 32.5t-32.5 13.5
t-32.5 -13.5t-13.5 -32.5t13.5 -32.5t32.5 -13.5t32.5 13.5t13.5 32.5zM439 442q0 19 -13.5 32.5t-32.5 13.5q-20 0 -33 -13.5t-13 -32.5t13 -32.5t33 -13.5q19 0 32.5 13.5t13.5 32.5zM241 541q0 19 -13.5 32.5t-32.5 13.5t-32.5 -13.5t-13.5 -32.5t13.5 -32.5t32.5 -13.5
t32.5 13.5t13.5 32.5zM241 442q0 19 -13.5 32.5t-32.5 13.5t-32.5 -13.5t-13.5 -32.5t13.5 -32.5t32.5 -13.5t32.5 13.5t13.5 32.5z" />
    <glyph glyph-name="numbersign" unicode="#" 
d="M439 640q0 19 -13.5 32.5t-32.5 13.5q-20 0 -33 -13.5t-13 -32.5t13 -32.5t33 -13.5q19 0 32.5 13.5t13.5 32.5zM439 541q0 19 -13.5 32.5t-32.5 13.5q-20 0 -33 -13.5t-13 -32.5t13 -32.5t33 -13.5q19 0 32.5 13.5t13.5 32.5zM538 442q0 19 -13.5 32.5t-32.5 13.5
q-20 0 -33 -13.5t-13 -32.5t13 -32.5t33 -13.5q19 0 32.5 13.5t13.5 32.5zM241 640q0 19 -13.5 32.5t-32.5 13.5t-32.5 -13.5t-13.5 -32.5t13.5 -32.5t32.5 -13.5t32.5 13.5t13.5 32.5zM439 442q0 19 -13.5 32.5t-32.5 13.5q-20 0 -33 -13.5t-13 -32.5t13 -32.5t33 -13.5
q19 0 32.5 13.5t13.5 32.5zM241 541q0 19 -13.5 32.5t-32.5 13.5t-32.5 -13.5t-13.5 -32.5t13.5 -32.5t32.5 -13.5t32.5 13.5t13.5 32.5zM340 442q0 19 -13.5 32.5t-32.5 13.5t-32.5 -13.5t-13.5 -32.5t13.5 -32.5t32.5 -13.5t32.5 13.5t13.5 32.5zM439 343q0 19 -13.5 32.5
t-32.5 13.5q-20 0 -33 -13.5t-13 -32.5t13 -32.5t33 -13.5q19 0 32.5 13.5t13.5 32.5zM538 244q0 19 -13.5 32.5t-32.5 13.5q-20 0 -33 -13.5t-13 -32.5t13 -32.5t33 -13.5q19 0 32.5 13.5t13.5 32.5zM241 442q0 19 -13.5 32.5t-32.5 13.5t-32.5 -13.5t-13.5 -32.5
t13.5 -32.5t32.5 -13.5t32.5 13.5t13.5 32.5zM439 244q0 19 -13.5 32.5t-32.5 13.5q-20 0 -33 -13.5t-13 -32.5t13 -32.5t33 -13.5q19 0 32.5 13.5t13.5 32.5zM142 442q0 19 -13.5 32.5t-32.5 13.5t-32.5 -13.5t-13.5 -32.5t13.5 -32.5t32.5 -13.5t32.5 13.5t13.5 32.5z
M241 343q0 19 -13.5 32.5t-32.5 13.5t-32.5 -13.5t-13.5 -32.5t13.5 -32.5t32.5 -13.5t32.5 13.5t13.5 32.5zM340 244q0 19 -13.5 32.5t-32.5 13.5t-32.5 -13.5t-13.5 -32.5t13.5 -32.5t32.5 -13.5t32.5 13.5t13.5 32.5zM439 145q0 19 -13.5 32.5t-32.5 13.5
q-20 0 -33 -13.5t-13 -32.5t13 -32.5t33 -13.5q19 0 32.5 13.5t13.5 32.5zM241 244q0 19 -13.5 32.5t-32.5 13.5t-32.5 -13.5t-13.5 -32.5t13.5 -32.5t32.5 -13.5t32.5 13.5t13.5 32.5zM439 46q0 19 -13.5 32.5t-32.5 13.5q-20 0 -33 -13.5t-13 -32.5t13 -32.5t33 -13.5
q19 0 32.5 13.5t13.5 32.5zM142 244q0 19 -13.5 32.5t-32.5 13.5t-32.5 -13.5t-13.5 -32.5t13.5 -32.5t32.5 -13.5t32.5 13.5t13.5 32.5zM241 145q0 19 -13.5 32.5t-32.5 13.5t-32.5 -13.5t-13.5 -32.5t13.5 -32.5t32.5 -13.5t32.5 13.5t13.5 32.5zM241 46q0 19 -13.5 32.5
t-32.5 13.5t-32.5 -13.5t-13.5 -32.5t13.5 -32.5t32.5 -13.5t32.5 13.5t13.5 32.5z" />
    <glyph glyph-name="dollar" unicode="$" 
d="M538 541q0 19 -13.5 32.5t-32.5 13.5q-20 0 -33 -13.5t-13 -32.5t13 -32.5t33 -13.5q19 0 32.5 13.5t13.5 32.5zM340 640q0 19 -13.5 32.5t-32.5 13.5t-32.5 -13.5t-13.5 -32.5t13.5 -32.5t32.5 -13.5t32.5 13.5t13.5 32.5zM439 541q0 19 -13.5 32.5t-32.5 13.5
q-20 0 -33 -13.5t-13 -32.5t13 -32.5t33 -13.5q19 0 32.5 13.5t13.5 32.5zM340 541q0 19 -13.5 32.5t-32.5 13.5t-32.5 -13.5t-13.5 -32.5t13.5 -32.5t32.5 -13.5t32.5 13.5t13.5 32.5zM241 541q0 19 -13.5 32.5t-32.5 13.5t-32.5 -13.5t-13.5 -32.5t13.5 -32.5t32.5 -13.5
t32.5 13.5t13.5 32.5zM439 343q0 19 -13.5 32.5t-32.5 13.5q-20 0 -33 -13.5t-13 -32.5t13 -32.5t33 -13.5q19 0 32.5 13.5t13.5 32.5zM538 244q0 19 -13.5 32.5t-32.5 13.5q-20 0 -33 -13.5t-13 -32.5t13 -32.5t33 -13.5q19 0 32.5 13.5t13.5 32.5zM340 343
q0 19 -13.5 32.5t-32.5 13.5t-32.5 -13.5t-13.5 -32.5t13.5 -32.5t32.5 -13.5t32.5 13.5t13.5 32.5zM142 442q0 19 -13.5 32.5t-32.5 13.5t-32.5 -13.5t-13.5 -32.5t13.5 -32.5t32.5 -13.5t32.5 13.5t13.5 32.5zM241 343q0 19 -13.5 32.5t-32.5 13.5t-32.5 -13.5
t-13.5 -32.5t13.5 -32.5t32.5 -13.5t32.5 13.5t13.5 32.5zM439 145q0 19 -13.5 32.5t-32.5 13.5q-20 0 -33 -13.5t-13 -32.5t13 -32.5t33 -13.5q19 0 32.5 13.5t13.5 32.5zM340 145q0 19 -13.5 32.5t-32.5 13.5t-32.5 -13.5t-13.5 -32.5t13.5 -32.5t32.5 -13.5t32.5 13.5
t13.5 32.5zM241 145q0 19 -13.5 32.5t-32.5 13.5t-32.5 -13.5t-13.5 -32.5t13.5 -32.5t32.5 -13.5t32.5 13.5t13.5 32.5zM340 46q0 19 -13.5 32.5t-32.5 13.5t-32.5 -13.5t-13.5 -32.5t13.5 -32.5t32.5 -13.5t32.5 13.5t13.5 32.5zM142 145q0 19 -13.5 32.5t-32.5 13.5
t-32.5 -13.5t-13.5 -32.5t13.5 -32.5t32.5 -13.5t32.5 13.5t13.5 32.5z" />
    <glyph glyph-name="percent" unicode="%" 
d="M538 640q0 19 -13.5 32.5t-32.5 13.5q-20 0 -33 -13.5t-13 -32.5t13 -32.5t33 -13.5q19 0 32.5 13.5t13.5 32.5zM538 541q0 19 -13.5 32.5t-32.5 13.5q-20 0 -33 -13.5t-13 -32.5t13 -32.5t33 -13.5q19 0 32.5 13.5t13.5 32.5zM241 640q0 19 -13.5 32.5t-32.5 13.5
t-32.5 -13.5t-13.5 -32.5t13.5 -32.5t32.5 -13.5t32.5 13.5t13.5 32.5zM439 442q0 19 -13.5 32.5t-32.5 13.5q-20 0 -33 -13.5t-13 -32.5t13 -32.5t33 -13.5q19 0 32.5 13.5t13.5 32.5zM142 640q0 19 -13.5 32.5t-32.5 13.5t-32.5 -13.5t-13.5 -32.5t13.5 -32.5t32.5 -13.5
t32.5 13.5t13.5 32.5zM241 541q0 19 -13.5 32.5t-32.5 13.5t-32.5 -13.5t-13.5 -32.5t13.5 -32.5t32.5 -13.5t32.5 13.5t13.5 32.5zM142 541q0 19 -13.5 32.5t-32.5 13.5t-32.5 -13.5t-13.5 -32.5t13.5 -32.5t32.5 -13.5t32.5 13.5t13.5 32.5zM340 343q0 19 -13.5 32.5
t-32.5 13.5t-32.5 -13.5t-13.5 -32.5t13.5 -32.5t32.5 -13.5t32.5 13.5t13.5 32.5zM538 145q0 19 -13.5 32.5t-32.5 13.5q-20 0 -33 -13.5t-13 -32.5t13 -32.5t33 -13.5q19 0 32.5 13.5t13.5 32.5zM439 145q0 19 -13.5 32.5t-32.5 13.5q-20 0 -33 -13.5t-13 -32.5t13 -32.5
t33 -13.5q19 0 32.5 13.5t13.5 32.5zM538 46q0 19 -13.5 32.5t-32.5 13.5q-20 0 -33 -13.5t-13 -32.5t13 -32.5t33 -13.5q19 0 32.5 13.5t13.5 32.5zM241 244q0 19 -13.5 32.5t-32.5 13.5t-32.5 -13.5t-13.5 -32.5t13.5 -32.5t32.5 -13.5t32.5 13.5t13.5 32.5zM439 46
q0 19 -13.5 32.5t-32.5 13.5q-20 0 -33 -13.5t-13 -32.5t13 -32.5t33 -13.5q19 0 32.5 13.5t13.5 32.5zM142 145q0 19 -13.5 32.5t-32.5 13.5t-32.5 -13.5t-13.5 -32.5t13.5 -32.5t32.5 -13.5t32.5 13.5t13.5 32.5zM142 46q0 19 -13.5 32.5t-32.5 13.5t-32.5 -13.5
t-13.5 -32.5t13.5 -32.5t32.5 -13.5t32.5 13.5t13.5 32.5z" />
    <glyph glyph-name="ampersand" unicode="&#x26;" 
d="M340 640q0 19 -13.5 32.5t-32.5 13.5t-32.5 -13.5t-13.5 -32.5t13.5 -32.5t32.5 -13.5t32.5 13.5t13.5 32.5zM439 541q0 19 -13.5 32.5t-32.5 13.5q-20 0 -33 -13.5t-13 -32.5t13 -32.5t33 -13.5q19 0 32.5 13.5t13.5 32.5zM241 541q0 19 -13.5 32.5t-32.5 13.5
t-32.5 -13.5t-13.5 -32.5t13.5 -32.5t32.5 -13.5t32.5 13.5t13.5 32.5zM340 442q0 19 -13.5 32.5t-32.5 13.5t-32.5 -13.5t-13.5 -32.5t13.5 -32.5t32.5 -13.5t32.5 13.5t13.5 32.5zM538 244q0 19 -13.5 32.5t-32.5 13.5q-20 0 -33 -13.5t-13 -32.5t13 -32.5t33 -13.5
q19 0 32.5 13.5t13.5 32.5zM340 343q0 19 -13.5 32.5t-32.5 13.5t-32.5 -13.5t-13.5 -32.5t13.5 -32.5t32.5 -13.5t32.5 13.5t13.5 32.5zM439 244q0 19 -13.5 32.5t-32.5 13.5t-32.5 -13.5t-13.5 -32.5t13.5 -32.5t32.5 -13.5t32.5 13.5t13.5 32.5zM538 145q0 19 -13.5 32.5
t-32.5 13.5q-20 0 -33 -13.5t-13 -32.5t13 -32.5t33 -13.5q19 0 32.5 13.5t13.5 32.5zM241 343q0 19 -13.5 32.5t-32.5 13.5t-32.5 -13.5t-13.5 -32.5t13.5 -32.5t32.5 -13.5t32.5 13.5t13.5 32.5zM439 145q0 19 -13.5 32.5t-32.5 13.5q-20 0 -33 -13.5t-13 -32.5t13 -32.5
t33 -13.5q19 0 32.5 13.5t13.5 32.5zM439 46q0 19 -13.5 32.5t-32.5 13.5q-20 0 -33 -13.5t-13 -32.5t13 -32.5t33 -13.5q19 0 32.5 13.5t13.5 32.5zM142 244q0 19 -13.5 32.5t-32.5 13.5t-32.5 -13.5t-13.5 -32.5t13.5 -32.5t32.5 -13.5t32.5 13.5t13.5 32.5zM340 46
q0 19 -13.5 32.5t-32.5 13.5t-32.5 -13.5t-13.5 -32.5t13.5 -32.5t32.5 -13.5t32.5 13.5t13.5 32.5zM142 145q0 19 -13.5 32.5t-32.5 13.5t-32.5 -13.5t-13.5 -32.5t13.5 -32.5t32.5 -13.5t32.5 13.5t13.5 32.5zM241 46q0 19 -13.5 32.5t-32.5 13.5t-32.5 -13.5t-13.5 -32.5
t13.5 -32.5t32.5 -13.5t32.5 13.5t13.5 32.5z" />
    <glyph glyph-name="quotesingle" unicode="'" horiz-adv-x="390" 
d="M241 640q0 19 -13.5 32.5t-32.5 13.5t-32.5 -13.5t-13.5 -32.5t13.5 -32.5t32.5 -13.5t32.5 13.5t13.5 32.5zM241 541q0 19 -13.5 32.5t-32.5 13.5t-32.5 -13.5t-13.5 -32.5t13.5 -32.5t32.5 -13.5t32.5 13.5t13.5 32.5zM241 442q0 19 -13.5 32.5t-32.5 13.5t-32.5 -13.5
t-13.5 -32.5t13.5 -32.5t32.5 -13.5t32.5 13.5t13.5 32.5z" />
    <glyph glyph-name="parenleft" unicode="(" horiz-adv-x="390" 
d="M340 640q0 19 -13.5 32.5t-32.5 13.5q-20 0 -33 -13.5t-13 -32.5t13 -32.5t33 -13.5q19 0 32.5 13.5t13.5 32.5zM241 541q0 19 -13.5 32.5t-32.5 13.5t-32.5 -13.5t-13.5 -32.5t13.5 -32.5t32.5 -13.5t32.5 13.5t13.5 32.5zM142 442q0 19 -13.5 32.5t-32.5 13.5
t-32.5 -13.5t-13.5 -32.5t13.5 -32.5t32.5 -13.5t32.5 13.5t13.5 32.5zM142 343q0 19 -13.5 32.5t-32.5 13.5t-32.5 -13.5t-13.5 -32.5t13.5 -32.5t32.5 -13.5t32.5 13.5t13.5 32.5zM142 244q0 19 -13.5 32.5t-32.5 13.5t-32.5 -13.5t-13.5 -32.5t13.5 -32.5t32.5 -13.5
t32.5 13.5t13.5 32.5zM241 145q0 19 -13.5 32.5t-32.5 13.5t-32.5 -13.5t-13.5 -32.5t13.5 -32.5t32.5 -13.5t32.5 13.5t13.5 32.5zM340 46q0 19 -13.5 32.5t-32.5 13.5q-20 0 -33 -13.5t-13 -32.5t13 -32.5t33 -13.5q19 0 32.5 13.5t13.5 32.5z" />
    <glyph glyph-name="parenright" unicode=")" horiz-adv-x="390" 
d="M142 640q0 19 -13.5 32.5t-32.5 13.5t-32.5 -13.5t-13.5 -32.5t13.5 -32.5t32.5 -13.5t32.5 13.5t13.5 32.5zM241 541q0 19 -13.5 32.5t-32.5 13.5t-32.5 -13.5t-13.5 -32.5t13.5 -32.5t32.5 -13.5t32.5 13.5t13.5 32.5zM340 442q0 19 -13.5 32.5t-32.5 13.5
q-20 0 -33 -13.5t-13 -32.5t13 -32.5t33 -13.5q19 0 32.5 13.5t13.5 32.5zM340 343q0 19 -13.5 32.5t-32.5 13.5q-20 0 -33 -13.5t-13 -32.5t13 -32.5t33 -13.5q19 0 32.5 13.5t13.5 32.5zM340 244q0 19 -13.5 32.5t-32.5 13.5q-20 0 -33 -13.5t-13 -32.5t13 -32.5t33 -13.5
q19 0 32.5 13.5t13.5 32.5zM241 145q0 19 -13.5 32.5t-32.5 13.5t-32.5 -13.5t-13.5 -32.5t13.5 -32.5t32.5 -13.5t32.5 13.5t13.5 32.5zM142 46q0 19 -13.5 32.5t-32.5 13.5t-32.5 -13.5t-13.5 -32.5t13.5 -32.5t32.5 -13.5t32.5 13.5t13.5 32.5z" />
    <glyph glyph-name="asterisk" unicode="*" horiz-adv-x="489" 
d="M439 640q0 19 -13.5 32.5t-32.5 13.5q-20 0 -33 -13.5t-13 -32.5t13 -32.5t33 -13.5q19 0 32.5 13.5t13.5 32.5zM340 541q0 19 -13.5 32.5t-32.5 13.5t-32.5 -13.5t-13.5 -32.5t13.5 -32.5t32.5 -13.5t32.5 13.5t13.5 32.5zM142 640q0 19 -13.5 32.5t-32.5 13.5
t-32.5 -13.5t-13.5 -32.5t13.5 -32.5t32.5 -13.5t32.5 13.5t13.5 32.5zM241 541q0 19 -13.5 32.5t-32.5 13.5t-32.5 -13.5t-13.5 -32.5t13.5 -32.5t32.5 -13.5t32.5 13.5t13.5 32.5zM340 442q0 19 -13.5 32.5t-32.5 13.5t-32.5 -13.5t-13.5 -32.5t13.5 -32.5t32.5 -13.5
t32.5 13.5t13.5 32.5zM439 343q0 19 -13.5 32.5t-32.5 13.5q-20 0 -33 -13.5t-13 -32.5t13 -32.5t33 -13.5q19 0 32.5 13.5t13.5 32.5zM241 442q0 19 -13.5 32.5t-32.5 13.5t-32.5 -13.5t-13.5 -32.5t13.5 -32.5t32.5 -13.5t32.5 13.5t13.5 32.5zM142 343q0 19 -13.5 32.5
t-32.5 13.5t-32.5 -13.5t-13.5 -32.5t13.5 -32.5t32.5 -13.5t32.5 13.5t13.5 32.5z" />
    <glyph glyph-name="plus" unicode="+" 
d="M340 541q0 19 -13.5 32.5t-32.5 13.5t-32.5 -13.5t-13.5 -32.5t13.5 -32.5t32.5 -13.5t32.5 13.5t13.5 32.5zM538 343q0 19 -13.5 32.5t-32.5 13.5q-20 0 -33 -13.5t-13 -32.5t13 -32.5t33 -13.5q19 0 32.5 13.5t13.5 32.5zM340 442q0 19 -13.5 32.5t-32.5 13.5
t-32.5 -13.5t-13.5 -32.5t13.5 -32.5t32.5 -13.5t32.5 13.5t13.5 32.5zM439 343q0 19 -13.5 32.5t-32.5 13.5q-20 0 -33 -13.5t-13 -32.5t13 -32.5t33 -13.5q19 0 32.5 13.5t13.5 32.5zM340 343q0 19 -13.5 32.5t-32.5 13.5t-32.5 -13.5t-13.5 -32.5t13.5 -32.5t32.5 -13.5
t32.5 13.5t13.5 32.5zM241 343q0 19 -13.5 32.5t-32.5 13.5t-32.5 -13.5t-13.5 -32.5t13.5 -32.5t32.5 -13.5t32.5 13.5t13.5 32.5zM340 244q0 19 -13.5 32.5t-32.5 13.5t-32.5 -13.5t-13.5 -32.5t13.5 -32.5t32.5 -13.5t32.5 13.5t13.5 32.5zM142 343q0 19 -13.5 32.5
t-32.5 13.5t-32.5 -13.5t-13.5 -32.5t13.5 -32.5t32.5 -13.5t32.5 13.5t13.5 32.5zM340 145q0 19 -13.5 32.5t-32.5 13.5t-32.5 -13.5t-13.5 -32.5t13.5 -32.5t32.5 -13.5t32.5 13.5t13.5 32.5z" />
    <glyph glyph-name="comma" unicode="," horiz-adv-x="390" 
d="M241 145q0 19 -13.5 32.5t-32.5 13.5t-32.5 -13.5t-13.5 -32.5t13.5 -32.5t32.5 -13.5t32.5 13.5t13.5 32.5zM241 46q0 19 -13.5 32.5t-32.5 13.5t-32.5 -13.5t-13.5 -32.5t13.5 -32.5t32.5 -13.5t32.5 13.5t13.5 32.5zM142 -53q0 20 -13.5 33t-32.5 13t-32.5 -13
t-13.5 -33q0 -19 13.5 -32.5t32.5 -13.5t32.5 13.5t13.5 32.5z" />
    <glyph glyph-name="hyphen" unicode="-" horiz-adv-x="489" 
d="M439 343q0 19 -13.5 32.5t-32.5 13.5q-20 0 -33 -13.5t-13 -32.5t13 -32.5t33 -13.5q19 0 32.5 13.5t13.5 32.5zM340 343q0 19 -13.5 32.5t-32.5 13.5q-20 0 -33 -13.5t-13 -32.5t13 -32.5t33 -13.5q19 0 32.5 13.5t13.5 32.5zM241 343q0 19 -13.5 32.5t-32.5 13.5
t-32.5 -13.5t-13.5 -32.5t13.5 -32.5t32.5 -13.5t32.5 13.5t13.5 32.5zM142 343q0 19 -13.5 32.5t-32.5 13.5t-32.5 -13.5t-13.5 -32.5t13.5 -32.5t32.5 -13.5t32.5 13.5t13.5 32.5z" />
    <glyph glyph-name="period" unicode="." horiz-adv-x="390" 
d="M241 145q0 19 -13.5 32.5t-32.5 13.5t-32.5 -13.5t-13.5 -32.5t13.5 -32.5t32.5 -13.5t32.5 13.5t13.5 32.5zM142 145q0 19 -13.5 32.5t-32.5 13.5t-32.5 -13.5t-13.5 -32.5t13.5 -32.5t32.5 -13.5t32.5 13.5t13.5 32.5zM241 46q0 19 -13.5 32.5t-32.5 13.5t-32.5 -13.5
t-13.5 -32.5t13.5 -32.5t32.5 -13.5t32.5 13.5t13.5 32.5zM142 46q0 19 -13.5 32.5t-32.5 13.5t-32.5 -13.5t-13.5 -32.5t13.5 -32.5t32.5 -13.5t32.5 13.5t13.5 32.5z" />
    <glyph glyph-name="slash" unicode="/" horiz-adv-x="390" 
d="M340 640q0 19 -13.5 32.5t-32.5 13.5q-20 0 -33 -13.5t-13 -32.5t13 -32.5t33 -13.5q19 0 32.5 13.5t13.5 32.5zM340 541q0 19 -13.5 32.5t-32.5 13.5q-20 0 -33 -13.5t-13 -32.5t13 -32.5t33 -13.5q19 0 32.5 13.5t13.5 32.5zM241 442q0 19 -13.5 32.5t-32.5 13.5
t-32.5 -13.5t-13.5 -32.5t13.5 -32.5t32.5 -13.5t32.5 13.5t13.5 32.5zM241 343q0 19 -13.5 32.5t-32.5 13.5t-32.5 -13.5t-13.5 -32.5t13.5 -32.5t32.5 -13.5t32.5 13.5t13.5 32.5zM241 244q0 19 -13.5 32.5t-32.5 13.5t-32.5 -13.5t-13.5 -32.5t13.5 -32.5t32.5 -13.5
t32.5 13.5t13.5 32.5zM142 145q0 19 -13.5 32.5t-32.5 13.5t-32.5 -13.5t-13.5 -32.5t13.5 -32.5t32.5 -13.5t32.5 13.5t13.5 32.5zM142 46q0 19 -13.5 32.5t-32.5 13.5t-32.5 -13.5t-13.5 -32.5t13.5 -32.5t32.5 -13.5t32.5 13.5t13.5 32.5z" />
    <glyph glyph-name="zero" unicode="0" 
d="M439 640q0 19 -13.5 32.5t-32.5 13.5q-20 0 -33 -13.5t-13 -32.5t13 -32.5t33 -13.5q19 0 32.5 13.5t13.5 32.5zM538 541q0 19 -13.5 32.5t-32.5 13.5q-20 0 -33 -13.5t-13 -32.5t13 -32.5t33 -13.5q19 0 32.5 13.5t13.5 32.5zM340 640q0 19 -13.5 32.5t-32.5 13.5
t-32.5 -13.5t-13.5 -32.5t13.5 -32.5t32.5 -13.5t32.5 13.5t13.5 32.5zM538 442q0 19 -13.5 32.5t-32.5 13.5q-20 0 -33 -13.5t-13 -32.5t13 -32.5t33 -13.5q19 0 32.5 13.5t13.5 32.5zM241 640q0 19 -13.5 32.5t-32.5 13.5t-32.5 -13.5t-13.5 -32.5t13.5 -32.5t32.5 -13.5
t32.5 13.5t13.5 32.5zM439 442q0 19 -13.5 32.5t-32.5 13.5q-20 0 -33 -13.5t-13 -32.5t13 -32.5t33 -13.5q19 0 32.5 13.5t13.5 32.5zM538 343q0 19 -13.5 32.5t-32.5 13.5q-20 0 -33 -13.5t-13 -32.5t13 -32.5t33 -13.5q19 0 32.5 13.5t13.5 32.5zM538 244
q0 19 -13.5 32.5t-32.5 13.5q-20 0 -33 -13.5t-13 -32.5t13 -32.5t33 -13.5q19 0 32.5 13.5t13.5 32.5zM142 541q0 19 -13.5 32.5t-32.5 13.5t-32.5 -13.5t-13.5 -32.5t13.5 -32.5t32.5 -13.5t32.5 13.5t13.5 32.5zM340 343q0 19 -13.5 32.5t-32.5 13.5t-32.5 -13.5
t-13.5 -32.5t13.5 -32.5t32.5 -13.5t32.5 13.5t13.5 32.5zM538 145q0 19 -13.5 32.5t-32.5 13.5q-20 0 -33 -13.5t-13 -32.5t13 -32.5t33 -13.5q19 0 32.5 13.5t13.5 32.5zM142 442q0 19 -13.5 32.5t-32.5 13.5t-32.5 -13.5t-13.5 -32.5t13.5 -32.5t32.5 -13.5t32.5 13.5
t13.5 32.5zM142 343q0 19 -13.5 32.5t-32.5 13.5t-32.5 -13.5t-13.5 -32.5t13.5 -32.5t32.5 -13.5t32.5 13.5t13.5 32.5zM241 244q0 19 -13.5 32.5t-32.5 13.5t-32.5 -13.5t-13.5 -32.5t13.5 -32.5t32.5 -13.5t32.5 13.5t13.5 32.5zM439 46q0 19 -13.5 32.5t-32.5 13.5
q-20 0 -33 -13.5t-13 -32.5t13 -32.5t33 -13.5q19 0 32.5 13.5t13.5 32.5zM142 244q0 19 -13.5 32.5t-32.5 13.5t-32.5 -13.5t-13.5 -32.5t13.5 -32.5t32.5 -13.5t32.5 13.5t13.5 32.5zM340 46q0 19 -13.5 32.5t-32.5 13.5t-32.5 -13.5t-13.5 -32.5t13.5 -32.5t32.5 -13.5
t32.5 13.5t13.5 32.5zM142 145q0 19 -13.5 32.5t-32.5 13.5t-32.5 -13.5t-13.5 -32.5t13.5 -32.5t32.5 -13.5t32.5 13.5t13.5 32.5zM241 46q0 19 -13.5 32.5t-32.5 13.5t-32.5 -13.5t-13.5 -32.5t13.5 -32.5t32.5 -13.5t32.5 13.5t13.5 32.5z" />
    <glyph glyph-name="one" unicode="1" 
d="M340 640q0 19 -13.5 32.5t-32.5 13.5t-32.5 -13.5t-13.5 -32.5t13.5 -32.5t32.5 -13.5t32.5 13.5t13.5 32.5zM340 541q0 19 -13.5 32.5t-32.5 13.5t-32.5 -13.5t-13.5 -32.5t13.5 -32.5t32.5 -13.5t32.5 13.5t13.5 32.5zM241 541q0 19 -13.5 32.5t-32.5 13.5t-32.5 -13.5
t-13.5 -32.5t13.5 -32.5t32.5 -13.5t32.5 13.5t13.5 32.5zM340 442q0 19 -13.5 32.5t-32.5 13.5t-32.5 -13.5t-13.5 -32.5t13.5 -32.5t32.5 -13.5t32.5 13.5t13.5 32.5zM340 343q0 19 -13.5 32.5t-32.5 13.5t-32.5 -13.5t-13.5 -32.5t13.5 -32.5t32.5 -13.5t32.5 13.5
t13.5 32.5zM142 442q0 19 -13.5 32.5t-32.5 13.5t-32.5 -13.5t-13.5 -32.5t13.5 -32.5t32.5 -13.5t32.5 13.5t13.5 32.5zM340 244q0 19 -13.5 32.5t-32.5 13.5t-32.5 -13.5t-13.5 -32.5t13.5 -32.5t32.5 -13.5t32.5 13.5t13.5 32.5zM538 46q0 19 -13.5 32.5t-32.5 13.5
q-20 0 -33 -13.5t-13 -32.5t13 -32.5t33 -13.5q19 0 32.5 13.5t13.5 32.5zM340 145q0 19 -13.5 32.5t-32.5 13.5t-32.5 -13.5t-13.5 -32.5t13.5 -32.5t32.5 -13.5t32.5 13.5t13.5 32.5zM439 46q0 19 -13.5 32.5t-32.5 13.5q-20 0 -33 -13.5t-13 -32.5t13 -32.5t33 -13.5
q19 0 32.5 13.5t13.5 32.5zM340 46q0 19 -13.5 32.5t-32.5 13.5t-32.5 -13.5t-13.5 -32.5t13.5 -32.5t32.5 -13.5t32.5 13.5t13.5 32.5zM241 46q0 19 -13.5 32.5t-32.5 13.5t-32.5 -13.5t-13.5 -32.5t13.5 -32.5t32.5 -13.5t32.5 13.5t13.5 32.5zM142 46q0 19 -13.5 32.5
t-32.5 13.5t-32.5 -13.5t-13.5 -32.5t13.5 -32.5t32.5 -13.5t32.5 13.5t13.5 32.5z" />
    <glyph glyph-name="two" unicode="2" 
d="M439 640q0 19 -13.5 32.5t-32.5 13.5q-20 0 -33 -13.5t-13 -32.5t13 -32.5t33 -13.5q19 0 32.5 13.5t13.5 32.5zM538 541q0 19 -13.5 32.5t-32.5 13.5q-20 0 -33 -13.5t-13 -32.5t13 -32.5t33 -13.5q19 0 32.5 13.5t13.5 32.5zM340 640q0 19 -13.5 32.5t-32.5 13.5
t-32.5 -13.5t-13.5 -32.5t13.5 -32.5t32.5 -13.5t32.5 13.5t13.5 32.5zM538 442q0 19 -13.5 32.5t-32.5 13.5q-20 0 -33 -13.5t-13 -32.5t13 -32.5t33 -13.5q19 0 32.5 13.5t13.5 32.5zM241 640q0 19 -13.5 32.5t-32.5 13.5t-32.5 -13.5t-13.5 -32.5t13.5 -32.5t32.5 -13.5
t32.5 13.5t13.5 32.5zM439 343q0 19 -13.5 32.5t-32.5 13.5q-20 0 -33 -13.5t-13 -32.5t13 -32.5t33 -13.5q19 0 32.5 13.5t13.5 32.5zM142 541q0 19 -13.5 32.5t-32.5 13.5t-32.5 -13.5t-13.5 -32.5t13.5 -32.5t32.5 -13.5t32.5 13.5t13.5 32.5zM340 343q0 19 -13.5 32.5
t-32.5 13.5t-32.5 -13.5t-13.5 -32.5t13.5 -32.5t32.5 -13.5t32.5 13.5t13.5 32.5zM538 46q0 19 -13.5 32.5t-32.5 13.5q-20 0 -33 -13.5t-13 -32.5t13 -32.5t33 -13.5q19 0 32.5 13.5t13.5 32.5zM241 244q0 19 -13.5 32.5t-32.5 13.5t-32.5 -13.5t-13.5 -32.5t13.5 -32.5
t32.5 -13.5t32.5 13.5t13.5 32.5zM439 46q0 19 -13.5 32.5t-32.5 13.5q-20 0 -33 -13.5t-13 -32.5t13 -32.5t33 -13.5q19 0 32.5 13.5t13.5 32.5zM340 46q0 19 -13.5 32.5t-32.5 13.5t-32.5 -13.5t-13.5 -32.5t13.5 -32.5t32.5 -13.5t32.5 13.5t13.5 32.5zM142 145
q0 19 -13.5 32.5t-32.5 13.5t-32.5 -13.5t-13.5 -32.5t13.5 -32.5t32.5 -13.5t32.5 13.5t13.5 32.5zM241 46q0 19 -13.5 32.5t-32.5 13.5t-32.5 -13.5t-13.5 -32.5t13.5 -32.5t32.5 -13.5t32.5 13.5t13.5 32.5zM142 46q0 19 -13.5 32.5t-32.5 13.5t-32.5 -13.5t-13.5 -32.5
t13.5 -32.5t32.5 -13.5t32.5 13.5t13.5 32.5z" />
    <glyph glyph-name="three" unicode="3" 
d="M439 640q0 19 -13.5 32.5t-32.5 13.5q-20 0 -33 -13.5t-13 -32.5t13 -32.5t33 -13.5q19 0 32.5 13.5t13.5 32.5zM538 541q0 19 -13.5 32.5t-32.5 13.5q-20 0 -33 -13.5t-13 -32.5t13 -32.5t33 -13.5q19 0 32.5 13.5t13.5 32.5zM340 640q0 19 -13.5 32.5t-32.5 13.5
t-32.5 -13.5t-13.5 -32.5t13.5 -32.5t32.5 -13.5t32.5 13.5t13.5 32.5zM538 442q0 19 -13.5 32.5t-32.5 13.5q-20 0 -33 -13.5t-13 -32.5t13 -32.5t33 -13.5q19 0 32.5 13.5t13.5 32.5zM241 640q0 19 -13.5 32.5t-32.5 13.5t-32.5 -13.5t-13.5 -32.5t13.5 -32.5t32.5 -13.5
t32.5 13.5t13.5 32.5zM439 343q0 19 -13.5 32.5t-32.5 13.5q-20 0 -33 -13.5t-13 -32.5t13 -32.5t33 -13.5q19 0 32.5 13.5t13.5 32.5zM538 244q0 19 -13.5 32.5t-32.5 13.5q-20 0 -33 -13.5t-13 -32.5t13 -32.5t33 -13.5q19 0 32.5 13.5t13.5 32.5zM142 541
q0 19 -13.5 32.5t-32.5 13.5t-32.5 -13.5t-13.5 -32.5t13.5 -32.5t32.5 -13.5t32.5 13.5t13.5 32.5zM340 343q0 19 -13.5 32.5t-32.5 13.5t-32.5 -13.5t-13.5 -32.5t13.5 -32.5t32.5 -13.5t32.5 13.5t13.5 32.5zM538 145q0 19 -13.5 32.5t-32.5 13.5q-20 0 -33 -13.5
t-13 -32.5t13 -32.5t33 -13.5q19 0 32.5 13.5t13.5 32.5zM439 46q0 19 -13.5 32.5t-32.5 13.5q-20 0 -33 -13.5t-13 -32.5t13 -32.5t33 -13.5q19 0 32.5 13.5t13.5 32.5zM340 46q0 19 -13.5 32.5t-32.5 13.5t-32.5 -13.5t-13.5 -32.5t13.5 -32.5t32.5 -13.5t32.5 13.5
t13.5 32.5zM142 145q0 19 -13.5 32.5t-32.5 13.5t-32.5 -13.5t-13.5 -32.5t13.5 -32.5t32.5 -13.5t32.5 13.5t13.5 32.5zM241 46q0 19 -13.5 32.5t-32.5 13.5t-32.5 -13.5t-13.5 -32.5t13.5 -32.5t32.5 -13.5t32.5 13.5t13.5 32.5z" />
    <glyph glyph-name="four" unicode="4" 
d="M439 640q0 19 -13.5 32.5t-32.5 13.5q-20 0 -33 -13.5t-13 -32.5t13 -32.5t33 -13.5q19 0 32.5 13.5t13.5 32.5zM439 541q0 19 -13.5 32.5t-32.5 13.5q-20 0 -33 -13.5t-13 -32.5t13 -32.5t33 -13.5q19 0 32.5 13.5t13.5 32.5zM340 541q0 19 -13.5 32.5t-32.5 13.5
t-32.5 -13.5t-13.5 -32.5t13.5 -32.5t32.5 -13.5t32.5 13.5t13.5 32.5zM439 442q0 19 -13.5 32.5t-32.5 13.5q-20 0 -33 -13.5t-13 -32.5t13 -32.5t33 -13.5q19 0 32.5 13.5t13.5 32.5zM439 343q0 19 -13.5 32.5t-32.5 13.5q-20 0 -33 -13.5t-13 -32.5t13 -32.5t33 -13.5
q19 0 32.5 13.5t13.5 32.5zM538 244q0 19 -13.5 32.5t-32.5 13.5q-20 0 -33 -13.5t-13 -32.5t13 -32.5t33 -13.5q19 0 32.5 13.5t13.5 32.5zM241 442q0 19 -13.5 32.5t-32.5 13.5t-32.5 -13.5t-13.5 -32.5t13.5 -32.5t32.5 -13.5t32.5 13.5t13.5 32.5zM439 244
q0 19 -13.5 32.5t-32.5 13.5q-20 0 -33 -13.5t-13 -32.5t13 -32.5t33 -13.5q19 0 32.5 13.5t13.5 32.5zM340 244q0 19 -13.5 32.5t-32.5 13.5t-32.5 -13.5t-13.5 -32.5t13.5 -32.5t32.5 -13.5t32.5 13.5t13.5 32.5zM439 145q0 19 -13.5 32.5t-32.5 13.5q-20 0 -33 -13.5
t-13 -32.5t13 -32.5t33 -13.5q19 0 32.5 13.5t13.5 32.5zM142 343q0 19 -13.5 32.5t-32.5 13.5t-32.5 -13.5t-13.5 -32.5t13.5 -32.5t32.5 -13.5t32.5 13.5t13.5 32.5zM241 244q0 19 -13.5 32.5t-32.5 13.5t-32.5 -13.5t-13.5 -32.5t13.5 -32.5t32.5 -13.5t32.5 13.5
t13.5 32.5zM439 46q0 19 -13.5 32.5t-32.5 13.5q-20 0 -33 -13.5t-13 -32.5t13 -32.5t33 -13.5q19 0 32.5 13.5t13.5 32.5zM142 244q0 19 -13.5 32.5t-32.5 13.5t-32.5 -13.5t-13.5 -32.5t13.5 -32.5t32.5 -13.5t32.5 13.5t13.5 32.5z" />
    <glyph glyph-name="five" unicode="5" 
d="M538 640q0 19 -13.5 32.5t-32.5 13.5q-20 0 -33 -13.5t-13 -32.5t13 -32.5t33 -13.5q19 0 32.5 13.5t13.5 32.5zM439 640q0 19 -13.5 32.5t-32.5 13.5q-20 0 -33 -13.5t-13 -32.5t13 -32.5t33 -13.5q19 0 32.5 13.5t13.5 32.5zM340 640q0 19 -13.5 32.5t-32.5 13.5
t-32.5 -13.5t-13.5 -32.5t13.5 -32.5t32.5 -13.5t32.5 13.5t13.5 32.5zM241 640q0 19 -13.5 32.5t-32.5 13.5t-32.5 -13.5t-13.5 -32.5t13.5 -32.5t32.5 -13.5t32.5 13.5t13.5 32.5zM439 442q0 19 -13.5 32.5t-32.5 13.5q-20 0 -33 -13.5t-13 -32.5t13 -32.5t33 -13.5
q19 0 32.5 13.5t13.5 32.5zM538 343q0 19 -13.5 32.5t-32.5 13.5q-20 0 -33 -13.5t-13 -32.5t13 -32.5t33 -13.5q19 0 32.5 13.5t13.5 32.5zM142 640q0 19 -13.5 32.5t-32.5 13.5t-32.5 -13.5t-13.5 -32.5t13.5 -32.5t32.5 -13.5t32.5 13.5t13.5 32.5zM340 442
q0 19 -13.5 32.5t-32.5 13.5t-32.5 -13.5t-13.5 -32.5t13.5 -32.5t32.5 -13.5t32.5 13.5t13.5 32.5zM538 244q0 19 -13.5 32.5t-32.5 13.5q-20 0 -33 -13.5t-13 -32.5t13 -32.5t33 -13.5q19 0 32.5 13.5t13.5 32.5zM142 541q0 19 -13.5 32.5t-32.5 13.5t-32.5 -13.5
t-13.5 -32.5t13.5 -32.5t32.5 -13.5t32.5 13.5t13.5 32.5zM241 442q0 19 -13.5 32.5t-32.5 13.5t-32.5 -13.5t-13.5 -32.5t13.5 -32.5t32.5 -13.5t32.5 13.5t13.5 32.5zM538 145q0 19 -13.5 32.5t-32.5 13.5q-20 0 -33 -13.5t-13 -32.5t13 -32.5t33 -13.5q19 0 32.5 13.5
t13.5 32.5zM142 442q0 19 -13.5 32.5t-32.5 13.5t-32.5 -13.5t-13.5 -32.5t13.5 -32.5t32.5 -13.5t32.5 13.5t13.5 32.5zM439 46q0 19 -13.5 32.5t-32.5 13.5q-20 0 -33 -13.5t-13 -32.5t13 -32.5t33 -13.5q19 0 32.5 13.5t13.5 32.5zM340 46q0 19 -13.5 32.5t-32.5 13.5
t-32.5 -13.5t-13.5 -32.5t13.5 -32.5t32.5 -13.5t32.5 13.5t13.5 32.5zM142 145q0 19 -13.5 32.5t-32.5 13.5t-32.5 -13.5t-13.5 -32.5t13.5 -32.5t32.5 -13.5t32.5 13.5t13.5 32.5zM241 46q0 19 -13.5 32.5t-32.5 13.5t-32.5 -13.5t-13.5 -32.5t13.5 -32.5t32.5 -13.5
t32.5 13.5t13.5 32.5z" />
    <glyph glyph-name="six" unicode="6" 
d="M439 640q0 19 -13.5 32.5t-32.5 13.5q-20 0 -33 -13.5t-13 -32.5t13 -32.5t33 -13.5q19 0 32.5 13.5t13.5 32.5zM340 640q0 19 -13.5 32.5t-32.5 13.5t-32.5 -13.5t-13.5 -32.5t13.5 -32.5t32.5 -13.5t32.5 13.5t13.5 32.5zM241 541q0 19 -13.5 32.5t-32.5 13.5
t-32.5 -13.5t-13.5 -32.5t13.5 -32.5t32.5 -13.5t32.5 13.5t13.5 32.5zM439 343q0 19 -13.5 32.5t-32.5 13.5q-20 0 -33 -13.5t-13 -32.5t13 -32.5t33 -13.5q19 0 32.5 13.5t13.5 32.5zM538 244q0 19 -13.5 32.5t-32.5 13.5q-20 0 -33 -13.5t-13 -32.5t13 -32.5t33 -13.5
q19 0 32.5 13.5t13.5 32.5zM340 343q0 19 -13.5 32.5t-32.5 13.5t-32.5 -13.5t-13.5 -32.5t13.5 -32.5t32.5 -13.5t32.5 13.5t13.5 32.5zM538 145q0 19 -13.5 32.5t-32.5 13.5q-20 0 -33 -13.5t-13 -32.5t13 -32.5t33 -13.5q19 0 32.5 13.5t13.5 32.5zM142 442
q0 19 -13.5 32.5t-32.5 13.5t-32.5 -13.5t-13.5 -32.5t13.5 -32.5t32.5 -13.5t32.5 13.5t13.5 32.5zM241 343q0 19 -13.5 32.5t-32.5 13.5t-32.5 -13.5t-13.5 -32.5t13.5 -32.5t32.5 -13.5t32.5 13.5t13.5 32.5zM142 343q0 19 -13.5 32.5t-32.5 13.5t-32.5 -13.5
t-13.5 -32.5t13.5 -32.5t32.5 -13.5t32.5 13.5t13.5 32.5zM439 46q0 19 -13.5 32.5t-32.5 13.5q-20 0 -33 -13.5t-13 -32.5t13 -32.5t33 -13.5q19 0 32.5 13.5t13.5 32.5zM142 244q0 19 -13.5 32.5t-32.5 13.5t-32.5 -13.5t-13.5 -32.5t13.5 -32.5t32.5 -13.5t32.5 13.5
t13.5 32.5zM340 46q0 19 -13.5 32.5t-32.5 13.5t-32.5 -13.5t-13.5 -32.5t13.5 -32.5t32.5 -13.5t32.5 13.5t13.5 32.5zM142 145q0 19 -13.5 32.5t-32.5 13.5t-32.5 -13.5t-13.5 -32.5t13.5 -32.5t32.5 -13.5t32.5 13.5t13.5 32.5zM241 46q0 19 -13.5 32.5t-32.5 13.5
t-32.5 -13.5t-13.5 -32.5t13.5 -32.5t32.5 -13.5t32.5 13.5t13.5 32.5z" />
    <glyph glyph-name="seven" unicode="7" 
d="M538 640q0 19 -13.5 32.5t-32.5 13.5q-20 0 -33 -13.5t-13 -32.5t13 -32.5t33 -13.5q19 0 32.5 13.5t13.5 32.5zM439 640q0 19 -13.5 32.5t-32.5 13.5q-20 0 -33 -13.5t-13 -32.5t13 -32.5t33 -13.5q19 0 32.5 13.5t13.5 32.5zM538 541q0 19 -13.5 32.5t-32.5 13.5
q-20 0 -33 -13.5t-13 -32.5t13 -32.5t33 -13.5q19 0 32.5 13.5t13.5 32.5zM340 640q0 19 -13.5 32.5t-32.5 13.5t-32.5 -13.5t-13.5 -32.5t13.5 -32.5t32.5 -13.5t32.5 13.5t13.5 32.5zM241 640q0 19 -13.5 32.5t-32.5 13.5t-32.5 -13.5t-13.5 -32.5t13.5 -32.5t32.5 -13.5
t32.5 13.5t13.5 32.5zM439 442q0 19 -13.5 32.5t-32.5 13.5q-20 0 -33 -13.5t-13 -32.5t13 -32.5t33 -13.5q19 0 32.5 13.5t13.5 32.5zM142 640q0 19 -13.5 32.5t-32.5 13.5t-32.5 -13.5t-13.5 -32.5t13.5 -32.5t32.5 -13.5t32.5 13.5t13.5 32.5zM340 343q0 19 -13.5 32.5
t-32.5 13.5t-32.5 -13.5t-13.5 -32.5t13.5 -32.5t32.5 -13.5t32.5 13.5t13.5 32.5zM241 244q0 19 -13.5 32.5t-32.5 13.5t-32.5 -13.5t-13.5 -32.5t13.5 -32.5t32.5 -13.5t32.5 13.5t13.5 32.5zM241 145q0 19 -13.5 32.5t-32.5 13.5t-32.5 -13.5t-13.5 -32.5t13.5 -32.5
t32.5 -13.5t32.5 13.5t13.5 32.5zM241 46q0 19 -13.5 32.5t-32.5 13.5t-32.5 -13.5t-13.5 -32.5t13.5 -32.5t32.5 -13.5t32.5 13.5t13.5 32.5z" />
    <glyph glyph-name="eight" unicode="8" 
d="M439 640q0 19 -13.5 32.5t-32.5 13.5q-20 0 -33 -13.5t-13 -32.5t13 -32.5t33 -13.5q19 0 32.5 13.5t13.5 32.5zM538 541q0 19 -13.5 32.5t-32.5 13.5q-20 0 -33 -13.5t-13 -32.5t13 -32.5t33 -13.5q19 0 32.5 13.5t13.5 32.5zM340 640q0 19 -13.5 32.5t-32.5 13.5
t-32.5 -13.5t-13.5 -32.5t13.5 -32.5t32.5 -13.5t32.5 13.5t13.5 32.5zM538 442q0 19 -13.5 32.5t-32.5 13.5q-20 0 -33 -13.5t-13 -32.5t13 -32.5t33 -13.5q19 0 32.5 13.5t13.5 32.5zM241 640q0 19 -13.5 32.5t-32.5 13.5t-32.5 -13.5t-13.5 -32.5t13.5 -32.5t32.5 -13.5
t32.5 13.5t13.5 32.5zM439 343q0 19 -13.5 32.5t-32.5 13.5q-20 0 -33 -13.5t-13 -32.5t13 -32.5t33 -13.5q19 0 32.5 13.5t13.5 32.5zM538 244q0 19 -13.5 32.5t-32.5 13.5q-20 0 -33 -13.5t-13 -32.5t13 -32.5t33 -13.5q19 0 32.5 13.5t13.5 32.5zM142 541
q0 19 -13.5 32.5t-32.5 13.5t-32.5 -13.5t-13.5 -32.5t13.5 -32.5t32.5 -13.5t32.5 13.5t13.5 32.5zM340 343q0 19 -13.5 32.5t-32.5 13.5t-32.5 -13.5t-13.5 -32.5t13.5 -32.5t32.5 -13.5t32.5 13.5t13.5 32.5zM538 145q0 19 -13.5 32.5t-32.5 13.5q-20 0 -33 -13.5
t-13 -32.5t13 -32.5t33 -13.5q19 0 32.5 13.5t13.5 32.5zM142 442q0 19 -13.5 32.5t-32.5 13.5t-32.5 -13.5t-13.5 -32.5t13.5 -32.5t32.5 -13.5t32.5 13.5t13.5 32.5zM241 343q0 19 -13.5 32.5t-32.5 13.5t-32.5 -13.5t-13.5 -32.5t13.5 -32.5t32.5 -13.5t32.5 13.5
t13.5 32.5zM439 46q0 19 -13.5 32.5t-32.5 13.5q-20 0 -33 -13.5t-13 -32.5t13 -32.5t33 -13.5q19 0 32.5 13.5t13.5 32.5zM142 244q0 19 -13.5 32.5t-32.5 13.5t-32.5 -13.5t-13.5 -32.5t13.5 -32.5t32.5 -13.5t32.5 13.5t13.5 32.5zM340 46q0 19 -13.5 32.5t-32.5 13.5
t-32.5 -13.5t-13.5 -32.5t13.5 -32.5t32.5 -13.5t32.5 13.5t13.5 32.5zM142 145q0 19 -13.5 32.5t-32.5 13.5t-32.5 -13.5t-13.5 -32.5t13.5 -32.5t32.5 -13.5t32.5 13.5t13.5 32.5zM241 46q0 19 -13.5 32.5t-32.5 13.5t-32.5 -13.5t-13.5 -32.5t13.5 -32.5t32.5 -13.5
t32.5 13.5t13.5 32.5z" />
    <glyph glyph-name="nine" unicode="9" 
d="M439 640q0 19 -13.5 32.5t-32.5 13.5q-20 0 -33 -13.5t-13 -32.5t13 -32.5t33 -13.5q19 0 32.5 13.5t13.5 32.5zM538 541q0 19 -13.5 32.5t-32.5 13.5q-20 0 -33 -13.5t-13 -32.5t13 -32.5t33 -13.5q19 0 32.5 13.5t13.5 32.5zM340 640q0 19 -13.5 32.5t-32.5 13.5
t-32.5 -13.5t-13.5 -32.5t13.5 -32.5t32.5 -13.5t32.5 13.5t13.5 32.5zM538 442q0 19 -13.5 32.5t-32.5 13.5q-20 0 -33 -13.5t-13 -32.5t13 -32.5t33 -13.5q19 0 32.5 13.5t13.5 32.5zM241 640q0 19 -13.5 32.5t-32.5 13.5t-32.5 -13.5t-13.5 -32.5t13.5 -32.5t32.5 -13.5
t32.5 13.5t13.5 32.5zM538 343q0 19 -13.5 32.5t-32.5 13.5q-20 0 -33 -13.5t-13 -32.5t13 -32.5t33 -13.5q19 0 32.5 13.5t13.5 32.5zM439 343q0 19 -13.5 32.5t-32.5 13.5q-20 0 -33 -13.5t-13 -32.5t13 -32.5t33 -13.5q19 0 32.5 13.5t13.5 32.5zM538 244
q0 19 -13.5 32.5t-32.5 13.5q-20 0 -33 -13.5t-13 -32.5t13 -32.5t33 -13.5q19 0 32.5 13.5t13.5 32.5zM142 541q0 19 -13.5 32.5t-32.5 13.5t-32.5 -13.5t-13.5 -32.5t13.5 -32.5t32.5 -13.5t32.5 13.5t13.5 32.5zM340 343q0 19 -13.5 32.5t-32.5 13.5t-32.5 -13.5
t-13.5 -32.5t13.5 -32.5t32.5 -13.5t32.5 13.5t13.5 32.5zM142 442q0 19 -13.5 32.5t-32.5 13.5t-32.5 -13.5t-13.5 -32.5t13.5 -32.5t32.5 -13.5t32.5 13.5t13.5 32.5zM241 343q0 19 -13.5 32.5t-32.5 13.5t-32.5 -13.5t-13.5 -32.5t13.5 -32.5t32.5 -13.5t32.5 13.5
t13.5 32.5zM439 145q0 19 -13.5 32.5t-32.5 13.5q-20 0 -33 -13.5t-13 -32.5t13 -32.5t33 -13.5q19 0 32.5 13.5t13.5 32.5zM340 46q0 19 -13.5 32.5t-32.5 13.5t-32.5 -13.5t-13.5 -32.5t13.5 -32.5t32.5 -13.5t32.5 13.5t13.5 32.5zM241 46q0 19 -13.5 32.5t-32.5 13.5
t-32.5 -13.5t-13.5 -32.5t13.5 -32.5t32.5 -13.5t32.5 13.5t13.5 32.5z" />
    <glyph glyph-name="colon" unicode=":" horiz-adv-x="390" 
d="M241 442q0 19 -13.5 32.5t-32.5 13.5t-32.5 -13.5t-13.5 -32.5t13.5 -32.5t32.5 -13.5t32.5 13.5t13.5 32.5zM142 442q0 19 -13.5 32.5t-32.5 13.5t-32.5 -13.5t-13.5 -32.5t13.5 -32.5t32.5 -13.5t32.5 13.5t13.5 32.5zM241 343q0 19 -13.5 32.5t-32.5 13.5t-32.5 -13.5
t-13.5 -32.5t13.5 -32.5t32.5 -13.5t32.5 13.5t13.5 32.5zM142 343q0 19 -13.5 32.5t-32.5 13.5t-32.5 -13.5t-13.5 -32.5t13.5 -32.5t32.5 -13.5t32.5 13.5t13.5 32.5zM241 145q0 19 -13.5 32.5t-32.5 13.5t-32.5 -13.5t-13.5 -32.5t13.5 -32.5t32.5 -13.5t32.5 13.5
t13.5 32.5zM142 145q0 19 -13.5 32.5t-32.5 13.5t-32.5 -13.5t-13.5 -32.5t13.5 -32.5t32.5 -13.5t32.5 13.5t13.5 32.5zM241 46q0 19 -13.5 32.5t-32.5 13.5t-32.5 -13.5t-13.5 -32.5t13.5 -32.5t32.5 -13.5t32.5 13.5t13.5 32.5zM142 46q0 19 -13.5 32.5t-32.5 13.5
t-32.5 -13.5t-13.5 -32.5t13.5 -32.5t32.5 -13.5t32.5 13.5t13.5 32.5z" />
    <glyph glyph-name="semicolon" unicode=";" horiz-adv-x="390" 
d="M241 442q0 19 -13.5 32.5t-32.5 13.5t-32.5 -13.5t-13.5 -32.5t13.5 -32.5t32.5 -13.5t32.5 13.5t13.5 32.5zM142 442q0 19 -13.5 32.5t-32.5 13.5t-32.5 -13.5t-13.5 -32.5t13.5 -32.5t32.5 -13.5t32.5 13.5t13.5 32.5zM241 343q0 19 -13.5 32.5t-32.5 13.5t-32.5 -13.5
t-13.5 -32.5t13.5 -32.5t32.5 -13.5t32.5 13.5t13.5 32.5zM142 343q0 19 -13.5 32.5t-32.5 13.5t-32.5 -13.5t-13.5 -32.5t13.5 -32.5t32.5 -13.5t32.5 13.5t13.5 32.5zM241 145q0 19 -13.5 32.5t-32.5 13.5t-32.5 -13.5t-13.5 -32.5t13.5 -32.5t32.5 -13.5t32.5 13.5
t13.5 32.5zM241 46q0 19 -13.5 32.5t-32.5 13.5t-32.5 -13.5t-13.5 -32.5t13.5 -32.5t32.5 -13.5t32.5 13.5t13.5 32.5zM142 -53q0 20 -13.5 33t-32.5 13t-32.5 -13t-13.5 -33q0 -19 13.5 -32.5t32.5 -13.5t32.5 13.5t13.5 32.5z" />
    <glyph glyph-name="less" unicode="&#x3c;" horiz-adv-x="390" 
d="M340 541q0 19 -13.5 32.5t-32.5 13.5q-20 0 -33 -13.5t-13 -32.5t13 -32.5t33 -13.5q19 0 32.5 13.5t13.5 32.5zM241 442q0 19 -13.5 32.5t-32.5 13.5t-32.5 -13.5t-13.5 -32.5t13.5 -32.5t32.5 -13.5t32.5 13.5t13.5 32.5zM142 343q0 19 -13.5 32.5t-32.5 13.5
t-32.5 -13.5t-13.5 -32.5t13.5 -32.5t32.5 -13.5t32.5 13.5t13.5 32.5zM241 244q0 19 -13.5 32.5t-32.5 13.5t-32.5 -13.5t-13.5 -32.5t13.5 -32.5t32.5 -13.5t32.5 13.5t13.5 32.5zM340 145q0 19 -13.5 32.5t-32.5 13.5q-20 0 -33 -13.5t-13 -32.5t13 -32.5t33 -13.5
q19 0 32.5 13.5t13.5 32.5z" />
    <glyph glyph-name="equal" unicode="=" horiz-adv-x="489" 
d="M439 442q0 19 -13.5 32.5t-32.5 13.5q-20 0 -33 -13.5t-13 -32.5t13 -32.5t33 -13.5q19 0 32.5 13.5t13.5 32.5zM340 442q0 19 -13.5 32.5t-32.5 13.5t-32.5 -13.5t-13.5 -32.5t13.5 -32.5t32.5 -13.5t32.5 13.5t13.5 32.5zM241 442q0 19 -13.5 32.5t-32.5 13.5
t-32.5 -13.5t-13.5 -32.5t13.5 -32.5t32.5 -13.5t32.5 13.5t13.5 32.5zM439 244q0 19 -13.5 32.5t-32.5 13.5q-20 0 -33 -13.5t-13 -32.5t13 -32.5t33 -13.5q19 0 32.5 13.5t13.5 32.5zM142 442q0 19 -13.5 32.5t-32.5 13.5t-32.5 -13.5t-13.5 -32.5t13.5 -32.5t32.5 -13.5
t32.5 13.5t13.5 32.5zM340 244q0 19 -13.5 32.5t-32.5 13.5t-32.5 -13.5t-13.5 -32.5t13.5 -32.5t32.5 -13.5t32.5 13.5t13.5 32.5zM241 244q0 19 -13.5 32.5t-32.5 13.5t-32.5 -13.5t-13.5 -32.5t13.5 -32.5t32.5 -13.5t32.5 13.5t13.5 32.5zM142 244q0 19 -13.5 32.5
t-32.5 13.5t-32.5 -13.5t-13.5 -32.5t13.5 -32.5t32.5 -13.5t32.5 13.5t13.5 32.5z" />
    <glyph glyph-name="greater" unicode="&#x3e;" horiz-adv-x="390" 
d="M142 541q0 19 -13.5 32.5t-32.5 13.5t-32.5 -13.5t-13.5 -32.5t13.5 -32.5t32.5 -13.5t32.5 13.5t13.5 32.5zM241 442q0 19 -13.5 32.5t-32.5 13.5t-32.5 -13.5t-13.5 -32.5t13.5 -32.5t32.5 -13.5t32.5 13.5t13.5 32.5zM340 343q0 19 -13.5 32.5t-32.5 13.5
q-20 0 -33 -13.5t-13 -32.5t13 -32.5t33 -13.5q19 0 32.5 13.5t13.5 32.5zM241 244q0 19 -13.5 32.5t-32.5 13.5t-32.5 -13.5t-13.5 -32.5t13.5 -32.5t32.5 -13.5t32.5 13.5t13.5 32.5zM142 145q0 19 -13.5 32.5t-32.5 13.5t-32.5 -13.5t-13.5 -32.5t13.5 -32.5t32.5 -13.5
t32.5 13.5t13.5 32.5z" />
    <glyph glyph-name="question" unicode="?" 
d="M439 640q0 19 -13.5 32.5t-32.5 13.5q-20 0 -33 -13.5t-13 -32.5t13 -32.5t33 -13.5q19 0 32.5 13.5t13.5 32.5zM538 541q0 19 -13.5 32.5t-32.5 13.5q-20 0 -33 -13.5t-13 -32.5t13 -32.5t33 -13.5q19 0 32.5 13.5t13.5 32.5zM340 640q0 19 -13.5 32.5t-32.5 13.5
t-32.5 -13.5t-13.5 -32.5t13.5 -32.5t32.5 -13.5t32.5 13.5t13.5 32.5zM538 442q0 19 -13.5 32.5t-32.5 13.5q-20 0 -33 -13.5t-13 -32.5t13 -32.5t33 -13.5q19 0 32.5 13.5t13.5 32.5zM241 640q0 19 -13.5 32.5t-32.5 13.5t-32.5 -13.5t-13.5 -32.5t13.5 -32.5t32.5 -13.5
t32.5 13.5t13.5 32.5zM439 343q0 19 -13.5 32.5t-32.5 13.5q-20 0 -33 -13.5t-13 -32.5t13 -32.5t33 -13.5q19 0 32.5 13.5t13.5 32.5zM142 541q0 19 -13.5 32.5t-32.5 13.5t-32.5 -13.5t-13.5 -32.5t13.5 -32.5t32.5 -13.5t32.5 13.5t13.5 32.5zM340 244q0 19 -13.5 32.5
t-32.5 13.5t-32.5 -13.5t-13.5 -32.5t13.5 -32.5t32.5 -13.5t32.5 13.5t13.5 32.5zM340 46q0 19 -13.5 32.5t-32.5 13.5t-32.5 -13.5t-13.5 -32.5t13.5 -32.5t32.5 -13.5t32.5 13.5t13.5 32.5z" />
    <glyph glyph-name="at" unicode="@" 
d="M439 640q0 19 -13.5 32.5t-32.5 13.5q-20 0 -33 -13.5t-13 -32.5t13 -32.5t33 -13.5q19 0 32.5 13.5t13.5 32.5zM538 541q0 19 -13.5 32.5t-32.5 13.5q-20 0 -33 -13.5t-13 -32.5t13 -32.5t33 -13.5q19 0 32.5 13.5t13.5 32.5zM340 640q0 19 -13.5 32.5t-32.5 13.5
t-32.5 -13.5t-13.5 -32.5t13.5 -32.5t32.5 -13.5t32.5 13.5t13.5 32.5zM538 442q0 19 -13.5 32.5t-32.5 13.5q-20 0 -33 -13.5t-13 -32.5t13 -32.5t33 -13.5q19 0 32.5 13.5t13.5 32.5zM241 640q0 19 -13.5 32.5t-32.5 13.5t-32.5 -13.5t-13.5 -32.5t13.5 -32.5t32.5 -13.5
t32.5 13.5t13.5 32.5zM538 343q0 19 -13.5 32.5t-32.5 13.5q-20 0 -33 -13.5t-13 -32.5t13 -32.5t33 -13.5q19 0 32.5 13.5t13.5 32.5zM340 442q0 19 -13.5 32.5t-32.5 13.5t-32.5 -13.5t-13.5 -32.5t13.5 -32.5t32.5 -13.5t32.5 13.5t13.5 32.5zM142 541q0 19 -13.5 32.5
t-32.5 13.5t-32.5 -13.5t-13.5 -32.5t13.5 -32.5t32.5 -13.5t32.5 13.5t13.5 32.5zM241 442q0 19 -13.5 32.5t-32.5 13.5t-32.5 -13.5t-13.5 -32.5t13.5 -32.5t32.5 -13.5t32.5 13.5t13.5 32.5zM340 343q0 19 -13.5 32.5t-32.5 13.5t-32.5 -13.5t-13.5 -32.5t13.5 -32.5
t32.5 -13.5t32.5 13.5t13.5 32.5zM439 244q0 19 -13.5 32.5t-32.5 13.5q-20 0 -33 -13.5t-13 -32.5t13 -32.5t33 -13.5q19 0 32.5 13.5t13.5 32.5zM340 244q0 19 -13.5 32.5t-32.5 13.5t-32.5 -13.5t-13.5 -32.5t13.5 -32.5t32.5 -13.5t32.5 13.5t13.5 32.5zM538 46
q0 19 -13.5 32.5t-32.5 13.5q-20 0 -33 -13.5t-13 -32.5t13 -32.5t33 -13.5q19 0 32.5 13.5t13.5 32.5zM142 343q0 19 -13.5 32.5t-32.5 13.5t-32.5 -13.5t-13.5 -32.5t13.5 -32.5t32.5 -13.5t32.5 13.5t13.5 32.5zM241 244q0 19 -13.5 32.5t-32.5 13.5t-32.5 -13.5
t-13.5 -32.5t13.5 -32.5t32.5 -13.5t32.5 13.5t13.5 32.5zM439 46q0 19 -13.5 32.5t-32.5 13.5q-20 0 -33 -13.5t-13 -32.5t13 -32.5t33 -13.5q19 0 32.5 13.5t13.5 32.5zM340 46q0 19 -13.5 32.5t-32.5 13.5t-32.5 -13.5t-13.5 -32.5t13.5 -32.5t32.5 -13.5t32.5 13.5
t13.5 32.5zM142 145q0 19 -13.5 32.5t-32.5 13.5t-32.5 -13.5t-13.5 -32.5t13.5 -32.5t32.5 -13.5t32.5 13.5t13.5 32.5zM241 46q0 19 -13.5 32.5t-32.5 13.5t-32.5 -13.5t-13.5 -32.5t13.5 -32.5t32.5 -13.5t32.5 13.5t13.5 32.5z" />
    <glyph glyph-name="A" unicode="A" 
d="M439 640q0 19 -13.5 32.5t-32.5 13.5q-20 0 -33 -13.5t-13 -32.5t13 -32.5t33 -13.5q19 0 32.5 13.5t13.5 32.5zM538 541q0 19 -13.5 32.5t-32.5 13.5q-20 0 -33 -13.5t-13 -32.5t13 -32.5t33 -13.5q19 0 32.5 13.5t13.5 32.5zM340 640q0 19 -13.5 32.5t-32.5 13.5
t-32.5 -13.5t-13.5 -32.5t13.5 -32.5t32.5 -13.5t32.5 13.5t13.5 32.5zM538 442q0 19 -13.5 32.5t-32.5 13.5q-20 0 -33 -13.5t-13 -32.5t13 -32.5t33 -13.5q19 0 32.5 13.5t13.5 32.5zM241 640q0 19 -13.5 32.5t-32.5 13.5t-32.5 -13.5t-13.5 -32.5t13.5 -32.5t32.5 -13.5
t32.5 13.5t13.5 32.5zM538 343q0 19 -13.5 32.5t-32.5 13.5q-20 0 -33 -13.5t-13 -32.5t13 -32.5t33 -13.5q19 0 32.5 13.5t13.5 32.5zM538 244q0 19 -13.5 32.5t-32.5 13.5q-20 0 -33 -13.5t-13 -32.5t13 -32.5t33 -13.5q19 0 32.5 13.5t13.5 32.5zM142 541
q0 19 -13.5 32.5t-32.5 13.5t-32.5 -13.5t-13.5 -32.5t13.5 -32.5t32.5 -13.5t32.5 13.5t13.5 32.5zM439 244q0 19 -13.5 32.5t-32.5 13.5q-20 0 -33 -13.5t-13 -32.5t13 -32.5t33 -13.5q19 0 32.5 13.5t13.5 32.5zM538 145q0 19 -13.5 32.5t-32.5 13.5q-20 0 -33 -13.5
t-13 -32.5t13 -32.5t33 -13.5q19 0 32.5 13.5t13.5 32.5zM142 442q0 19 -13.5 32.5t-32.5 13.5t-32.5 -13.5t-13.5 -32.5t13.5 -32.5t32.5 -13.5t32.5 13.5t13.5 32.5zM340 244q0 19 -13.5 32.5t-32.5 13.5t-32.5 -13.5t-13.5 -32.5t13.5 -32.5t32.5 -13.5t32.5 13.5
t13.5 32.5zM538 46q0 19 -13.5 32.5t-32.5 13.5q-20 0 -33 -13.5t-13 -32.5t13 -32.5t33 -13.5q19 0 32.5 13.5t13.5 32.5zM142 343q0 19 -13.5 32.5t-32.5 13.5t-32.5 -13.5t-13.5 -32.5t13.5 -32.5t32.5 -13.5t32.5 13.5t13.5 32.5zM241 244q0 19 -13.5 32.5t-32.5 13.5
t-32.5 -13.5t-13.5 -32.5t13.5 -32.5t32.5 -13.5t32.5 13.5t13.5 32.5zM142 244q0 19 -13.5 32.5t-32.5 13.5t-32.5 -13.5t-13.5 -32.5t13.5 -32.5t32.5 -13.5t32.5 13.5t13.5 32.5zM142 145q0 19 -13.5 32.5t-32.5 13.5t-32.5 -13.5t-13.5 -32.5t13.5 -32.5t32.5 -13.5
t32.5 13.5t13.5 32.5zM142 46q0 19 -13.5 32.5t-32.5 13.5t-32.5 -13.5t-13.5 -32.5t13.5 -32.5t32.5 -13.5t32.5 13.5t13.5 32.5z" />
    <glyph glyph-name="B" unicode="B" 
d="M439 640q0 19 -13.5 32.5t-32.5 13.5q-20 0 -33 -13.5t-13 -32.5t13 -32.5t33 -13.5q19 0 32.5 13.5t13.5 32.5zM538 541q0 19 -13.5 32.5t-32.5 13.5q-20 0 -33 -13.5t-13 -32.5t13 -32.5t33 -13.5q19 0 32.5 13.5t13.5 32.5zM340 640q0 19 -13.5 32.5t-32.5 13.5
t-32.5 -13.5t-13.5 -32.5t13.5 -32.5t32.5 -13.5t32.5 13.5t13.5 32.5zM538 442q0 19 -13.5 32.5t-32.5 13.5q-20 0 -33 -13.5t-13 -32.5t13 -32.5t33 -13.5q19 0 32.5 13.5t13.5 32.5zM241 640q0 19 -13.5 32.5t-32.5 13.5t-32.5 -13.5t-13.5 -32.5t13.5 -32.5t32.5 -13.5
t32.5 13.5t13.5 32.5zM142 640q0 19 -13.5 32.5t-32.5 13.5t-32.5 -13.5t-13.5 -32.5t13.5 -32.5t32.5 -13.5t32.5 13.5t13.5 32.5zM439 343q0 19 -13.5 32.5t-32.5 13.5q-20 0 -33 -13.5t-13 -32.5t13 -32.5t33 -13.5q19 0 32.5 13.5t13.5 32.5zM538 244q0 19 -13.5 32.5
t-32.5 13.5q-20 0 -33 -13.5t-13 -32.5t13 -32.5t33 -13.5q19 0 32.5 13.5t13.5 32.5zM142 541q0 19 -13.5 32.5t-32.5 13.5t-32.5 -13.5t-13.5 -32.5t13.5 -32.5t32.5 -13.5t32.5 13.5t13.5 32.5zM340 343q0 19 -13.5 32.5t-32.5 13.5t-32.5 -13.5t-13.5 -32.5t13.5 -32.5
t32.5 -13.5t32.5 13.5t13.5 32.5zM538 145q0 19 -13.5 32.5t-32.5 13.5q-20 0 -33 -13.5t-13 -32.5t13 -32.5t33 -13.5q19 0 32.5 13.5t13.5 32.5zM142 442q0 19 -13.5 32.5t-32.5 13.5t-32.5 -13.5t-13.5 -32.5t13.5 -32.5t32.5 -13.5t32.5 13.5t13.5 32.5zM241 343
q0 19 -13.5 32.5t-32.5 13.5t-32.5 -13.5t-13.5 -32.5t13.5 -32.5t32.5 -13.5t32.5 13.5t13.5 32.5zM142 343q0 19 -13.5 32.5t-32.5 13.5t-32.5 -13.5t-13.5 -32.5t13.5 -32.5t32.5 -13.5t32.5 13.5t13.5 32.5zM439 46q0 19 -13.5 32.5t-32.5 13.5q-20 0 -33 -13.5
t-13 -32.5t13 -32.5t33 -13.5q19 0 32.5 13.5t13.5 32.5zM142 244q0 19 -13.5 32.5t-32.5 13.5t-32.5 -13.5t-13.5 -32.5t13.5 -32.5t32.5 -13.5t32.5 13.5t13.5 32.5zM340 46q0 19 -13.5 32.5t-32.5 13.5t-32.5 -13.5t-13.5 -32.5t13.5 -32.5t32.5 -13.5t32.5 13.5
t13.5 32.5zM142 145q0 19 -13.5 32.5t-32.5 13.5t-32.5 -13.5t-13.5 -32.5t13.5 -32.5t32.5 -13.5t32.5 13.5t13.5 32.5zM241 46q0 19 -13.5 32.5t-32.5 13.5t-32.5 -13.5t-13.5 -32.5t13.5 -32.5t32.5 -13.5t32.5 13.5t13.5 32.5zM142 46q0 19 -13.5 32.5t-32.5 13.5
t-32.5 -13.5t-13.5 -32.5t13.5 -32.5t32.5 -13.5t32.5 13.5t13.5 32.5z" />
    <glyph glyph-name="C" unicode="C" 
d="M439 640q0 19 -13.5 32.5t-32.5 13.5q-20 0 -33 -13.5t-13 -32.5t13 -32.5t33 -13.5q19 0 32.5 13.5t13.5 32.5zM538 541q0 19 -13.5 32.5t-32.5 13.5q-20 0 -33 -13.5t-13 -32.5t13 -32.5t33 -13.5q19 0 32.5 13.5t13.5 32.5zM340 640q0 19 -13.5 32.5t-32.5 13.5
t-32.5 -13.5t-13.5 -32.5t13.5 -32.5t32.5 -13.5t32.5 13.5t13.5 32.5zM241 640q0 19 -13.5 32.5t-32.5 13.5t-32.5 -13.5t-13.5 -32.5t13.5 -32.5t32.5 -13.5t32.5 13.5t13.5 32.5zM142 541q0 19 -13.5 32.5t-32.5 13.5t-32.5 -13.5t-13.5 -32.5t13.5 -32.5t32.5 -13.5
t32.5 13.5t13.5 32.5zM538 145q0 19 -13.5 32.5t-32.5 13.5q-20 0 -33 -13.5t-13 -32.5t13 -32.5t33 -13.5q19 0 32.5 13.5t13.5 32.5zM142 442q0 19 -13.5 32.5t-32.5 13.5t-32.5 -13.5t-13.5 -32.5t13.5 -32.5t32.5 -13.5t32.5 13.5t13.5 32.5zM142 343q0 19 -13.5 32.5
t-32.5 13.5t-32.5 -13.5t-13.5 -32.5t13.5 -32.5t32.5 -13.5t32.5 13.5t13.5 32.5zM439 46q0 19 -13.5 32.5t-32.5 13.5q-20 0 -33 -13.5t-13 -32.5t13 -32.5t33 -13.5q19 0 32.5 13.5t13.5 32.5zM142 244q0 19 -13.5 32.5t-32.5 13.5t-32.5 -13.5t-13.5 -32.5t13.5 -32.5
t32.5 -13.5t32.5 13.5t13.5 32.5zM340 46q0 19 -13.5 32.5t-32.5 13.5t-32.5 -13.5t-13.5 -32.5t13.5 -32.5t32.5 -13.5t32.5 13.5t13.5 32.5zM142 145q0 19 -13.5 32.5t-32.5 13.5t-32.5 -13.5t-13.5 -32.5t13.5 -32.5t32.5 -13.5t32.5 13.5t13.5 32.5zM241 46
q0 19 -13.5 32.5t-32.5 13.5t-32.5 -13.5t-13.5 -32.5t13.5 -32.5t32.5 -13.5t32.5 13.5t13.5 32.5z" />
    <glyph glyph-name="D" unicode="D" 
d="M340 640q0 19 -13.5 32.5t-32.5 13.5t-32.5 -13.5t-13.5 -32.5t13.5 -32.5t32.5 -13.5t32.5 13.5t13.5 32.5zM439 541q0 19 -13.5 32.5t-32.5 13.5q-20 0 -33 -13.5t-13 -32.5t13 -32.5t33 -13.5q19 0 32.5 13.5t13.5 32.5zM538 442q0 19 -13.5 32.5t-32.5 13.5
q-20 0 -33 -13.5t-13 -32.5t13 -32.5t33 -13.5q19 0 32.5 13.5t13.5 32.5zM241 640q0 19 -13.5 32.5t-32.5 13.5t-32.5 -13.5t-13.5 -32.5t13.5 -32.5t32.5 -13.5t32.5 13.5t13.5 32.5zM538 343q0 19 -13.5 32.5t-32.5 13.5q-20 0 -33 -13.5t-13 -32.5t13 -32.5t33 -13.5
q19 0 32.5 13.5t13.5 32.5zM142 640q0 19 -13.5 32.5t-32.5 13.5t-32.5 -13.5t-13.5 -32.5t13.5 -32.5t32.5 -13.5t32.5 13.5t13.5 32.5zM538 244q0 19 -13.5 32.5t-32.5 13.5q-20 0 -33 -13.5t-13 -32.5t13 -32.5t33 -13.5q19 0 32.5 13.5t13.5 32.5zM142 541
q0 19 -13.5 32.5t-32.5 13.5t-32.5 -13.5t-13.5 -32.5t13.5 -32.5t32.5 -13.5t32.5 13.5t13.5 32.5zM142 442q0 19 -13.5 32.5t-32.5 13.5t-32.5 -13.5t-13.5 -32.5t13.5 -32.5t32.5 -13.5t32.5 13.5t13.5 32.5zM439 145q0 19 -13.5 32.5t-32.5 13.5q-20 0 -33 -13.5
t-13 -32.5t13 -32.5t33 -13.5q19 0 32.5 13.5t13.5 32.5zM142 343q0 19 -13.5 32.5t-32.5 13.5t-32.5 -13.5t-13.5 -32.5t13.5 -32.5t32.5 -13.5t32.5 13.5t13.5 32.5zM142 244q0 19 -13.5 32.5t-32.5 13.5t-32.5 -13.5t-13.5 -32.5t13.5 -32.5t32.5 -13.5t32.5 13.5
t13.5 32.5zM340 46q0 19 -13.5 32.5t-32.5 13.5t-32.5 -13.5t-13.5 -32.5t13.5 -32.5t32.5 -13.5t32.5 13.5t13.5 32.5zM142 145q0 19 -13.5 32.5t-32.5 13.5t-32.5 -13.5t-13.5 -32.5t13.5 -32.5t32.5 -13.5t32.5 13.5t13.5 32.5zM241 46q0 19 -13.5 32.5t-32.5 13.5
t-32.5 -13.5t-13.5 -32.5t13.5 -32.5t32.5 -13.5t32.5 13.5t13.5 32.5zM142 46q0 19 -13.5 32.5t-32.5 13.5t-32.5 -13.5t-13.5 -32.5t13.5 -32.5t32.5 -13.5t32.5 13.5t13.5 32.5z" />
    <glyph glyph-name="E" unicode="E" 
d="M538 640q0 19 -13.5 32.5t-32.5 13.5q-20 0 -33 -13.5t-13 -32.5t13 -32.5t33 -13.5q19 0 32.5 13.5t13.5 32.5zM439 640q0 19 -13.5 32.5t-32.5 13.5q-20 0 -33 -13.5t-13 -32.5t13 -32.5t33 -13.5q19 0 32.5 13.5t13.5 32.5zM340 640q0 19 -13.5 32.5t-32.5 13.5
t-32.5 -13.5t-13.5 -32.5t13.5 -32.5t32.5 -13.5t32.5 13.5t13.5 32.5zM241 640q0 19 -13.5 32.5t-32.5 13.5t-32.5 -13.5t-13.5 -32.5t13.5 -32.5t32.5 -13.5t32.5 13.5t13.5 32.5zM142 640q0 19 -13.5 32.5t-32.5 13.5t-32.5 -13.5t-13.5 -32.5t13.5 -32.5t32.5 -13.5
t32.5 13.5t13.5 32.5zM439 343q0 19 -13.5 32.5t-32.5 13.5q-20 0 -33 -13.5t-13 -32.5t13 -32.5t33 -13.5q19 0 32.5 13.5t13.5 32.5zM142 541q0 19 -13.5 32.5t-32.5 13.5t-32.5 -13.5t-13.5 -32.5t13.5 -32.5t32.5 -13.5t32.5 13.5t13.5 32.5zM340 343q0 19 -13.5 32.5
t-32.5 13.5t-32.5 -13.5t-13.5 -32.5t13.5 -32.5t32.5 -13.5t32.5 13.5t13.5 32.5zM142 442q0 19 -13.5 32.5t-32.5 13.5t-32.5 -13.5t-13.5 -32.5t13.5 -32.5t32.5 -13.5t32.5 13.5t13.5 32.5zM241 343q0 19 -13.5 32.5t-32.5 13.5t-32.5 -13.5t-13.5 -32.5t13.5 -32.5
t32.5 -13.5t32.5 13.5t13.5 32.5zM538 46q0 19 -13.5 32.5t-32.5 13.5q-20 0 -33 -13.5t-13 -32.5t13 -32.5t33 -13.5q19 0 32.5 13.5t13.5 32.5zM142 343q0 19 -13.5 32.5t-32.5 13.5t-32.5 -13.5t-13.5 -32.5t13.5 -32.5t32.5 -13.5t32.5 13.5t13.5 32.5zM439 46
q0 19 -13.5 32.5t-32.5 13.5q-20 0 -33 -13.5t-13 -32.5t13 -32.5t33 -13.5q19 0 32.5 13.5t13.5 32.5zM142 244q0 19 -13.5 32.5t-32.5 13.5t-32.5 -13.5t-13.5 -32.5t13.5 -32.5t32.5 -13.5t32.5 13.5t13.5 32.5zM340 46q0 19 -13.5 32.5t-32.5 13.5t-32.5 -13.5
t-13.5 -32.5t13.5 -32.5t32.5 -13.5t32.5 13.5t13.5 32.5zM142 145q0 19 -13.5 32.5t-32.5 13.5t-32.5 -13.5t-13.5 -32.5t13.5 -32.5t32.5 -13.5t32.5 13.5t13.5 32.5zM241 46q0 19 -13.5 32.5t-32.5 13.5t-32.5 -13.5t-13.5 -32.5t13.5 -32.5t32.5 -13.5t32.5 13.5
t13.5 32.5zM142 46q0 19 -13.5 32.5t-32.5 13.5t-32.5 -13.5t-13.5 -32.5t13.5 -32.5t32.5 -13.5t32.5 13.5t13.5 32.5z" />
    <glyph glyph-name="F" unicode="F" 
d="M538 640q0 19 -13.5 32.5t-32.5 13.5q-20 0 -33 -13.5t-13 -32.5t13 -32.5t33 -13.5q19 0 32.5 13.5t13.5 32.5zM439 640q0 19 -13.5 32.5t-32.5 13.5q-20 0 -33 -13.5t-13 -32.5t13 -32.5t33 -13.5q19 0 32.5 13.5t13.5 32.5zM340 640q0 19 -13.5 32.5t-32.5 13.5
t-32.5 -13.5t-13.5 -32.5t13.5 -32.5t32.5 -13.5t32.5 13.5t13.5 32.5zM241 640q0 19 -13.5 32.5t-32.5 13.5t-32.5 -13.5t-13.5 -32.5t13.5 -32.5t32.5 -13.5t32.5 13.5t13.5 32.5zM142 640q0 19 -13.5 32.5t-32.5 13.5t-32.5 -13.5t-13.5 -32.5t13.5 -32.5t32.5 -13.5
t32.5 13.5t13.5 32.5zM439 343q0 19 -13.5 32.5t-32.5 13.5q-20 0 -33 -13.5t-13 -32.5t13 -32.5t33 -13.5q19 0 32.5 13.5t13.5 32.5zM142 541q0 19 -13.5 32.5t-32.5 13.5t-32.5 -13.5t-13.5 -32.5t13.5 -32.5t32.5 -13.5t32.5 13.5t13.5 32.5zM340 343q0 19 -13.5 32.5
t-32.5 13.5t-32.5 -13.5t-13.5 -32.5t13.5 -32.5t32.5 -13.5t32.5 13.5t13.5 32.5zM142 442q0 19 -13.5 32.5t-32.5 13.5t-32.5 -13.5t-13.5 -32.5t13.5 -32.5t32.5 -13.5t32.5 13.5t13.5 32.5zM241 343q0 19 -13.5 32.5t-32.5 13.5t-32.5 -13.5t-13.5 -32.5t13.5 -32.5
t32.5 -13.5t32.5 13.5t13.5 32.5zM142 343q0 19 -13.5 32.5t-32.5 13.5t-32.5 -13.5t-13.5 -32.5t13.5 -32.5t32.5 -13.5t32.5 13.5t13.5 32.5zM142 244q0 19 -13.5 32.5t-32.5 13.5t-32.5 -13.5t-13.5 -32.5t13.5 -32.5t32.5 -13.5t32.5 13.5t13.5 32.5zM142 145
q0 19 -13.5 32.5t-32.5 13.5t-32.5 -13.5t-13.5 -32.5t13.5 -32.5t32.5 -13.5t32.5 13.5t13.5 32.5zM142 46q0 19 -13.5 32.5t-32.5 13.5t-32.5 -13.5t-13.5 -32.5t13.5 -32.5t32.5 -13.5t32.5 13.5t13.5 32.5z" />
    <glyph glyph-name="G" unicode="G" 
d="M439 640q0 19 -13.5 32.5t-32.5 13.5q-20 0 -33 -13.5t-13 -32.5t13 -32.5t33 -13.5q19 0 32.5 13.5t13.5 32.5zM538 541q0 19 -13.5 32.5t-32.5 13.5q-20 0 -33 -13.5t-13 -32.5t13 -32.5t33 -13.5q19 0 32.5 13.5t13.5 32.5zM340 640q0 19 -13.5 32.5t-32.5 13.5
t-32.5 -13.5t-13.5 -32.5t13.5 -32.5t32.5 -13.5t32.5 13.5t13.5 32.5zM241 640q0 19 -13.5 32.5t-32.5 13.5t-32.5 -13.5t-13.5 -32.5t13.5 -32.5t32.5 -13.5t32.5 13.5t13.5 32.5zM538 343q0 19 -13.5 32.5t-32.5 13.5q-20 0 -33 -13.5t-13 -32.5t13 -32.5t33 -13.5
q19 0 32.5 13.5t13.5 32.5zM439 343q0 19 -13.5 32.5t-32.5 13.5q-20 0 -33 -13.5t-13 -32.5t13 -32.5t33 -13.5q19 0 32.5 13.5t13.5 32.5zM538 244q0 19 -13.5 32.5t-32.5 13.5q-20 0 -33 -13.5t-13 -32.5t13 -32.5t33 -13.5q19 0 32.5 13.5t13.5 32.5zM142 541
q0 19 -13.5 32.5t-32.5 13.5t-32.5 -13.5t-13.5 -32.5t13.5 -32.5t32.5 -13.5t32.5 13.5t13.5 32.5zM340 343q0 19 -13.5 32.5t-32.5 13.5t-32.5 -13.5t-13.5 -32.5t13.5 -32.5t32.5 -13.5t32.5 13.5t13.5 32.5zM538 145q0 19 -13.5 32.5t-32.5 13.5q-20 0 -33 -13.5
t-13 -32.5t13 -32.5t33 -13.5q19 0 32.5 13.5t13.5 32.5zM142 442q0 19 -13.5 32.5t-32.5 13.5t-32.5 -13.5t-13.5 -32.5t13.5 -32.5t32.5 -13.5t32.5 13.5t13.5 32.5zM538 46q0 19 -13.5 32.5t-32.5 13.5q-20 0 -33 -13.5t-13 -32.5t13 -32.5t33 -13.5q19 0 32.5 13.5
t13.5 32.5zM142 343q0 19 -13.5 32.5t-32.5 13.5t-32.5 -13.5t-13.5 -32.5t13.5 -32.5t32.5 -13.5t32.5 13.5t13.5 32.5zM439 46q0 19 -13.5 32.5t-32.5 13.5q-20 0 -33 -13.5t-13 -32.5t13 -32.5t33 -13.5q19 0 32.5 13.5t13.5 32.5zM142 244q0 19 -13.5 32.5t-32.5 13.5
t-32.5 -13.5t-13.5 -32.5t13.5 -32.5t32.5 -13.5t32.5 13.5t13.5 32.5zM340 46q0 19 -13.5 32.5t-32.5 13.5t-32.5 -13.5t-13.5 -32.5t13.5 -32.5t32.5 -13.5t32.5 13.5t13.5 32.5zM142 145q0 19 -13.5 32.5t-32.5 13.5t-32.5 -13.5t-13.5 -32.5t13.5 -32.5t32.5 -13.5
t32.5 13.5t13.5 32.5zM241 46q0 19 -13.5 32.5t-32.5 13.5t-32.5 -13.5t-13.5 -32.5t13.5 -32.5t32.5 -13.5t32.5 13.5t13.5 32.5z" />
    <glyph glyph-name="H" unicode="H" 
d="M538 640q0 19 -13.5 32.5t-32.5 13.5q-20 0 -33 -13.5t-13 -32.5t13 -32.5t33 -13.5q19 0 32.5 13.5t13.5 32.5zM538 541q0 19 -13.5 32.5t-32.5 13.5q-20 0 -33 -13.5t-13 -32.5t13 -32.5t33 -13.5q19 0 32.5 13.5t13.5 32.5zM538 442q0 19 -13.5 32.5t-32.5 13.5
q-20 0 -33 -13.5t-13 -32.5t13 -32.5t33 -13.5q19 0 32.5 13.5t13.5 32.5zM538 343q0 19 -13.5 32.5t-32.5 13.5q-20 0 -33 -13.5t-13 -32.5t13 -32.5t33 -13.5q19 0 32.5 13.5t13.5 32.5zM142 640q0 19 -13.5 32.5t-32.5 13.5t-32.5 -13.5t-13.5 -32.5t13.5 -32.5
t32.5 -13.5t32.5 13.5t13.5 32.5zM439 343q0 19 -13.5 32.5t-32.5 13.5q-20 0 -33 -13.5t-13 -32.5t13 -32.5t33 -13.5q19 0 32.5 13.5t13.5 32.5zM538 244q0 19 -13.5 32.5t-32.5 13.5q-20 0 -33 -13.5t-13 -32.5t13 -32.5t33 -13.5q19 0 32.5 13.5t13.5 32.5zM142 541
q0 19 -13.5 32.5t-32.5 13.5t-32.5 -13.5t-13.5 -32.5t13.5 -32.5t32.5 -13.5t32.5 13.5t13.5 32.5zM340 343q0 19 -13.5 32.5t-32.5 13.5t-32.5 -13.5t-13.5 -32.5t13.5 -32.5t32.5 -13.5t32.5 13.5t13.5 32.5zM538 145q0 19 -13.5 32.5t-32.5 13.5q-20 0 -33 -13.5
t-13 -32.5t13 -32.5t33 -13.5q19 0 32.5 13.5t13.5 32.5zM142 442q0 19 -13.5 32.5t-32.5 13.5t-32.5 -13.5t-13.5 -32.5t13.5 -32.5t32.5 -13.5t32.5 13.5t13.5 32.5zM241 343q0 19 -13.5 32.5t-32.5 13.5t-32.5 -13.5t-13.5 -32.5t13.5 -32.5t32.5 -13.5t32.5 13.5
t13.5 32.5zM538 46q0 19 -13.5 32.5t-32.5 13.5q-20 0 -33 -13.5t-13 -32.5t13 -32.5t33 -13.5q19 0 32.5 13.5t13.5 32.5zM142 343q0 19 -13.5 32.5t-32.5 13.5t-32.5 -13.5t-13.5 -32.5t13.5 -32.5t32.5 -13.5t32.5 13.5t13.5 32.5zM142 244q0 19 -13.5 32.5t-32.5 13.5
t-32.5 -13.5t-13.5 -32.5t13.5 -32.5t32.5 -13.5t32.5 13.5t13.5 32.5zM142 145q0 19 -13.5 32.5t-32.5 13.5t-32.5 -13.5t-13.5 -32.5t13.5 -32.5t32.5 -13.5t32.5 13.5t13.5 32.5zM142 46q0 19 -13.5 32.5t-32.5 13.5t-32.5 -13.5t-13.5 -32.5t13.5 -32.5t32.5 -13.5
t32.5 13.5t13.5 32.5z" />
    <glyph glyph-name="I" unicode="I" horiz-adv-x="390" 
d="M340 640q0 19 -13.5 32.5t-32.5 13.5q-20 0 -33 -13.5t-13 -32.5t13 -32.5t33 -13.5q19 0 32.5 13.5t13.5 32.5zM241 640q0 19 -13.5 32.5t-32.5 13.5t-32.5 -13.5t-13.5 -32.5t13.5 -32.5t32.5 -13.5t32.5 13.5t13.5 32.5zM142 640q0 19 -13.5 32.5t-32.5 13.5
t-32.5 -13.5t-13.5 -32.5t13.5 -32.5t32.5 -13.5t32.5 13.5t13.5 32.5zM241 541q0 19 -13.5 32.5t-32.5 13.5t-32.5 -13.5t-13.5 -32.5t13.5 -32.5t32.5 -13.5t32.5 13.5t13.5 32.5zM241 442q0 19 -13.5 32.5t-32.5 13.5t-32.5 -13.5t-13.5 -32.5t13.5 -32.5t32.5 -13.5
t32.5 13.5t13.5 32.5zM241 343q0 19 -13.5 32.5t-32.5 13.5t-32.5 -13.5t-13.5 -32.5t13.5 -32.5t32.5 -13.5t32.5 13.5t13.5 32.5zM241 244q0 19 -13.5 32.5t-32.5 13.5t-32.5 -13.5t-13.5 -32.5t13.5 -32.5t32.5 -13.5t32.5 13.5t13.5 32.5zM241 145q0 19 -13.5 32.5
t-32.5 13.5t-32.5 -13.5t-13.5 -32.5t13.5 -32.5t32.5 -13.5t32.5 13.5t13.5 32.5zM340 46q0 19 -13.5 32.5t-32.5 13.5q-20 0 -33 -13.5t-13 -32.5t13 -32.5t33 -13.5q19 0 32.5 13.5t13.5 32.5zM241 46q0 19 -13.5 32.5t-32.5 13.5t-32.5 -13.5t-13.5 -32.5t13.5 -32.5
t32.5 -13.5t32.5 13.5t13.5 32.5zM142 46q0 19 -13.5 32.5t-32.5 13.5t-32.5 -13.5t-13.5 -32.5t13.5 -32.5t32.5 -13.5t32.5 13.5t13.5 32.5z" />
    <glyph glyph-name="J" unicode="J" 
d="M538 640q0 19 -13.5 32.5t-32.5 13.5q-20 0 -33 -13.5t-13 -32.5t13 -32.5t33 -13.5q19 0 32.5 13.5t13.5 32.5zM439 640q0 19 -13.5 32.5t-32.5 13.5q-20 0 -33 -13.5t-13 -32.5t13 -32.5t33 -13.5q19 0 32.5 13.5t13.5 32.5zM340 640q0 19 -13.5 32.5t-32.5 13.5
t-32.5 -13.5t-13.5 -32.5t13.5 -32.5t32.5 -13.5t32.5 13.5t13.5 32.5zM439 541q0 19 -13.5 32.5t-32.5 13.5q-20 0 -33 -13.5t-13 -32.5t13 -32.5t33 -13.5q19 0 32.5 13.5t13.5 32.5zM439 442q0 19 -13.5 32.5t-32.5 13.5q-20 0 -33 -13.5t-13 -32.5t13 -32.5t33 -13.5
q19 0 32.5 13.5t13.5 32.5zM439 343q0 19 -13.5 32.5t-32.5 13.5q-20 0 -33 -13.5t-13 -32.5t13 -32.5t33 -13.5q19 0 32.5 13.5t13.5 32.5zM439 244q0 19 -13.5 32.5t-32.5 13.5q-20 0 -33 -13.5t-13 -32.5t13 -32.5t33 -13.5q19 0 32.5 13.5t13.5 32.5zM439 145
q0 19 -13.5 32.5t-32.5 13.5q-20 0 -33 -13.5t-13 -32.5t13 -32.5t33 -13.5q19 0 32.5 13.5t13.5 32.5zM142 244q0 19 -13.5 32.5t-32.5 13.5t-32.5 -13.5t-13.5 -32.5t13.5 -32.5t32.5 -13.5t32.5 13.5t13.5 32.5zM340 46q0 19 -13.5 32.5t-32.5 13.5t-32.5 -13.5
t-13.5 -32.5t13.5 -32.5t32.5 -13.5t32.5 13.5t13.5 32.5zM142 145q0 19 -13.5 32.5t-32.5 13.5t-32.5 -13.5t-13.5 -32.5t13.5 -32.5t32.5 -13.5t32.5 13.5t13.5 32.5zM241 46q0 19 -13.5 32.5t-32.5 13.5t-32.5 -13.5t-13.5 -32.5t13.5 -32.5t32.5 -13.5t32.5 13.5
t13.5 32.5z" />
    <glyph glyph-name="K" unicode="K" 
d="M538 640q0 19 -13.5 32.5t-32.5 13.5q-20 0 -33 -13.5t-13 -32.5t13 -32.5t33 -13.5q19 0 32.5 13.5t13.5 32.5zM439 541q0 19 -13.5 32.5t-32.5 13.5q-20 0 -33 -13.5t-13 -32.5t13 -32.5t33 -13.5q19 0 32.5 13.5t13.5 32.5zM142 640q0 19 -13.5 32.5t-32.5 13.5
t-32.5 -13.5t-13.5 -32.5t13.5 -32.5t32.5 -13.5t32.5 13.5t13.5 32.5zM340 442q0 19 -13.5 32.5t-32.5 13.5t-32.5 -13.5t-13.5 -32.5t13.5 -32.5t32.5 -13.5t32.5 13.5t13.5 32.5zM142 541q0 19 -13.5 32.5t-32.5 13.5t-32.5 -13.5t-13.5 -32.5t13.5 -32.5t32.5 -13.5
t32.5 13.5t13.5 32.5zM142 442q0 19 -13.5 32.5t-32.5 13.5t-32.5 -13.5t-13.5 -32.5t13.5 -32.5t32.5 -13.5t32.5 13.5t13.5 32.5zM241 343q0 19 -13.5 32.5t-32.5 13.5t-32.5 -13.5t-13.5 -32.5t13.5 -32.5t32.5 -13.5t32.5 13.5t13.5 32.5zM340 244q0 19 -13.5 32.5
t-32.5 13.5t-32.5 -13.5t-13.5 -32.5t13.5 -32.5t32.5 -13.5t32.5 13.5t13.5 32.5zM439 145q0 19 -13.5 32.5t-32.5 13.5q-20 0 -33 -13.5t-13 -32.5t13 -32.5t33 -13.5q19 0 32.5 13.5t13.5 32.5zM538 46q0 19 -13.5 32.5t-32.5 13.5q-20 0 -33 -13.5t-13 -32.5t13 -32.5
t33 -13.5q19 0 32.5 13.5t13.5 32.5zM142 343q0 19 -13.5 32.5t-32.5 13.5t-32.5 -13.5t-13.5 -32.5t13.5 -32.5t32.5 -13.5t32.5 13.5t13.5 32.5zM142 244q0 19 -13.5 32.5t-32.5 13.5t-32.5 -13.5t-13.5 -32.5t13.5 -32.5t32.5 -13.5t32.5 13.5t13.5 32.5zM142 145
q0 19 -13.5 32.5t-32.5 13.5t-32.5 -13.5t-13.5 -32.5t13.5 -32.5t32.5 -13.5t32.5 13.5t13.5 32.5zM142 46q0 19 -13.5 32.5t-32.5 13.5t-32.5 -13.5t-13.5 -32.5t13.5 -32.5t32.5 -13.5t32.5 13.5t13.5 32.5z" />
    <glyph glyph-name="L" unicode="L" 
d="M142 640q0 19 -13.5 32.5t-32.5 13.5t-32.5 -13.5t-13.5 -32.5t13.5 -32.5t32.5 -13.5t32.5 13.5t13.5 32.5zM142 541q0 19 -13.5 32.5t-32.5 13.5t-32.5 -13.5t-13.5 -32.5t13.5 -32.5t32.5 -13.5t32.5 13.5t13.5 32.5zM142 442q0 19 -13.5 32.5t-32.5 13.5t-32.5 -13.5
t-13.5 -32.5t13.5 -32.5t32.5 -13.5t32.5 13.5t13.5 32.5zM538 46q0 19 -13.5 32.5t-32.5 13.5q-20 0 -33 -13.5t-13 -32.5t13 -32.5t33 -13.5q19 0 32.5 13.5t13.5 32.5zM142 343q0 19 -13.5 32.5t-32.5 13.5t-32.5 -13.5t-13.5 -32.5t13.5 -32.5t32.5 -13.5t32.5 13.5
t13.5 32.5zM439 46q0 19 -13.5 32.5t-32.5 13.5q-20 0 -33 -13.5t-13 -32.5t13 -32.5t33 -13.5q19 0 32.5 13.5t13.5 32.5zM142 244q0 19 -13.5 32.5t-32.5 13.5t-32.5 -13.5t-13.5 -32.5t13.5 -32.5t32.5 -13.5t32.5 13.5t13.5 32.5zM340 46q0 19 -13.5 32.5t-32.5 13.5
t-32.5 -13.5t-13.5 -32.5t13.5 -32.5t32.5 -13.5t32.5 13.5t13.5 32.5zM142 145q0 19 -13.5 32.5t-32.5 13.5t-32.5 -13.5t-13.5 -32.5t13.5 -32.5t32.5 -13.5t32.5 13.5t13.5 32.5zM241 46q0 19 -13.5 32.5t-32.5 13.5t-32.5 -13.5t-13.5 -32.5t13.5 -32.5t32.5 -13.5
t32.5 13.5t13.5 32.5zM142 46q0 19 -13.5 32.5t-32.5 13.5t-32.5 -13.5t-13.5 -32.5t13.5 -32.5t32.5 -13.5t32.5 13.5t13.5 32.5z" />
    <glyph glyph-name="M" unicode="M" 
d="M538 640q0 19 -13.5 32.5t-32.5 13.5q-20 0 -33 -13.5t-13 -32.5t13 -32.5t33 -13.5q19 0 32.5 13.5t13.5 32.5zM538 541q0 19 -13.5 32.5t-32.5 13.5q-20 0 -33 -13.5t-13 -32.5t13 -32.5t33 -13.5q19 0 32.5 13.5t13.5 32.5zM439 541q0 19 -13.5 32.5t-32.5 13.5
q-20 0 -33 -13.5t-13 -32.5t13 -32.5t33 -13.5q19 0 32.5 13.5t13.5 32.5zM538 442q0 19 -13.5 32.5t-32.5 13.5q-20 0 -33 -13.5t-13 -32.5t13 -32.5t33 -13.5q19 0 32.5 13.5t13.5 32.5zM538 343q0 19 -13.5 32.5t-32.5 13.5q-20 0 -33 -13.5t-13 -32.5t13 -32.5t33 -13.5
q19 0 32.5 13.5t13.5 32.5zM142 640q0 19 -13.5 32.5t-32.5 13.5t-32.5 -13.5t-13.5 -32.5t13.5 -32.5t32.5 -13.5t32.5 13.5t13.5 32.5zM241 541q0 19 -13.5 32.5t-32.5 13.5t-32.5 -13.5t-13.5 -32.5t13.5 -32.5t32.5 -13.5t32.5 13.5t13.5 32.5zM340 442q0 19 -13.5 32.5
t-32.5 13.5t-32.5 -13.5t-13.5 -32.5t13.5 -32.5t32.5 -13.5t32.5 13.5t13.5 32.5zM538 244q0 19 -13.5 32.5t-32.5 13.5q-20 0 -33 -13.5t-13 -32.5t13 -32.5t33 -13.5q19 0 32.5 13.5t13.5 32.5zM142 541q0 19 -13.5 32.5t-32.5 13.5t-32.5 -13.5t-13.5 -32.5t13.5 -32.5
t32.5 -13.5t32.5 13.5t13.5 32.5zM340 343q0 19 -13.5 32.5t-32.5 13.5t-32.5 -13.5t-13.5 -32.5t13.5 -32.5t32.5 -13.5t32.5 13.5t13.5 32.5zM538 145q0 19 -13.5 32.5t-32.5 13.5q-20 0 -33 -13.5t-13 -32.5t13 -32.5t33 -13.5q19 0 32.5 13.5t13.5 32.5zM142 442
q0 19 -13.5 32.5t-32.5 13.5t-32.5 -13.5t-13.5 -32.5t13.5 -32.5t32.5 -13.5t32.5 13.5t13.5 32.5zM538 46q0 19 -13.5 32.5t-32.5 13.5q-20 0 -33 -13.5t-13 -32.5t13 -32.5t33 -13.5q19 0 32.5 13.5t13.5 32.5zM142 343q0 19 -13.5 32.5t-32.5 13.5t-32.5 -13.5
t-13.5 -32.5t13.5 -32.5t32.5 -13.5t32.5 13.5t13.5 32.5zM142 244q0 19 -13.5 32.5t-32.5 13.5t-32.5 -13.5t-13.5 -32.5t13.5 -32.5t32.5 -13.5t32.5 13.5t13.5 32.5zM142 145q0 19 -13.5 32.5t-32.5 13.5t-32.5 -13.5t-13.5 -32.5t13.5 -32.5t32.5 -13.5t32.5 13.5
t13.5 32.5zM142 46q0 19 -13.5 32.5t-32.5 13.5t-32.5 -13.5t-13.5 -32.5t13.5 -32.5t32.5 -13.5t32.5 13.5t13.5 32.5z" />
    <glyph glyph-name="N" unicode="N" 
d="M538 640q0 19 -13.5 32.5t-32.5 13.5q-20 0 -33 -13.5t-13 -32.5t13 -32.5t33 -13.5q19 0 32.5 13.5t13.5 32.5zM538 541q0 19 -13.5 32.5t-32.5 13.5q-20 0 -33 -13.5t-13 -32.5t13 -32.5t33 -13.5q19 0 32.5 13.5t13.5 32.5zM538 442q0 19 -13.5 32.5t-32.5 13.5
q-20 0 -33 -13.5t-13 -32.5t13 -32.5t33 -13.5q19 0 32.5 13.5t13.5 32.5zM538 343q0 19 -13.5 32.5t-32.5 13.5q-20 0 -33 -13.5t-13 -32.5t13 -32.5t33 -13.5q19 0 32.5 13.5t13.5 32.5zM142 640q0 19 -13.5 32.5t-32.5 13.5t-32.5 -13.5t-13.5 -32.5t13.5 -32.5
t32.5 -13.5t32.5 13.5t13.5 32.5zM538 244q0 19 -13.5 32.5t-32.5 13.5q-20 0 -33 -13.5t-13 -32.5t13 -32.5t33 -13.5q19 0 32.5 13.5t13.5 32.5zM142 541q0 19 -13.5 32.5t-32.5 13.5t-32.5 -13.5t-13.5 -32.5t13.5 -32.5t32.5 -13.5t32.5 13.5t13.5 32.5zM241 442
q0 19 -13.5 32.5t-32.5 13.5t-32.5 -13.5t-13.5 -32.5t13.5 -32.5t32.5 -13.5t32.5 13.5t13.5 32.5zM340 343q0 19 -13.5 32.5t-32.5 13.5t-32.5 -13.5t-13.5 -32.5t13.5 -32.5t32.5 -13.5t32.5 13.5t13.5 32.5zM439 244q0 19 -13.5 32.5t-32.5 13.5q-20 0 -33 -13.5
t-13 -32.5t13 -32.5t33 -13.5q19 0 32.5 13.5t13.5 32.5zM538 145q0 19 -13.5 32.5t-32.5 13.5q-20 0 -33 -13.5t-13 -32.5t13 -32.5t33 -13.5q19 0 32.5 13.5t13.5 32.5zM142 442q0 19 -13.5 32.5t-32.5 13.5t-32.5 -13.5t-13.5 -32.5t13.5 -32.5t32.5 -13.5t32.5 13.5
t13.5 32.5zM538 46q0 19 -13.5 32.5t-32.5 13.5q-20 0 -33 -13.5t-13 -32.5t13 -32.5t33 -13.5q19 0 32.5 13.5t13.5 32.5zM142 343q0 19 -13.5 32.5t-32.5 13.5t-32.5 -13.5t-13.5 -32.5t13.5 -32.5t32.5 -13.5t32.5 13.5t13.5 32.5zM142 244q0 19 -13.5 32.5t-32.5 13.5
t-32.5 -13.5t-13.5 -32.5t13.5 -32.5t32.5 -13.5t32.5 13.5t13.5 32.5zM142 145q0 19 -13.5 32.5t-32.5 13.5t-32.5 -13.5t-13.5 -32.5t13.5 -32.5t32.5 -13.5t32.5 13.5t13.5 32.5zM142 46q0 19 -13.5 32.5t-32.5 13.5t-32.5 -13.5t-13.5 -32.5t13.5 -32.5t32.5 -13.5
t32.5 13.5t13.5 32.5z" />
    <glyph glyph-name="O" unicode="O" 
d="M439 640q0 19 -13.5 32.5t-32.5 13.5q-20 0 -33 -13.5t-13 -32.5t13 -32.5t33 -13.5q19 0 32.5 13.5t13.5 32.5zM538 541q0 19 -13.5 32.5t-32.5 13.5q-20 0 -33 -13.5t-13 -32.5t13 -32.5t33 -13.5q19 0 32.5 13.5t13.5 32.5zM340 640q0 19 -13.5 32.5t-32.5 13.5
t-32.5 -13.5t-13.5 -32.5t13.5 -32.5t32.5 -13.5t32.5 13.5t13.5 32.5zM538 442q0 19 -13.5 32.5t-32.5 13.5q-20 0 -33 -13.5t-13 -32.5t13 -32.5t33 -13.5q19 0 32.5 13.5t13.5 32.5zM241 640q0 19 -13.5 32.5t-32.5 13.5t-32.5 -13.5t-13.5 -32.5t13.5 -32.5t32.5 -13.5
t32.5 13.5t13.5 32.5zM538 343q0 19 -13.5 32.5t-32.5 13.5q-20 0 -33 -13.5t-13 -32.5t13 -32.5t33 -13.5q19 0 32.5 13.5t13.5 32.5zM538 244q0 19 -13.5 32.5t-32.5 13.5q-20 0 -33 -13.5t-13 -32.5t13 -32.5t33 -13.5q19 0 32.5 13.5t13.5 32.5zM142 541
q0 19 -13.5 32.5t-32.5 13.5t-32.5 -13.5t-13.5 -32.5t13.5 -32.5t32.5 -13.5t32.5 13.5t13.5 32.5zM538 145q0 19 -13.5 32.5t-32.5 13.5q-20 0 -33 -13.5t-13 -32.5t13 -32.5t33 -13.5q19 0 32.5 13.5t13.5 32.5zM142 442q0 19 -13.5 32.5t-32.5 13.5t-32.5 -13.5
t-13.5 -32.5t13.5 -32.5t32.5 -13.5t32.5 13.5t13.5 32.5zM142 343q0 19 -13.5 32.5t-32.5 13.5t-32.5 -13.5t-13.5 -32.5t13.5 -32.5t32.5 -13.5t32.5 13.5t13.5 32.5zM439 46q0 19 -13.5 32.5t-32.5 13.5q-20 0 -33 -13.5t-13 -32.5t13 -32.5t33 -13.5q19 0 32.5 13.5
t13.5 32.5zM142 244q0 19 -13.5 32.5t-32.5 13.5t-32.5 -13.5t-13.5 -32.5t13.5 -32.5t32.5 -13.5t32.5 13.5t13.5 32.5zM340 46q0 19 -13.5 32.5t-32.5 13.5t-32.5 -13.5t-13.5 -32.5t13.5 -32.5t32.5 -13.5t32.5 13.5t13.5 32.5zM142 145q0 19 -13.5 32.5t-32.5 13.5
t-32.5 -13.5t-13.5 -32.5t13.5 -32.5t32.5 -13.5t32.5 13.5t13.5 32.5zM241 46q0 19 -13.5 32.5t-32.5 13.5t-32.5 -13.5t-13.5 -32.5t13.5 -32.5t32.5 -13.5t32.5 13.5t13.5 32.5z" />
    <glyph glyph-name="P" unicode="P" 
d="M439 640q0 19 -13.5 32.5t-32.5 13.5q-20 0 -33 -13.5t-13 -32.5t13 -32.5t33 -13.5q19 0 32.5 13.5t13.5 32.5zM538 541q0 19 -13.5 32.5t-32.5 13.5q-20 0 -33 -13.5t-13 -32.5t13 -32.5t33 -13.5q19 0 32.5 13.5t13.5 32.5zM340 640q0 19 -13.5 32.5t-32.5 13.5
t-32.5 -13.5t-13.5 -32.5t13.5 -32.5t32.5 -13.5t32.5 13.5t13.5 32.5zM538 442q0 19 -13.5 32.5t-32.5 13.5q-20 0 -33 -13.5t-13 -32.5t13 -32.5t33 -13.5q19 0 32.5 13.5t13.5 32.5zM241 640q0 19 -13.5 32.5t-32.5 13.5t-32.5 -13.5t-13.5 -32.5t13.5 -32.5t32.5 -13.5
t32.5 13.5t13.5 32.5zM142 640q0 19 -13.5 32.5t-32.5 13.5t-32.5 -13.5t-13.5 -32.5t13.5 -32.5t32.5 -13.5t32.5 13.5t13.5 32.5zM439 343q0 19 -13.5 32.5t-32.5 13.5q-20 0 -33 -13.5t-13 -32.5t13 -32.5t33 -13.5q19 0 32.5 13.5t13.5 32.5zM142 541q0 19 -13.5 32.5
t-32.5 13.5t-32.5 -13.5t-13.5 -32.5t13.5 -32.5t32.5 -13.5t32.5 13.5t13.5 32.5zM340 343q0 19 -13.5 32.5t-32.5 13.5t-32.5 -13.5t-13.5 -32.5t13.5 -32.5t32.5 -13.5t32.5 13.5t13.5 32.5zM142 442q0 19 -13.5 32.5t-32.5 13.5t-32.5 -13.5t-13.5 -32.5t13.5 -32.5
t32.5 -13.5t32.5 13.5t13.5 32.5zM241 343q0 19 -13.5 32.5t-32.5 13.5t-32.5 -13.5t-13.5 -32.5t13.5 -32.5t32.5 -13.5t32.5 13.5t13.5 32.5zM142 343q0 19 -13.5 32.5t-32.5 13.5t-32.5 -13.5t-13.5 -32.5t13.5 -32.5t32.5 -13.5t32.5 13.5t13.5 32.5zM142 244
q0 19 -13.5 32.5t-32.5 13.5t-32.5 -13.5t-13.5 -32.5t13.5 -32.5t32.5 -13.5t32.5 13.5t13.5 32.5zM142 145q0 19 -13.5 32.5t-32.5 13.5t-32.5 -13.5t-13.5 -32.5t13.5 -32.5t32.5 -13.5t32.5 13.5t13.5 32.5zM142 46q0 19 -13.5 32.5t-32.5 13.5t-32.5 -13.5t-13.5 -32.5
t13.5 -32.5t32.5 -13.5t32.5 13.5t13.5 32.5z" />
    <glyph glyph-name="Q" unicode="Q" 
d="M439 640q0 19 -13.5 32.5t-32.5 13.5q-20 0 -33 -13.5t-13 -32.5t13 -32.5t33 -13.5q19 0 32.5 13.5t13.5 32.5zM538 541q0 19 -13.5 32.5t-32.5 13.5q-20 0 -33 -13.5t-13 -32.5t13 -32.5t33 -13.5q19 0 32.5 13.5t13.5 32.5zM340 640q0 19 -13.5 32.5t-32.5 13.5
t-32.5 -13.5t-13.5 -32.5t13.5 -32.5t32.5 -13.5t32.5 13.5t13.5 32.5zM538 442q0 19 -13.5 32.5t-32.5 13.5q-20 0 -33 -13.5t-13 -32.5t13 -32.5t33 -13.5q19 0 32.5 13.5t13.5 32.5zM241 640q0 19 -13.5 32.5t-32.5 13.5t-32.5 -13.5t-13.5 -32.5t13.5 -32.5t32.5 -13.5
t32.5 13.5t13.5 32.5zM538 343q0 19 -13.5 32.5t-32.5 13.5q-20 0 -33 -13.5t-13 -32.5t13 -32.5t33 -13.5q19 0 32.5 13.5t13.5 32.5zM538 244q0 19 -13.5 32.5t-32.5 13.5q-20 0 -33 -13.5t-13 -32.5t13 -32.5t33 -13.5q19 0 32.5 13.5t13.5 32.5zM142 541
q0 19 -13.5 32.5t-32.5 13.5t-32.5 -13.5t-13.5 -32.5t13.5 -32.5t32.5 -13.5t32.5 13.5t13.5 32.5zM538 145q0 19 -13.5 32.5t-32.5 13.5q-20 0 -33 -13.5t-13 -32.5t13 -32.5t33 -13.5q19 0 32.5 13.5t13.5 32.5zM142 442q0 19 -13.5 32.5t-32.5 13.5t-32.5 -13.5
t-13.5 -32.5t13.5 -32.5t32.5 -13.5t32.5 13.5t13.5 32.5zM142 343q0 19 -13.5 32.5t-32.5 13.5t-32.5 -13.5t-13.5 -32.5t13.5 -32.5t32.5 -13.5t32.5 13.5t13.5 32.5zM340 145q0 19 -13.5 32.5t-32.5 13.5t-32.5 -13.5t-13.5 -32.5t13.5 -32.5t32.5 -13.5t32.5 13.5
t13.5 32.5zM439 46q0 19 -13.5 32.5t-32.5 13.5q-20 0 -33 -13.5t-13 -32.5t13 -32.5t33 -13.5q19 0 32.5 13.5t13.5 32.5zM538 -53q0 20 -13.5 33t-32.5 13q-20 0 -33 -13t-13 -33q0 -19 13 -32.5t33 -13.5q19 0 32.5 13.5t13.5 32.5zM142 244q0 19 -13.5 32.5t-32.5 13.5
t-32.5 -13.5t-13.5 -32.5t13.5 -32.5t32.5 -13.5t32.5 13.5t13.5 32.5zM340 46q0 19 -13.5 32.5t-32.5 13.5t-32.5 -13.5t-13.5 -32.5t13.5 -32.5t32.5 -13.5t32.5 13.5t13.5 32.5zM142 145q0 19 -13.5 32.5t-32.5 13.5t-32.5 -13.5t-13.5 -32.5t13.5 -32.5t32.5 -13.5
t32.5 13.5t13.5 32.5zM241 46q0 19 -13.5 32.5t-32.5 13.5t-32.5 -13.5t-13.5 -32.5t13.5 -32.5t32.5 -13.5t32.5 13.5t13.5 32.5z" />
    <glyph glyph-name="R" unicode="R" 
d="M439 640q0 19 -13.5 32.5t-32.5 13.5q-20 0 -33 -13.5t-13 -32.5t13 -32.5t33 -13.5q19 0 32.5 13.5t13.5 32.5zM538 541q0 19 -13.5 32.5t-32.5 13.5q-20 0 -33 -13.5t-13 -32.5t13 -32.5t33 -13.5q19 0 32.5 13.5t13.5 32.5zM340 640q0 19 -13.5 32.5t-32.5 13.5
t-32.5 -13.5t-13.5 -32.5t13.5 -32.5t32.5 -13.5t32.5 13.5t13.5 32.5zM538 442q0 19 -13.5 32.5t-32.5 13.5q-20 0 -33 -13.5t-13 -32.5t13 -32.5t33 -13.5q19 0 32.5 13.5t13.5 32.5zM241 640q0 19 -13.5 32.5t-32.5 13.5t-32.5 -13.5t-13.5 -32.5t13.5 -32.5t32.5 -13.5
t32.5 13.5t13.5 32.5zM142 640q0 19 -13.5 32.5t-32.5 13.5t-32.5 -13.5t-13.5 -32.5t13.5 -32.5t32.5 -13.5t32.5 13.5t13.5 32.5zM439 343q0 19 -13.5 32.5t-32.5 13.5q-20 0 -33 -13.5t-13 -32.5t13 -32.5t33 -13.5q19 0 32.5 13.5t13.5 32.5zM142 541q0 19 -13.5 32.5
t-32.5 13.5t-32.5 -13.5t-13.5 -32.5t13.5 -32.5t32.5 -13.5t32.5 13.5t13.5 32.5zM340 343q0 19 -13.5 32.5t-32.5 13.5t-32.5 -13.5t-13.5 -32.5t13.5 -32.5t32.5 -13.5t32.5 13.5t13.5 32.5zM142 442q0 19 -13.5 32.5t-32.5 13.5t-32.5 -13.5t-13.5 -32.5t13.5 -32.5
t32.5 -13.5t32.5 13.5t13.5 32.5zM241 343q0 19 -13.5 32.5t-32.5 13.5t-32.5 -13.5t-13.5 -32.5t13.5 -32.5t32.5 -13.5t32.5 13.5t13.5 32.5zM340 244q0 19 -13.5 32.5t-32.5 13.5t-32.5 -13.5t-13.5 -32.5t13.5 -32.5t32.5 -13.5t32.5 13.5t13.5 32.5zM439 145
q0 19 -13.5 32.5t-32.5 13.5q-20 0 -33 -13.5t-13 -32.5t13 -32.5t33 -13.5q19 0 32.5 13.5t13.5 32.5zM538 46q0 19 -13.5 32.5t-32.5 13.5q-20 0 -33 -13.5t-13 -32.5t13 -32.5t33 -13.5q19 0 32.5 13.5t13.5 32.5zM142 343q0 19 -13.5 32.5t-32.5 13.5t-32.5 -13.5
t-13.5 -32.5t13.5 -32.5t32.5 -13.5t32.5 13.5t13.5 32.5zM142 244q0 19 -13.5 32.5t-32.5 13.5t-32.5 -13.5t-13.5 -32.5t13.5 -32.5t32.5 -13.5t32.5 13.5t13.5 32.5zM142 145q0 19 -13.5 32.5t-32.5 13.5t-32.5 -13.5t-13.5 -32.5t13.5 -32.5t32.5 -13.5t32.5 13.5
t13.5 32.5zM142 46q0 19 -13.5 32.5t-32.5 13.5t-32.5 -13.5t-13.5 -32.5t13.5 -32.5t32.5 -13.5t32.5 13.5t13.5 32.5z" />
    <glyph glyph-name="S" unicode="S" 
d="M439 640q0 19 -13.5 32.5t-32.5 13.5q-20 0 -33 -13.5t-13 -32.5t13 -32.5t33 -13.5q19 0 32.5 13.5t13.5 32.5zM538 541q0 19 -13.5 32.5t-32.5 13.5q-20 0 -33 -13.5t-13 -32.5t13 -32.5t33 -13.5q19 0 32.5 13.5t13.5 32.5zM340 640q0 19 -13.5 32.5t-32.5 13.5
t-32.5 -13.5t-13.5 -32.5t13.5 -32.5t32.5 -13.5t32.5 13.5t13.5 32.5zM241 640q0 19 -13.5 32.5t-32.5 13.5t-32.5 -13.5t-13.5 -32.5t13.5 -32.5t32.5 -13.5t32.5 13.5t13.5 32.5zM439 343q0 19 -13.5 32.5t-32.5 13.5q-20 0 -33 -13.5t-13 -32.5t13 -32.5t33 -13.5
q19 0 32.5 13.5t13.5 32.5zM538 244q0 19 -13.5 32.5t-32.5 13.5q-20 0 -33 -13.5t-13 -32.5t13 -32.5t33 -13.5q19 0 32.5 13.5t13.5 32.5zM142 541q0 19 -13.5 32.5t-32.5 13.5t-32.5 -13.5t-13.5 -32.5t13.5 -32.5t32.5 -13.5t32.5 13.5t13.5 32.5zM340 343
q0 19 -13.5 32.5t-32.5 13.5t-32.5 -13.5t-13.5 -32.5t13.5 -32.5t32.5 -13.5t32.5 13.5t13.5 32.5zM538 145q0 19 -13.5 32.5t-32.5 13.5q-20 0 -33 -13.5t-13 -32.5t13 -32.5t33 -13.5q19 0 32.5 13.5t13.5 32.5zM142 442q0 19 -13.5 32.5t-32.5 13.5t-32.5 -13.5
t-13.5 -32.5t13.5 -32.5t32.5 -13.5t32.5 13.5t13.5 32.5zM241 343q0 19 -13.5 32.5t-32.5 13.5t-32.5 -13.5t-13.5 -32.5t13.5 -32.5t32.5 -13.5t32.5 13.5t13.5 32.5zM439 46q0 19 -13.5 32.5t-32.5 13.5q-20 0 -33 -13.5t-13 -32.5t13 -32.5t33 -13.5q19 0 32.5 13.5
t13.5 32.5zM340 46q0 19 -13.5 32.5t-32.5 13.5t-32.5 -13.5t-13.5 -32.5t13.5 -32.5t32.5 -13.5t32.5 13.5t13.5 32.5zM142 145q0 19 -13.5 32.5t-32.5 13.5t-32.5 -13.5t-13.5 -32.5t13.5 -32.5t32.5 -13.5t32.5 13.5t13.5 32.5zM241 46q0 19 -13.5 32.5t-32.5 13.5
t-32.5 -13.5t-13.5 -32.5t13.5 -32.5t32.5 -13.5t32.5 13.5t13.5 32.5z" />
    <glyph glyph-name="T" unicode="T" 
d="M538 640q0 19 -13.5 32.5t-32.5 13.5q-20 0 -33 -13.5t-13 -32.5t13 -32.5t33 -13.5q19 0 32.5 13.5t13.5 32.5zM439 640q0 19 -13.5 32.5t-32.5 13.5q-20 0 -33 -13.5t-13 -32.5t13 -32.5t33 -13.5q19 0 32.5 13.5t13.5 32.5zM340 640q0 19 -13.5 32.5t-32.5 13.5
t-32.5 -13.5t-13.5 -32.5t13.5 -32.5t32.5 -13.5t32.5 13.5t13.5 32.5zM241 640q0 19 -13.5 32.5t-32.5 13.5t-32.5 -13.5t-13.5 -32.5t13.5 -32.5t32.5 -13.5t32.5 13.5t13.5 32.5zM340 541q0 19 -13.5 32.5t-32.5 13.5t-32.5 -13.5t-13.5 -32.5t13.5 -32.5t32.5 -13.5
t32.5 13.5t13.5 32.5zM142 640q0 19 -13.5 32.5t-32.5 13.5t-32.5 -13.5t-13.5 -32.5t13.5 -32.5t32.5 -13.5t32.5 13.5t13.5 32.5zM340 442q0 19 -13.5 32.5t-32.5 13.5t-32.5 -13.5t-13.5 -32.5t13.5 -32.5t32.5 -13.5t32.5 13.5t13.5 32.5zM340 343q0 19 -13.5 32.5
t-32.5 13.5t-32.5 -13.5t-13.5 -32.5t13.5 -32.5t32.5 -13.5t32.5 13.5t13.5 32.5zM340 244q0 19 -13.5 32.5t-32.5 13.5t-32.5 -13.5t-13.5 -32.5t13.5 -32.5t32.5 -13.5t32.5 13.5t13.5 32.5zM340 145q0 19 -13.5 32.5t-32.5 13.5t-32.5 -13.5t-13.5 -32.5t13.5 -32.5
t32.5 -13.5t32.5 13.5t13.5 32.5zM340 46q0 19 -13.5 32.5t-32.5 13.5t-32.5 -13.5t-13.5 -32.5t13.5 -32.5t32.5 -13.5t32.5 13.5t13.5 32.5z" />
    <glyph glyph-name="U" unicode="U" 
d="M538 640q0 19 -13.5 32.5t-32.5 13.5q-20 0 -33 -13.5t-13 -32.5t13 -32.5t33 -13.5q19 0 32.5 13.5t13.5 32.5zM538 541q0 19 -13.5 32.5t-32.5 13.5q-20 0 -33 -13.5t-13 -32.5t13 -32.5t33 -13.5q19 0 32.5 13.5t13.5 32.5zM538 442q0 19 -13.5 32.5t-32.5 13.5
q-20 0 -33 -13.5t-13 -32.5t13 -32.5t33 -13.5q19 0 32.5 13.5t13.5 32.5zM538 343q0 19 -13.5 32.5t-32.5 13.5q-20 0 -33 -13.5t-13 -32.5t13 -32.5t33 -13.5q19 0 32.5 13.5t13.5 32.5zM142 640q0 19 -13.5 32.5t-32.5 13.5t-32.5 -13.5t-13.5 -32.5t13.5 -32.5
t32.5 -13.5t32.5 13.5t13.5 32.5zM538 244q0 19 -13.5 32.5t-32.5 13.5q-20 0 -33 -13.5t-13 -32.5t13 -32.5t33 -13.5q19 0 32.5 13.5t13.5 32.5zM142 541q0 19 -13.5 32.5t-32.5 13.5t-32.5 -13.5t-13.5 -32.5t13.5 -32.5t32.5 -13.5t32.5 13.5t13.5 32.5zM538 145
q0 19 -13.5 32.5t-32.5 13.5q-20 0 -33 -13.5t-13 -32.5t13 -32.5t33 -13.5q19 0 32.5 13.5t13.5 32.5zM142 442q0 19 -13.5 32.5t-32.5 13.5t-32.5 -13.5t-13.5 -32.5t13.5 -32.5t32.5 -13.5t32.5 13.5t13.5 32.5zM142 343q0 19 -13.5 32.5t-32.5 13.5t-32.5 -13.5
t-13.5 -32.5t13.5 -32.5t32.5 -13.5t32.5 13.5t13.5 32.5zM439 46q0 19 -13.5 32.5t-32.5 13.5q-20 0 -33 -13.5t-13 -32.5t13 -32.5t33 -13.5q19 0 32.5 13.5t13.5 32.5zM142 244q0 19 -13.5 32.5t-32.5 13.5t-32.5 -13.5t-13.5 -32.5t13.5 -32.5t32.5 -13.5t32.5 13.5
t13.5 32.5zM340 46q0 19 -13.5 32.5t-32.5 13.5t-32.5 -13.5t-13.5 -32.5t13.5 -32.5t32.5 -13.5t32.5 13.5t13.5 32.5zM142 145q0 19 -13.5 32.5t-32.5 13.5t-32.5 -13.5t-13.5 -32.5t13.5 -32.5t32.5 -13.5t32.5 13.5t13.5 32.5zM241 46q0 19 -13.5 32.5t-32.5 13.5
t-32.5 -13.5t-13.5 -32.5t13.5 -32.5t32.5 -13.5t32.5 13.5t13.5 32.5z" />
    <glyph glyph-name="V" unicode="V" 
d="M538 640q0 19 -13.5 32.5t-32.5 13.5q-20 0 -33 -13.5t-13 -32.5t13 -32.5t33 -13.5q19 0 32.5 13.5t13.5 32.5zM538 541q0 19 -13.5 32.5t-32.5 13.5q-20 0 -33 -13.5t-13 -32.5t13 -32.5t33 -13.5q19 0 32.5 13.5t13.5 32.5zM538 442q0 19 -13.5 32.5t-32.5 13.5
q-20 0 -33 -13.5t-13 -32.5t13 -32.5t33 -13.5q19 0 32.5 13.5t13.5 32.5zM538 343q0 19 -13.5 32.5t-32.5 13.5q-20 0 -33 -13.5t-13 -32.5t13 -32.5t33 -13.5q19 0 32.5 13.5t13.5 32.5zM142 640q0 19 -13.5 32.5t-32.5 13.5t-32.5 -13.5t-13.5 -32.5t13.5 -32.5
t32.5 -13.5t32.5 13.5t13.5 32.5zM538 244q0 19 -13.5 32.5t-32.5 13.5q-20 0 -33 -13.5t-13 -32.5t13 -32.5t33 -13.5q19 0 32.5 13.5t13.5 32.5zM142 541q0 19 -13.5 32.5t-32.5 13.5t-32.5 -13.5t-13.5 -32.5t13.5 -32.5t32.5 -13.5t32.5 13.5t13.5 32.5zM142 442
q0 19 -13.5 32.5t-32.5 13.5t-32.5 -13.5t-13.5 -32.5t13.5 -32.5t32.5 -13.5t32.5 13.5t13.5 32.5zM439 145q0 19 -13.5 32.5t-32.5 13.5q-20 0 -33 -13.5t-13 -32.5t13 -32.5t33 -13.5q19 0 32.5 13.5t13.5 32.5zM142 343q0 19 -13.5 32.5t-32.5 13.5t-32.5 -13.5
t-13.5 -32.5t13.5 -32.5t32.5 -13.5t32.5 13.5t13.5 32.5zM142 244q0 19 -13.5 32.5t-32.5 13.5t-32.5 -13.5t-13.5 -32.5t13.5 -32.5t32.5 -13.5t32.5 13.5t13.5 32.5zM241 145q0 19 -13.5 32.5t-32.5 13.5t-32.5 -13.5t-13.5 -32.5t13.5 -32.5t32.5 -13.5t32.5 13.5
t13.5 32.5zM340 46q0 19 -13.5 32.5t-32.5 13.5t-32.5 -13.5t-13.5 -32.5t13.5 -32.5t32.5 -13.5t32.5 13.5t13.5 32.5z" />
    <glyph glyph-name="W" unicode="W" 
d="M538 640q0 19 -13.5 32.5t-32.5 13.5q-20 0 -33 -13.5t-13 -32.5t13 -32.5t33 -13.5q19 0 32.5 13.5t13.5 32.5zM538 541q0 19 -13.5 32.5t-32.5 13.5q-20 0 -33 -13.5t-13 -32.5t13 -32.5t33 -13.5q19 0 32.5 13.5t13.5 32.5zM538 442q0 19 -13.5 32.5t-32.5 13.5
q-20 0 -33 -13.5t-13 -32.5t13 -32.5t33 -13.5q19 0 32.5 13.5t13.5 32.5zM538 343q0 19 -13.5 32.5t-32.5 13.5q-20 0 -33 -13.5t-13 -32.5t13 -32.5t33 -13.5q19 0 32.5 13.5t13.5 32.5zM142 640q0 19 -13.5 32.5t-32.5 13.5t-32.5 -13.5t-13.5 -32.5t13.5 -32.5
t32.5 -13.5t32.5 13.5t13.5 32.5zM538 244q0 19 -13.5 32.5t-32.5 13.5q-20 0 -33 -13.5t-13 -32.5t13 -32.5t33 -13.5q19 0 32.5 13.5t13.5 32.5zM142 541q0 19 -13.5 32.5t-32.5 13.5t-32.5 -13.5t-13.5 -32.5t13.5 -32.5t32.5 -13.5t32.5 13.5t13.5 32.5zM340 343
q0 19 -13.5 32.5t-32.5 13.5t-32.5 -13.5t-13.5 -32.5t13.5 -32.5t32.5 -13.5t32.5 13.5t13.5 32.5zM538 145q0 19 -13.5 32.5t-32.5 13.5q-20 0 -33 -13.5t-13 -32.5t13 -32.5t33 -13.5q19 0 32.5 13.5t13.5 32.5zM142 442q0 19 -13.5 32.5t-32.5 13.5t-32.5 -13.5
t-13.5 -32.5t13.5 -32.5t32.5 -13.5t32.5 13.5t13.5 32.5zM340 244q0 19 -13.5 32.5t-32.5 13.5t-32.5 -13.5t-13.5 -32.5t13.5 -32.5t32.5 -13.5t32.5 13.5t13.5 32.5zM142 343q0 19 -13.5 32.5t-32.5 13.5t-32.5 -13.5t-13.5 -32.5t13.5 -32.5t32.5 -13.5t32.5 13.5
t13.5 32.5zM340 145q0 19 -13.5 32.5t-32.5 13.5t-32.5 -13.5t-13.5 -32.5t13.5 -32.5t32.5 -13.5t32.5 13.5t13.5 32.5zM439 46q0 19 -13.5 32.5t-32.5 13.5q-20 0 -33 -13.5t-13 -32.5t13 -32.5t33 -13.5q19 0 32.5 13.5t13.5 32.5zM142 244q0 19 -13.5 32.5t-32.5 13.5
t-32.5 -13.5t-13.5 -32.5t13.5 -32.5t32.5 -13.5t32.5 13.5t13.5 32.5zM142 145q0 19 -13.5 32.5t-32.5 13.5t-32.5 -13.5t-13.5 -32.5t13.5 -32.5t32.5 -13.5t32.5 13.5t13.5 32.5zM241 46q0 19 -13.5 32.5t-32.5 13.5t-32.5 -13.5t-13.5 -32.5t13.5 -32.5t32.5 -13.5
t32.5 13.5t13.5 32.5z" />
    <glyph glyph-name="X" unicode="X" 
d="M538 640q0 19 -13.5 32.5t-32.5 13.5q-20 0 -33 -13.5t-13 -32.5t13 -32.5t33 -13.5q19 0 32.5 13.5t13.5 32.5zM538 541q0 19 -13.5 32.5t-32.5 13.5q-20 0 -33 -13.5t-13 -32.5t13 -32.5t33 -13.5q19 0 32.5 13.5t13.5 32.5zM439 442q0 19 -13.5 32.5t-32.5 13.5
q-20 0 -33 -13.5t-13 -32.5t13 -32.5t33 -13.5q19 0 32.5 13.5t13.5 32.5zM142 640q0 19 -13.5 32.5t-32.5 13.5t-32.5 -13.5t-13.5 -32.5t13.5 -32.5t32.5 -13.5t32.5 13.5t13.5 32.5zM142 541q0 19 -13.5 32.5t-32.5 13.5t-32.5 -13.5t-13.5 -32.5t13.5 -32.5t32.5 -13.5
t32.5 13.5t13.5 32.5zM241 442q0 19 -13.5 32.5t-32.5 13.5t-32.5 -13.5t-13.5 -32.5t13.5 -32.5t32.5 -13.5t32.5 13.5t13.5 32.5zM340 343q0 19 -13.5 32.5t-32.5 13.5t-32.5 -13.5t-13.5 -32.5t13.5 -32.5t32.5 -13.5t32.5 13.5t13.5 32.5zM439 244q0 19 -13.5 32.5
t-32.5 13.5q-20 0 -33 -13.5t-13 -32.5t13 -32.5t33 -13.5q19 0 32.5 13.5t13.5 32.5zM538 145q0 19 -13.5 32.5t-32.5 13.5q-20 0 -33 -13.5t-13 -32.5t13 -32.5t33 -13.5q19 0 32.5 13.5t13.5 32.5zM538 46q0 19 -13.5 32.5t-32.5 13.5q-20 0 -33 -13.5t-13 -32.5
t13 -32.5t33 -13.5q19 0 32.5 13.5t13.5 32.5zM241 244q0 19 -13.5 32.5t-32.5 13.5t-32.5 -13.5t-13.5 -32.5t13.5 -32.5t32.5 -13.5t32.5 13.5t13.5 32.5zM142 145q0 19 -13.5 32.5t-32.5 13.5t-32.5 -13.5t-13.5 -32.5t13.5 -32.5t32.5 -13.5t32.5 13.5t13.5 32.5z
M142 46q0 19 -13.5 32.5t-32.5 13.5t-32.5 -13.5t-13.5 -32.5t13.5 -32.5t32.5 -13.5t32.5 13.5t13.5 32.5z" />
    <glyph glyph-name="Y" unicode="Y" 
d="M538 640q0 19 -13.5 32.5t-32.5 13.5q-20 0 -33 -13.5t-13 -32.5t13 -32.5t33 -13.5q19 0 32.5 13.5t13.5 32.5zM538 541q0 19 -13.5 32.5t-32.5 13.5q-20 0 -33 -13.5t-13 -32.5t13 -32.5t33 -13.5q19 0 32.5 13.5t13.5 32.5zM538 442q0 19 -13.5 32.5t-32.5 13.5
q-20 0 -33 -13.5t-13 -32.5t13 -32.5t33 -13.5q19 0 32.5 13.5t13.5 32.5zM142 640q0 19 -13.5 32.5t-32.5 13.5t-32.5 -13.5t-13.5 -32.5t13.5 -32.5t32.5 -13.5t32.5 13.5t13.5 32.5zM439 343q0 19 -13.5 32.5t-32.5 13.5q-20 0 -33 -13.5t-13 -32.5t13 -32.5t33 -13.5
q19 0 32.5 13.5t13.5 32.5zM142 541q0 19 -13.5 32.5t-32.5 13.5t-32.5 -13.5t-13.5 -32.5t13.5 -32.5t32.5 -13.5t32.5 13.5t13.5 32.5zM142 442q0 19 -13.5 32.5t-32.5 13.5t-32.5 -13.5t-13.5 -32.5t13.5 -32.5t32.5 -13.5t32.5 13.5t13.5 32.5zM241 343q0 19 -13.5 32.5
t-32.5 13.5t-32.5 -13.5t-13.5 -32.5t13.5 -32.5t32.5 -13.5t32.5 13.5t13.5 32.5zM340 244q0 19 -13.5 32.5t-32.5 13.5t-32.5 -13.5t-13.5 -32.5t13.5 -32.5t32.5 -13.5t32.5 13.5t13.5 32.5zM340 145q0 19 -13.5 32.5t-32.5 13.5t-32.5 -13.5t-13.5 -32.5t13.5 -32.5
t32.5 -13.5t32.5 13.5t13.5 32.5zM340 46q0 19 -13.5 32.5t-32.5 13.5t-32.5 -13.5t-13.5 -32.5t13.5 -32.5t32.5 -13.5t32.5 13.5t13.5 32.5z" />
    <glyph glyph-name="Z" unicode="Z" 
d="M538 640q0 19 -13.5 32.5t-32.5 13.5q-20 0 -33 -13.5t-13 -32.5t13 -32.5t33 -13.5q19 0 32.5 13.5t13.5 32.5zM439 640q0 19 -13.5 32.5t-32.5 13.5q-20 0 -33 -13.5t-13 -32.5t13 -32.5t33 -13.5q19 0 32.5 13.5t13.5 32.5zM538 541q0 19 -13.5 32.5t-32.5 13.5
q-20 0 -33 -13.5t-13 -32.5t13 -32.5t33 -13.5q19 0 32.5 13.5t13.5 32.5zM340 640q0 19 -13.5 32.5t-32.5 13.5t-32.5 -13.5t-13.5 -32.5t13.5 -32.5t32.5 -13.5t32.5 13.5t13.5 32.5zM241 640q0 19 -13.5 32.5t-32.5 13.5t-32.5 -13.5t-13.5 -32.5t13.5 -32.5t32.5 -13.5
t32.5 13.5t13.5 32.5zM439 442q0 19 -13.5 32.5t-32.5 13.5q-20 0 -33 -13.5t-13 -32.5t13 -32.5t33 -13.5q19 0 32.5 13.5t13.5 32.5zM142 640q0 19 -13.5 32.5t-32.5 13.5t-32.5 -13.5t-13.5 -32.5t13.5 -32.5t32.5 -13.5t32.5 13.5t13.5 32.5zM340 343q0 19 -13.5 32.5
t-32.5 13.5t-32.5 -13.5t-13.5 -32.5t13.5 -32.5t32.5 -13.5t32.5 13.5t13.5 32.5zM538 46q0 19 -13.5 32.5t-32.5 13.5q-20 0 -33 -13.5t-13 -32.5t13 -32.5t33 -13.5q19 0 32.5 13.5t13.5 32.5zM241 244q0 19 -13.5 32.5t-32.5 13.5t-32.5 -13.5t-13.5 -32.5t13.5 -32.5
t32.5 -13.5t32.5 13.5t13.5 32.5zM439 46q0 19 -13.5 32.5t-32.5 13.5q-20 0 -33 -13.5t-13 -32.5t13 -32.5t33 -13.5q19 0 32.5 13.5t13.5 32.5zM340 46q0 19 -13.5 32.5t-32.5 13.5t-32.5 -13.5t-13.5 -32.5t13.5 -32.5t32.5 -13.5t32.5 13.5t13.5 32.5zM142 145
q0 19 -13.5 32.5t-32.5 13.5t-32.5 -13.5t-13.5 -32.5t13.5 -32.5t32.5 -13.5t32.5 13.5t13.5 32.5zM241 46q0 19 -13.5 32.5t-32.5 13.5t-32.5 -13.5t-13.5 -32.5t13.5 -32.5t32.5 -13.5t32.5 13.5t13.5 32.5zM142 46q0 19 -13.5 32.5t-32.5 13.5t-32.5 -13.5t-13.5 -32.5
t13.5 -32.5t32.5 -13.5t32.5 13.5t13.5 32.5z" />
    <glyph glyph-name="bracketleft" unicode="[" horiz-adv-x="291" 
d="M241 640q0 19 -13.5 32.5t-32.5 13.5q-20 0 -33 -13.5t-13 -32.5t13 -32.5t33 -13.5q19 0 32.5 13.5t13.5 32.5zM142 640q0 19 -13.5 32.5t-32.5 13.5t-32.5 -13.5t-13.5 -32.5t13.5 -32.5t32.5 -13.5t32.5 13.5t13.5 32.5zM142 541q0 19 -13.5 32.5t-32.5 13.5
t-32.5 -13.5t-13.5 -32.5t13.5 -32.5t32.5 -13.5t32.5 13.5t13.5 32.5zM142 442q0 19 -13.5 32.5t-32.5 13.5t-32.5 -13.5t-13.5 -32.5t13.5 -32.5t32.5 -13.5t32.5 13.5t13.5 32.5zM142 343q0 19 -13.5 32.5t-32.5 13.5t-32.5 -13.5t-13.5 -32.5t13.5 -32.5t32.5 -13.5
t32.5 13.5t13.5 32.5zM142 244q0 19 -13.5 32.5t-32.5 13.5t-32.5 -13.5t-13.5 -32.5t13.5 -32.5t32.5 -13.5t32.5 13.5t13.5 32.5zM142 145q0 19 -13.5 32.5t-32.5 13.5t-32.5 -13.5t-13.5 -32.5t13.5 -32.5t32.5 -13.5t32.5 13.5t13.5 32.5zM241 46q0 19 -13.5 32.5
t-32.5 13.5q-20 0 -33 -13.5t-13 -32.5t13 -32.5t33 -13.5q19 0 32.5 13.5t13.5 32.5zM142 46q0 19 -13.5 32.5t-32.5 13.5t-32.5 -13.5t-13.5 -32.5t13.5 -32.5t32.5 -13.5t32.5 13.5t13.5 32.5z" />
    <glyph glyph-name="backslash" unicode="\" horiz-adv-x="390" 
d="M142 640q0 19 -13.5 32.5t-32.5 13.5t-32.5 -13.5t-13.5 -32.5t13.5 -32.5t32.5 -13.5t32.5 13.5t13.5 32.5zM142 541q0 19 -13.5 32.5t-32.5 13.5t-32.5 -13.5t-13.5 -32.5t13.5 -32.5t32.5 -13.5t32.5 13.5t13.5 32.5zM241 442q0 19 -13.5 32.5t-32.5 13.5t-32.5 -13.5
t-13.5 -32.5t13.5 -32.5t32.5 -13.5t32.5 13.5t13.5 32.5zM241 343q0 19 -13.5 32.5t-32.5 13.5t-32.5 -13.5t-13.5 -32.5t13.5 -32.5t32.5 -13.5t32.5 13.5t13.5 32.5zM241 244q0 19 -13.5 32.5t-32.5 13.5t-32.5 -13.5t-13.5 -32.5t13.5 -32.5t32.5 -13.5t32.5 13.5
t13.5 32.5zM340 145q0 19 -13.5 32.5t-32.5 13.5q-20 0 -33 -13.5t-13 -32.5t13 -32.5t33 -13.5q19 0 32.5 13.5t13.5 32.5zM340 46q0 19 -13.5 32.5t-32.5 13.5q-20 0 -33 -13.5t-13 -32.5t13 -32.5t33 -13.5q19 0 32.5 13.5t13.5 32.5z" />
    <glyph glyph-name="bracketright" unicode="]" horiz-adv-x="291" 
d="M241 640q0 19 -13.5 32.5t-32.5 13.5t-32.5 -13.5t-13.5 -32.5t13.5 -32.5t32.5 -13.5t32.5 13.5t13.5 32.5zM142 640q0 19 -13.5 32.5t-32.5 13.5t-32.5 -13.5t-13.5 -32.5t13.5 -32.5t32.5 -13.5t32.5 13.5t13.5 32.5zM241 541q0 19 -13.5 32.5t-32.5 13.5t-32.5 -13.5
t-13.5 -32.5t13.5 -32.5t32.5 -13.5t32.5 13.5t13.5 32.5zM241 442q0 19 -13.5 32.5t-32.5 13.5t-32.5 -13.5t-13.5 -32.5t13.5 -32.5t32.5 -13.5t32.5 13.5t13.5 32.5zM241 343q0 19 -13.5 32.5t-32.5 13.5t-32.5 -13.5t-13.5 -32.5t13.5 -32.5t32.5 -13.5t32.5 13.5
t13.5 32.5zM241 244q0 19 -13.5 32.5t-32.5 13.5t-32.5 -13.5t-13.5 -32.5t13.5 -32.5t32.5 -13.5t32.5 13.5t13.5 32.5zM241 145q0 19 -13.5 32.5t-32.5 13.5t-32.5 -13.5t-13.5 -32.5t13.5 -32.5t32.5 -13.5t32.5 13.5t13.5 32.5zM241 46q0 19 -13.5 32.5t-32.5 13.5
t-32.5 -13.5t-13.5 -32.5t13.5 -32.5t32.5 -13.5t32.5 13.5t13.5 32.5zM142 46q0 19 -13.5 32.5t-32.5 13.5t-32.5 -13.5t-13.5 -32.5t13.5 -32.5t32.5 -13.5t32.5 13.5t13.5 32.5z" />
    <glyph glyph-name="asciicircum" unicode="^" 
d="M340 640q0 19 -13.5 32.5t-32.5 13.5t-32.5 -13.5t-13.5 -32.5t13.5 -32.5t32.5 -13.5t32.5 13.5t13.5 32.5zM439 541q0 19 -13.5 32.5t-32.5 13.5q-20 0 -33 -13.5t-13 -32.5t13 -32.5t33 -13.5q19 0 32.5 13.5t13.5 32.5zM241 541q0 19 -13.5 32.5t-32.5 13.5
t-32.5 -13.5t-13.5 -32.5t13.5 -32.5t32.5 -13.5t32.5 13.5t13.5 32.5z" />
    <glyph glyph-name="underscore" unicode="_" 
d="M538 -53q0 19 -13.5 32.5t-32.5 13.5q-20 0 -33 -13.5t-13 -32.5t13 -32.5t33 -13.5q19 0 32.5 13.5t13.5 32.5zM439 -53q0 19 -13.5 32.5t-32.5 13.5q-20 0 -33 -13.5t-13 -32.5t13 -32.5t33 -13.5q19 0 32.5 13.5t13.5 32.5zM340 -53q0 19 -13.5 32.5t-32.5 13.5
t-32.5 -13.5t-13.5 -32.5t13.5 -32.5t32.5 -13.5t32.5 13.5t13.5 32.5zM241 -53q0 19 -13.5 32.5t-32.5 13.5t-32.5 -13.5t-13.5 -32.5t13.5 -32.5t32.5 -13.5t32.5 13.5t13.5 32.5zM142 -53q0 19 -13.5 32.5t-32.5 13.5t-32.5 -13.5t-13.5 -32.5t13.5 -32.5t32.5 -13.5
t32.5 13.5t13.5 32.5z" />
    <glyph glyph-name="grave" unicode="`" 
d="M241 640q0 19 -13.5 32.5t-32.5 13.5t-32.5 -13.5t-13.5 -32.5t13.5 -32.5t32.5 -13.5t32.5 13.5t13.5 32.5zM340 541q0 19 -13.5 32.5t-32.5 13.5t-32.5 -13.5t-13.5 -32.5t13.5 -32.5t32.5 -13.5t32.5 13.5t13.5 32.5z" />
    <glyph glyph-name="a" unicode="a" 
d="M439 442q0 19 -13.5 32.5t-32.5 13.5q-20 0 -33 -13.5t-13 -32.5t13 -32.5t33 -13.5q19 0 32.5 13.5t13.5 32.5zM538 343q0 19 -13.5 32.5t-32.5 13.5q-20 0 -33 -13.5t-13 -32.5t13 -32.5t33 -13.5q19 0 32.5 13.5t13.5 32.5zM340 442q0 19 -13.5 32.5t-32.5 13.5
t-32.5 -13.5t-13.5 -32.5t13.5 -32.5t32.5 -13.5t32.5 13.5t13.5 32.5zM538 244q0 19 -13.5 32.5t-32.5 13.5q-20 0 -33 -13.5t-13 -32.5t13 -32.5t33 -13.5q19 0 32.5 13.5t13.5 32.5zM241 442q0 19 -13.5 32.5t-32.5 13.5t-32.5 -13.5t-13.5 -32.5t13.5 -32.5t32.5 -13.5
t32.5 13.5t13.5 32.5zM439 244q0 19 -13.5 32.5t-32.5 13.5q-20 0 -33 -13.5t-13 -32.5t13 -32.5t33 -13.5q19 0 32.5 13.5t13.5 32.5zM538 145q0 19 -13.5 32.5t-32.5 13.5q-20 0 -33 -13.5t-13 -32.5t13 -32.5t33 -13.5q19 0 32.5 13.5t13.5 32.5zM340 244
q0 19 -13.5 32.5t-32.5 13.5t-32.5 -13.5t-13.5 -32.5t13.5 -32.5t32.5 -13.5t32.5 13.5t13.5 32.5zM538 46q0 19 -13.5 32.5t-32.5 13.5q-20 0 -33 -13.5t-13 -32.5t13 -32.5t33 -13.5q19 0 32.5 13.5t13.5 32.5zM241 244q0 19 -13.5 32.5t-32.5 13.5t-32.5 -13.5
t-13.5 -32.5t13.5 -32.5t32.5 -13.5t32.5 13.5t13.5 32.5zM439 46q0 19 -13.5 32.5t-32.5 13.5q-20 0 -33 -13.5t-13 -32.5t13 -32.5t33 -13.5q19 0 32.5 13.5t13.5 32.5zM340 46q0 19 -13.5 32.5t-32.5 13.5t-32.5 -13.5t-13.5 -32.5t13.5 -32.5t32.5 -13.5t32.5 13.5
t13.5 32.5zM142 145q0 19 -13.5 32.5t-32.5 13.5t-32.5 -13.5t-13.5 -32.5t13.5 -32.5t32.5 -13.5t32.5 13.5t13.5 32.5zM241 46q0 19 -13.5 32.5t-32.5 13.5t-32.5 -13.5t-13.5 -32.5t13.5 -32.5t32.5 -13.5t32.5 13.5t13.5 32.5z" />
    <glyph glyph-name="b" unicode="b" 
d="M439 442q0 19 -13.5 32.5t-32.5 13.5q-20 0 -33 -13.5t-13 -32.5t13 -32.5t33 -13.5q19 0 32.5 13.5t13.5 32.5zM538 343q0 19 -13.5 32.5t-32.5 13.5q-20 0 -33 -13.5t-13 -32.5t13 -32.5t33 -13.5q19 0 32.5 13.5t13.5 32.5zM142 640q0 19 -13.5 32.5t-32.5 13.5
t-32.5 -13.5t-13.5 -32.5t13.5 -32.5t32.5 -13.5t32.5 13.5t13.5 32.5zM340 442q0 19 -13.5 32.5t-32.5 13.5t-32.5 -13.5t-13.5 -32.5t13.5 -32.5t32.5 -13.5t32.5 13.5t13.5 32.5zM538 244q0 19 -13.5 32.5t-32.5 13.5q-20 0 -33 -13.5t-13 -32.5t13 -32.5t33 -13.5
q19 0 32.5 13.5t13.5 32.5zM142 541q0 19 -13.5 32.5t-32.5 13.5t-32.5 -13.5t-13.5 -32.5t13.5 -32.5t32.5 -13.5t32.5 13.5t13.5 32.5zM241 442q0 19 -13.5 32.5t-32.5 13.5t-32.5 -13.5t-13.5 -32.5t13.5 -32.5t32.5 -13.5t32.5 13.5t13.5 32.5zM538 145q0 19 -13.5 32.5
t-32.5 13.5q-20 0 -33 -13.5t-13 -32.5t13 -32.5t33 -13.5q19 0 32.5 13.5t13.5 32.5zM142 442q0 19 -13.5 32.5t-32.5 13.5t-32.5 -13.5t-13.5 -32.5t13.5 -32.5t32.5 -13.5t32.5 13.5t13.5 32.5zM142 343q0 19 -13.5 32.5t-32.5 13.5t-32.5 -13.5t-13.5 -32.5t13.5 -32.5
t32.5 -13.5t32.5 13.5t13.5 32.5zM439 46q0 19 -13.5 32.5t-32.5 13.5q-20 0 -33 -13.5t-13 -32.5t13 -32.5t33 -13.5q19 0 32.5 13.5t13.5 32.5zM142 244q0 19 -13.5 32.5t-32.5 13.5t-32.5 -13.5t-13.5 -32.5t13.5 -32.5t32.5 -13.5t32.5 13.5t13.5 32.5zM340 46
q0 19 -13.5 32.5t-32.5 13.5t-32.5 -13.5t-13.5 -32.5t13.5 -32.5t32.5 -13.5t32.5 13.5t13.5 32.5zM142 145q0 19 -13.5 32.5t-32.5 13.5t-32.5 -13.5t-13.5 -32.5t13.5 -32.5t32.5 -13.5t32.5 13.5t13.5 32.5zM241 46q0 19 -13.5 32.5t-32.5 13.5t-32.5 -13.5t-13.5 -32.5
t13.5 -32.5t32.5 -13.5t32.5 13.5t13.5 32.5zM142 46q0 19 -13.5 32.5t-32.5 13.5t-32.5 -13.5t-13.5 -32.5t13.5 -32.5t32.5 -13.5t32.5 13.5t13.5 32.5z" />
    <glyph glyph-name="c" unicode="c" 
d="M439 442q0 19 -13.5 32.5t-32.5 13.5q-20 0 -33 -13.5t-13 -32.5t13 -32.5t33 -13.5q19 0 32.5 13.5t13.5 32.5zM538 343q0 19 -13.5 32.5t-32.5 13.5q-20 0 -33 -13.5t-13 -32.5t13 -32.5t33 -13.5q19 0 32.5 13.5t13.5 32.5zM340 442q0 19 -13.5 32.5t-32.5 13.5
t-32.5 -13.5t-13.5 -32.5t13.5 -32.5t32.5 -13.5t32.5 13.5t13.5 32.5zM241 442q0 19 -13.5 32.5t-32.5 13.5t-32.5 -13.5t-13.5 -32.5t13.5 -32.5t32.5 -13.5t32.5 13.5t13.5 32.5zM538 46q0 19 -13.5 32.5t-32.5 13.5q-20 0 -33 -13.5t-13 -32.5t13 -32.5t33 -13.5
q19 0 32.5 13.5t13.5 32.5zM142 343q0 19 -13.5 32.5t-32.5 13.5t-32.5 -13.5t-13.5 -32.5t13.5 -32.5t32.5 -13.5t32.5 13.5t13.5 32.5zM439 46q0 19 -13.5 32.5t-32.5 13.5q-20 0 -33 -13.5t-13 -32.5t13 -32.5t33 -13.5q19 0 32.5 13.5t13.5 32.5zM142 244
q0 19 -13.5 32.5t-32.5 13.5t-32.5 -13.5t-13.5 -32.5t13.5 -32.5t32.5 -13.5t32.5 13.5t13.5 32.5zM340 46q0 19 -13.5 32.5t-32.5 13.5t-32.5 -13.5t-13.5 -32.5t13.5 -32.5t32.5 -13.5t32.5 13.5t13.5 32.5zM142 145q0 19 -13.5 32.5t-32.5 13.5t-32.5 -13.5t-13.5 -32.5
t13.5 -32.5t32.5 -13.5t32.5 13.5t13.5 32.5zM241 46q0 19 -13.5 32.5t-32.5 13.5t-32.5 -13.5t-13.5 -32.5t13.5 -32.5t32.5 -13.5t32.5 13.5t13.5 32.5z" />
    <glyph glyph-name="d" unicode="d" 
d="M538 640q0 19 -13.5 32.5t-32.5 13.5q-20 0 -33 -13.5t-13 -32.5t13 -32.5t33 -13.5q19 0 32.5 13.5t13.5 32.5zM538 541q0 19 -13.5 32.5t-32.5 13.5q-20 0 -33 -13.5t-13 -32.5t13 -32.5t33 -13.5q19 0 32.5 13.5t13.5 32.5zM538 442q0 19 -13.5 32.5t-32.5 13.5
q-20 0 -33 -13.5t-13 -32.5t13 -32.5t33 -13.5q19 0 32.5 13.5t13.5 32.5zM439 442q0 19 -13.5 32.5t-32.5 13.5q-20 0 -33 -13.5t-13 -32.5t13 -32.5t33 -13.5q19 0 32.5 13.5t13.5 32.5zM538 343q0 19 -13.5 32.5t-32.5 13.5q-20 0 -33 -13.5t-13 -32.5t13 -32.5t33 -13.5
q19 0 32.5 13.5t13.5 32.5zM340 442q0 19 -13.5 32.5t-32.5 13.5t-32.5 -13.5t-13.5 -32.5t13.5 -32.5t32.5 -13.5t32.5 13.5t13.5 32.5zM538 244q0 19 -13.5 32.5t-32.5 13.5q-20 0 -33 -13.5t-13 -32.5t13 -32.5t33 -13.5q19 0 32.5 13.5t13.5 32.5zM241 442
q0 19 -13.5 32.5t-32.5 13.5t-32.5 -13.5t-13.5 -32.5t13.5 -32.5t32.5 -13.5t32.5 13.5t13.5 32.5zM538 145q0 19 -13.5 32.5t-32.5 13.5q-20 0 -33 -13.5t-13 -32.5t13 -32.5t33 -13.5q19 0 32.5 13.5t13.5 32.5zM538 46q0 19 -13.5 32.5t-32.5 13.5q-20 0 -33 -13.5
t-13 -32.5t13 -32.5t33 -13.5q19 0 32.5 13.5t13.5 32.5zM142 343q0 19 -13.5 32.5t-32.5 13.5t-32.5 -13.5t-13.5 -32.5t13.5 -32.5t32.5 -13.5t32.5 13.5t13.5 32.5zM439 46q0 19 -13.5 32.5t-32.5 13.5q-20 0 -33 -13.5t-13 -32.5t13 -32.5t33 -13.5q19 0 32.5 13.5
t13.5 32.5zM142 244q0 19 -13.5 32.5t-32.5 13.5t-32.5 -13.5t-13.5 -32.5t13.5 -32.5t32.5 -13.5t32.5 13.5t13.5 32.5zM340 46q0 19 -13.5 32.5t-32.5 13.5t-32.5 -13.5t-13.5 -32.5t13.5 -32.5t32.5 -13.5t32.5 13.5t13.5 32.5zM142 145q0 19 -13.5 32.5t-32.5 13.5
t-32.5 -13.5t-13.5 -32.5t13.5 -32.5t32.5 -13.5t32.5 13.5t13.5 32.5zM241 46q0 19 -13.5 32.5t-32.5 13.5t-32.5 -13.5t-13.5 -32.5t13.5 -32.5t32.5 -13.5t32.5 13.5t13.5 32.5z" />
    <glyph glyph-name="e" unicode="e" 
d="M439 442q0 19 -13.5 32.5t-32.5 13.5q-20 0 -33 -13.5t-13 -32.5t13 -32.5t33 -13.5q19 0 32.5 13.5t13.5 32.5zM538 343q0 19 -13.5 32.5t-32.5 13.5q-20 0 -33 -13.5t-13 -32.5t13 -32.5t33 -13.5q19 0 32.5 13.5t13.5 32.5zM340 442q0 19 -13.5 32.5t-32.5 13.5
t-32.5 -13.5t-13.5 -32.5t13.5 -32.5t32.5 -13.5t32.5 13.5t13.5 32.5zM538 244q0 19 -13.5 32.5t-32.5 13.5q-20 0 -33 -13.5t-13 -32.5t13 -32.5t33 -13.5q19 0 32.5 13.5t13.5 32.5zM241 442q0 19 -13.5 32.5t-32.5 13.5t-32.5 -13.5t-13.5 -32.5t13.5 -32.5t32.5 -13.5
t32.5 13.5t13.5 32.5zM439 244q0 19 -13.5 32.5t-32.5 13.5q-20 0 -33 -13.5t-13 -32.5t13 -32.5t33 -13.5q19 0 32.5 13.5t13.5 32.5zM340 244q0 19 -13.5 32.5t-32.5 13.5t-32.5 -13.5t-13.5 -32.5t13.5 -32.5t32.5 -13.5t32.5 13.5t13.5 32.5zM538 46q0 19 -13.5 32.5
t-32.5 13.5q-20 0 -33 -13.5t-13 -32.5t13 -32.5t33 -13.5q19 0 32.5 13.5t13.5 32.5zM142 343q0 19 -13.5 32.5t-32.5 13.5t-32.5 -13.5t-13.5 -32.5t13.5 -32.5t32.5 -13.5t32.5 13.5t13.5 32.5zM241 244q0 19 -13.5 32.5t-32.5 13.5t-32.5 -13.5t-13.5 -32.5t13.5 -32.5
t32.5 -13.5t32.5 13.5t13.5 32.5zM439 46q0 19 -13.5 32.5t-32.5 13.5q-20 0 -33 -13.5t-13 -32.5t13 -32.5t33 -13.5q19 0 32.5 13.5t13.5 32.5zM142 244q0 19 -13.5 32.5t-32.5 13.5t-32.5 -13.5t-13.5 -32.5t13.5 -32.5t32.5 -13.5t32.5 13.5t13.5 32.5zM340 46
q0 19 -13.5 32.5t-32.5 13.5t-32.5 -13.5t-13.5 -32.5t13.5 -32.5t32.5 -13.5t32.5 13.5t13.5 32.5zM142 145q0 19 -13.5 32.5t-32.5 13.5t-32.5 -13.5t-13.5 -32.5t13.5 -32.5t32.5 -13.5t32.5 13.5t13.5 32.5zM241 46q0 19 -13.5 32.5t-32.5 13.5t-32.5 -13.5t-13.5 -32.5
t13.5 -32.5t32.5 -13.5t32.5 13.5t13.5 32.5z" />
    <glyph glyph-name="f" unicode="f" horiz-adv-x="489" 
d="M439 640q0 19 -13.5 32.5t-32.5 13.5q-20 0 -33 -13.5t-13 -32.5t13 -32.5t33 -13.5q19 0 32.5 13.5t13.5 32.5zM340 640q0 19 -13.5 32.5t-32.5 13.5q-20 0 -33 -13.5t-13 -32.5t13 -32.5t33 -13.5q19 0 32.5 13.5t13.5 32.5zM241 541q0 19 -13.5 32.5t-32.5 13.5
t-32.5 -13.5t-13.5 -32.5t13.5 -32.5t32.5 -13.5t32.5 13.5t13.5 32.5zM340 442q0 19 -13.5 32.5t-32.5 13.5q-20 0 -33 -13.5t-13 -32.5t13 -32.5t33 -13.5q19 0 32.5 13.5t13.5 32.5zM241 442q0 19 -13.5 32.5t-32.5 13.5t-32.5 -13.5t-13.5 -32.5t13.5 -32.5t32.5 -13.5
t32.5 13.5t13.5 32.5zM142 442q0 19 -13.5 32.5t-32.5 13.5t-32.5 -13.5t-13.5 -32.5t13.5 -32.5t32.5 -13.5t32.5 13.5t13.5 32.5zM241 343q0 19 -13.5 32.5t-32.5 13.5t-32.5 -13.5t-13.5 -32.5t13.5 -32.5t32.5 -13.5t32.5 13.5t13.5 32.5zM241 244q0 19 -13.5 32.5
t-32.5 13.5t-32.5 -13.5t-13.5 -32.5t13.5 -32.5t32.5 -13.5t32.5 13.5t13.5 32.5zM241 145q0 19 -13.5 32.5t-32.5 13.5t-32.5 -13.5t-13.5 -32.5t13.5 -32.5t32.5 -13.5t32.5 13.5t13.5 32.5zM241 46q0 19 -13.5 32.5t-32.5 13.5t-32.5 -13.5t-13.5 -32.5t13.5 -32.5
t32.5 -13.5t32.5 13.5t13.5 32.5z" />
    <glyph glyph-name="g" unicode="g" 
d="M439 442q0 19 -13.5 32.5t-32.5 13.5q-20 0 -33 -13.5t-13 -32.5t13 -32.5t33 -13.5q19 0 32.5 13.5t13.5 32.5zM538 343q0 19 -13.5 32.5t-32.5 13.5q-20 0 -33 -13.5t-13 -32.5t13 -32.5t33 -13.5q19 0 32.5 13.5t13.5 32.5zM340 442q0 19 -13.5 32.5t-32.5 13.5
t-32.5 -13.5t-13.5 -32.5t13.5 -32.5t32.5 -13.5t32.5 13.5t13.5 32.5zM538 244q0 19 -13.5 32.5t-32.5 13.5q-20 0 -33 -13.5t-13 -32.5t13 -32.5t33 -13.5q19 0 32.5 13.5t13.5 32.5zM241 442q0 19 -13.5 32.5t-32.5 13.5t-32.5 -13.5t-13.5 -32.5t13.5 -32.5t32.5 -13.5
t32.5 13.5t13.5 32.5zM538 145q0 19 -13.5 32.5t-32.5 13.5q-20 0 -33 -13.5t-13 -32.5t13 -32.5t33 -13.5q19 0 32.5 13.5t13.5 32.5zM439 145q0 19 -13.5 32.5t-32.5 13.5q-20 0 -33 -13.5t-13 -32.5t13 -32.5t33 -13.5q19 0 32.5 13.5t13.5 32.5zM538 46q0 19 -13.5 32.5
t-32.5 13.5q-20 0 -33 -13.5t-13 -32.5t13 -32.5t33 -13.5q19 0 32.5 13.5t13.5 32.5zM142 343q0 19 -13.5 32.5t-32.5 13.5t-32.5 -13.5t-13.5 -32.5t13.5 -32.5t32.5 -13.5t32.5 13.5t13.5 32.5zM340 145q0 19 -13.5 32.5t-32.5 13.5t-32.5 -13.5t-13.5 -32.5t13.5 -32.5
t32.5 -13.5t32.5 13.5t13.5 32.5zM142 244q0 19 -13.5 32.5t-32.5 13.5t-32.5 -13.5t-13.5 -32.5t13.5 -32.5t32.5 -13.5t32.5 13.5t13.5 32.5zM241 145q0 19 -13.5 32.5t-32.5 13.5t-32.5 -13.5t-13.5 -32.5t13.5 -32.5t32.5 -13.5t32.5 13.5t13.5 32.5zM439 -53
q0 20 -13.5 33t-32.5 13q-20 0 -33 -13t-13 -33q0 -19 13 -32.5t33 -13.5q19 0 32.5 13.5t13.5 32.5zM340 -53q0 20 -13.5 33t-32.5 13t-32.5 -13t-13.5 -33q0 -19 13.5 -32.5t32.5 -13.5t32.5 13.5t13.5 32.5zM241 -53q0 20 -13.5 33t-32.5 13t-32.5 -13t-13.5 -33
q0 -19 13.5 -32.5t32.5 -13.5t32.5 13.5t13.5 32.5zM142 -53q0 20 -13.5 33t-32.5 13t-32.5 -13t-13.5 -33q0 -19 13.5 -32.5t32.5 -13.5t32.5 13.5t13.5 32.5z" />
    <glyph glyph-name="h" unicode="h" 
d="M439 442q0 19 -13.5 32.5t-32.5 13.5q-20 0 -33 -13.5t-13 -32.5t13 -32.5t33 -13.5q19 0 32.5 13.5t13.5 32.5zM538 343q0 19 -13.5 32.5t-32.5 13.5q-20 0 -33 -13.5t-13 -32.5t13 -32.5t33 -13.5q19 0 32.5 13.5t13.5 32.5zM142 640q0 19 -13.5 32.5t-32.5 13.5
t-32.5 -13.5t-13.5 -32.5t13.5 -32.5t32.5 -13.5t32.5 13.5t13.5 32.5zM340 442q0 19 -13.5 32.5t-32.5 13.5t-32.5 -13.5t-13.5 -32.5t13.5 -32.5t32.5 -13.5t32.5 13.5t13.5 32.5zM538 244q0 19 -13.5 32.5t-32.5 13.5q-20 0 -33 -13.5t-13 -32.5t13 -32.5t33 -13.5
q19 0 32.5 13.5t13.5 32.5zM142 541q0 19 -13.5 32.5t-32.5 13.5t-32.5 -13.5t-13.5 -32.5t13.5 -32.5t32.5 -13.5t32.5 13.5t13.5 32.5zM241 442q0 19 -13.5 32.5t-32.5 13.5t-32.5 -13.5t-13.5 -32.5t13.5 -32.5t32.5 -13.5t32.5 13.5t13.5 32.5zM538 145q0 19 -13.5 32.5
t-32.5 13.5q-20 0 -33 -13.5t-13 -32.5t13 -32.5t33 -13.5q19 0 32.5 13.5t13.5 32.5zM142 442q0 19 -13.5 32.5t-32.5 13.5t-32.5 -13.5t-13.5 -32.5t13.5 -32.5t32.5 -13.5t32.5 13.5t13.5 32.5zM538 46q0 19 -13.5 32.5t-32.5 13.5q-20 0 -33 -13.5t-13 -32.5t13 -32.5
t33 -13.5q19 0 32.5 13.5t13.5 32.5zM142 343q0 19 -13.5 32.5t-32.5 13.5t-32.5 -13.5t-13.5 -32.5t13.5 -32.5t32.5 -13.5t32.5 13.5t13.5 32.5zM142 244q0 19 -13.5 32.5t-32.5 13.5t-32.5 -13.5t-13.5 -32.5t13.5 -32.5t32.5 -13.5t32.5 13.5t13.5 32.5zM142 145
q0 19 -13.5 32.5t-32.5 13.5t-32.5 -13.5t-13.5 -32.5t13.5 -32.5t32.5 -13.5t32.5 13.5t13.5 32.5zM142 46q0 19 -13.5 32.5t-32.5 13.5t-32.5 -13.5t-13.5 -32.5t13.5 -32.5t32.5 -13.5t32.5 13.5t13.5 32.5z" />
    <glyph glyph-name="i" unicode="i" horiz-adv-x="390" 
d="M241 640q0 19 -13.5 32.5t-32.5 13.5t-32.5 -13.5t-13.5 -32.5t13.5 -32.5t32.5 -13.5t32.5 13.5t13.5 32.5zM241 442q0 19 -13.5 32.5t-32.5 13.5t-32.5 -13.5t-13.5 -32.5t13.5 -32.5t32.5 -13.5t32.5 13.5t13.5 32.5zM142 442q0 19 -13.5 32.5t-32.5 13.5t-32.5 -13.5
t-13.5 -32.5t13.5 -32.5t32.5 -13.5t32.5 13.5t13.5 32.5zM241 343q0 19 -13.5 32.5t-32.5 13.5t-32.5 -13.5t-13.5 -32.5t13.5 -32.5t32.5 -13.5t32.5 13.5t13.5 32.5zM241 244q0 19 -13.5 32.5t-32.5 13.5t-32.5 -13.5t-13.5 -32.5t13.5 -32.5t32.5 -13.5t32.5 13.5
t13.5 32.5zM241 145q0 19 -13.5 32.5t-32.5 13.5t-32.5 -13.5t-13.5 -32.5t13.5 -32.5t32.5 -13.5t32.5 13.5t13.5 32.5zM340 46q0 19 -13.5 32.5t-32.5 13.5q-20 0 -33 -13.5t-13 -32.5t13 -32.5t33 -13.5q19 0 32.5 13.5t13.5 32.5zM241 46q0 19 -13.5 32.5t-32.5 13.5
t-32.5 -13.5t-13.5 -32.5t13.5 -32.5t32.5 -13.5t32.5 13.5t13.5 32.5zM142 46q0 19 -13.5 32.5t-32.5 13.5t-32.5 -13.5t-13.5 -32.5t13.5 -32.5t32.5 -13.5t32.5 13.5t13.5 32.5z" />
    <glyph glyph-name="j" unicode="j" horiz-adv-x="489" 
d="M439 640q0 19 -13.5 32.5t-32.5 13.5q-20 0 -33 -13.5t-13 -32.5t13 -32.5t33 -13.5q19 0 32.5 13.5t13.5 32.5zM439 442q0 19 -13.5 32.5t-32.5 13.5q-20 0 -33 -13.5t-13 -32.5t13 -32.5t33 -13.5q19 0 32.5 13.5t13.5 32.5zM340 442q0 19 -13.5 32.5t-32.5 13.5
t-32.5 -13.5t-13.5 -32.5t13.5 -32.5t32.5 -13.5t32.5 13.5t13.5 32.5zM439 343q0 19 -13.5 32.5t-32.5 13.5q-20 0 -33 -13.5t-13 -32.5t13 -32.5t33 -13.5q19 0 32.5 13.5t13.5 32.5zM439 244q0 19 -13.5 32.5t-32.5 13.5q-20 0 -33 -13.5t-13 -32.5t13 -32.5t33 -13.5
q19 0 32.5 13.5t13.5 32.5zM439 145q0 19 -13.5 32.5t-32.5 13.5q-20 0 -33 -13.5t-13 -32.5t13 -32.5t33 -13.5q19 0 32.5 13.5t13.5 32.5zM439 46q0 19 -13.5 32.5t-32.5 13.5q-20 0 -33 -13.5t-13 -32.5t13 -32.5t33 -13.5q19 0 32.5 13.5t13.5 32.5zM340 -53
q0 20 -13.5 33t-32.5 13t-32.5 -13t-13.5 -33q0 -19 13.5 -32.5t32.5 -13.5t32.5 13.5t13.5 32.5zM142 46q0 19 -13.5 32.5t-32.5 13.5t-32.5 -13.5t-13.5 -32.5t13.5 -32.5t32.5 -13.5t32.5 13.5t13.5 32.5zM241 -53q0 20 -13.5 33t-32.5 13t-32.5 -13t-13.5 -33
q0 -19 13.5 -32.5t32.5 -13.5t32.5 13.5t13.5 32.5z" />
    <glyph glyph-name="k" unicode="k" horiz-adv-x="489" 
d="M439 442q0 19 -13.5 32.5t-32.5 13.5q-20 0 -33 -13.5t-13 -32.5t13 -32.5t33 -13.5q19 0 32.5 13.5t13.5 32.5zM142 640q0 19 -13.5 32.5t-32.5 13.5t-32.5 -13.5t-13.5 -32.5t13.5 -32.5t32.5 -13.5t32.5 13.5t13.5 32.5zM142 541q0 19 -13.5 32.5t-32.5 13.5
t-32.5 -13.5t-13.5 -32.5t13.5 -32.5t32.5 -13.5t32.5 13.5t13.5 32.5zM340 343q0 19 -13.5 32.5t-32.5 13.5t-32.5 -13.5t-13.5 -32.5t13.5 -32.5t32.5 -13.5t32.5 13.5t13.5 32.5zM142 442q0 19 -13.5 32.5t-32.5 13.5t-32.5 -13.5t-13.5 -32.5t13.5 -32.5t32.5 -13.5
t32.5 13.5t13.5 32.5zM142 343q0 19 -13.5 32.5t-32.5 13.5t-32.5 -13.5t-13.5 -32.5t13.5 -32.5t32.5 -13.5t32.5 13.5t13.5 32.5zM241 244q0 19 -13.5 32.5t-32.5 13.5t-32.5 -13.5t-13.5 -32.5t13.5 -32.5t32.5 -13.5t32.5 13.5t13.5 32.5zM340 145q0 19 -13.5 32.5
t-32.5 13.5t-32.5 -13.5t-13.5 -32.5t13.5 -32.5t32.5 -13.5t32.5 13.5t13.5 32.5zM439 46q0 19 -13.5 32.5t-32.5 13.5q-20 0 -33 -13.5t-13 -32.5t13 -32.5t33 -13.5q19 0 32.5 13.5t13.5 32.5zM142 244q0 19 -13.5 32.5t-32.5 13.5t-32.5 -13.5t-13.5 -32.5t13.5 -32.5
t32.5 -13.5t32.5 13.5t13.5 32.5zM142 145q0 19 -13.5 32.5t-32.5 13.5t-32.5 -13.5t-13.5 -32.5t13.5 -32.5t32.5 -13.5t32.5 13.5t13.5 32.5zM142 46q0 19 -13.5 32.5t-32.5 13.5t-32.5 -13.5t-13.5 -32.5t13.5 -32.5t32.5 -13.5t32.5 13.5t13.5 32.5z" />
    <glyph glyph-name="l" unicode="l" horiz-adv-x="390" 
d="M241 640q0 19 -13.5 32.5t-32.5 13.5t-32.5 -13.5t-13.5 -32.5t13.5 -32.5t32.5 -13.5t32.5 13.5t13.5 32.5zM142 640q0 19 -13.5 32.5t-32.5 13.5t-32.5 -13.5t-13.5 -32.5t13.5 -32.5t32.5 -13.5t32.5 13.5t13.5 32.5zM241 541q0 19 -13.5 32.5t-32.5 13.5t-32.5 -13.5
t-13.5 -32.5t13.5 -32.5t32.5 -13.5t32.5 13.5t13.5 32.5zM241 442q0 19 -13.5 32.5t-32.5 13.5t-32.5 -13.5t-13.5 -32.5t13.5 -32.5t32.5 -13.5t32.5 13.5t13.5 32.5zM241 343q0 19 -13.5 32.5t-32.5 13.5t-32.5 -13.5t-13.5 -32.5t13.5 -32.5t32.5 -13.5t32.5 13.5
t13.5 32.5zM241 244q0 19 -13.5 32.5t-32.5 13.5t-32.5 -13.5t-13.5 -32.5t13.5 -32.5t32.5 -13.5t32.5 13.5t13.5 32.5zM241 145q0 19 -13.5 32.5t-32.5 13.5t-32.5 -13.5t-13.5 -32.5t13.5 -32.5t32.5 -13.5t32.5 13.5t13.5 32.5zM340 46q0 19 -13.5 32.5t-32.5 13.5
q-20 0 -33 -13.5t-13 -32.5t13 -32.5t33 -13.5q19 0 32.5 13.5t13.5 32.5zM241 46q0 19 -13.5 32.5t-32.5 13.5t-32.5 -13.5t-13.5 -32.5t13.5 -32.5t32.5 -13.5t32.5 13.5t13.5 32.5zM142 46q0 19 -13.5 32.5t-32.5 13.5t-32.5 -13.5t-13.5 -32.5t13.5 -32.5t32.5 -13.5
t32.5 13.5t13.5 32.5z" />
    <glyph glyph-name="m" unicode="m" 
d="M439 442q0 19 -13.5 32.5t-32.5 13.5q-20 0 -33 -13.5t-13 -32.5t13 -32.5t33 -13.5q19 0 32.5 13.5t13.5 32.5zM538 343q0 19 -13.5 32.5t-32.5 13.5q-20 0 -33 -13.5t-13 -32.5t13 -32.5t33 -13.5q19 0 32.5 13.5t13.5 32.5zM340 442q0 19 -13.5 32.5t-32.5 13.5
t-32.5 -13.5t-13.5 -32.5t13.5 -32.5t32.5 -13.5t32.5 13.5t13.5 32.5zM538 244q0 19 -13.5 32.5t-32.5 13.5q-20 0 -33 -13.5t-13 -32.5t13 -32.5t33 -13.5q19 0 32.5 13.5t13.5 32.5zM241 442q0 19 -13.5 32.5t-32.5 13.5t-32.5 -13.5t-13.5 -32.5t13.5 -32.5t32.5 -13.5
t32.5 13.5t13.5 32.5zM340 343q0 19 -13.5 32.5t-32.5 13.5t-32.5 -13.5t-13.5 -32.5t13.5 -32.5t32.5 -13.5t32.5 13.5t13.5 32.5zM538 145q0 19 -13.5 32.5t-32.5 13.5q-20 0 -33 -13.5t-13 -32.5t13 -32.5t33 -13.5q19 0 32.5 13.5t13.5 32.5zM142 442q0 19 -13.5 32.5
t-32.5 13.5t-32.5 -13.5t-13.5 -32.5t13.5 -32.5t32.5 -13.5t32.5 13.5t13.5 32.5zM340 244q0 19 -13.5 32.5t-32.5 13.5t-32.5 -13.5t-13.5 -32.5t13.5 -32.5t32.5 -13.5t32.5 13.5t13.5 32.5zM538 46q0 19 -13.5 32.5t-32.5 13.5q-20 0 -33 -13.5t-13 -32.5t13 -32.5
t33 -13.5q19 0 32.5 13.5t13.5 32.5zM142 343q0 19 -13.5 32.5t-32.5 13.5t-32.5 -13.5t-13.5 -32.5t13.5 -32.5t32.5 -13.5t32.5 13.5t13.5 32.5zM340 145q0 19 -13.5 32.5t-32.5 13.5t-32.5 -13.5t-13.5 -32.5t13.5 -32.5t32.5 -13.5t32.5 13.5t13.5 32.5zM142 244
q0 19 -13.5 32.5t-32.5 13.5t-32.5 -13.5t-13.5 -32.5t13.5 -32.5t32.5 -13.5t32.5 13.5t13.5 32.5zM340 46q0 19 -13.5 32.5t-32.5 13.5t-32.5 -13.5t-13.5 -32.5t13.5 -32.5t32.5 -13.5t32.5 13.5t13.5 32.5zM142 145q0 19 -13.5 32.5t-32.5 13.5t-32.5 -13.5t-13.5 -32.5
t13.5 -32.5t32.5 -13.5t32.5 13.5t13.5 32.5zM142 46q0 19 -13.5 32.5t-32.5 13.5t-32.5 -13.5t-13.5 -32.5t13.5 -32.5t32.5 -13.5t32.5 13.5t13.5 32.5z" />
    <glyph glyph-name="n" unicode="n" 
d="M439 442q0 19 -13.5 32.5t-32.5 13.5q-20 0 -33 -13.5t-13 -32.5t13 -32.5t33 -13.5q19 0 32.5 13.5t13.5 32.5zM538 343q0 19 -13.5 32.5t-32.5 13.5q-20 0 -33 -13.5t-13 -32.5t13 -32.5t33 -13.5q19 0 32.5 13.5t13.5 32.5zM340 442q0 19 -13.5 32.5t-32.5 13.5
t-32.5 -13.5t-13.5 -32.5t13.5 -32.5t32.5 -13.5t32.5 13.5t13.5 32.5zM538 244q0 19 -13.5 32.5t-32.5 13.5q-20 0 -33 -13.5t-13 -32.5t13 -32.5t33 -13.5q19 0 32.5 13.5t13.5 32.5zM241 442q0 19 -13.5 32.5t-32.5 13.5t-32.5 -13.5t-13.5 -32.5t13.5 -32.5t32.5 -13.5
t32.5 13.5t13.5 32.5zM538 145q0 19 -13.5 32.5t-32.5 13.5q-20 0 -33 -13.5t-13 -32.5t13 -32.5t33 -13.5q19 0 32.5 13.5t13.5 32.5zM142 442q0 19 -13.5 32.5t-32.5 13.5t-32.5 -13.5t-13.5 -32.5t13.5 -32.5t32.5 -13.5t32.5 13.5t13.5 32.5zM538 46q0 19 -13.5 32.5
t-32.5 13.5q-20 0 -33 -13.5t-13 -32.5t13 -32.5t33 -13.5q19 0 32.5 13.5t13.5 32.5zM142 343q0 19 -13.5 32.5t-32.5 13.5t-32.5 -13.5t-13.5 -32.5t13.5 -32.5t32.5 -13.5t32.5 13.5t13.5 32.5zM142 244q0 19 -13.5 32.5t-32.5 13.5t-32.5 -13.5t-13.5 -32.5t13.5 -32.5
t32.5 -13.5t32.5 13.5t13.5 32.5zM142 145q0 19 -13.5 32.5t-32.5 13.5t-32.5 -13.5t-13.5 -32.5t13.5 -32.5t32.5 -13.5t32.5 13.5t13.5 32.5zM142 46q0 19 -13.5 32.5t-32.5 13.5t-32.5 -13.5t-13.5 -32.5t13.5 -32.5t32.5 -13.5t32.5 13.5t13.5 32.5z" />
    <glyph glyph-name="o" unicode="o" 
d="M439 442q0 19 -13.5 32.5t-32.5 13.5q-20 0 -33 -13.5t-13 -32.5t13 -32.5t33 -13.5q19 0 32.5 13.5t13.5 32.5zM538 343q0 19 -13.5 32.5t-32.5 13.5q-20 0 -33 -13.5t-13 -32.5t13 -32.5t33 -13.5q19 0 32.5 13.5t13.5 32.5zM340 442q0 19 -13.5 32.5t-32.5 13.5
t-32.5 -13.5t-13.5 -32.5t13.5 -32.5t32.5 -13.5t32.5 13.5t13.5 32.5zM538 244q0 19 -13.5 32.5t-32.5 13.5q-20 0 -33 -13.5t-13 -32.5t13 -32.5t33 -13.5q19 0 32.5 13.5t13.5 32.5zM241 442q0 19 -13.5 32.5t-32.5 13.5t-32.5 -13.5t-13.5 -32.5t13.5 -32.5t32.5 -13.5
t32.5 13.5t13.5 32.5zM538 145q0 19 -13.5 32.5t-32.5 13.5q-20 0 -33 -13.5t-13 -32.5t13 -32.5t33 -13.5q19 0 32.5 13.5t13.5 32.5zM142 343q0 19 -13.5 32.5t-32.5 13.5t-32.5 -13.5t-13.5 -32.5t13.5 -32.5t32.5 -13.5t32.5 13.5t13.5 32.5zM439 46q0 19 -13.5 32.5
t-32.5 13.5q-20 0 -33 -13.5t-13 -32.5t13 -32.5t33 -13.5q19 0 32.5 13.5t13.5 32.5zM142 244q0 19 -13.5 32.5t-32.5 13.5t-32.5 -13.5t-13.5 -32.5t13.5 -32.5t32.5 -13.5t32.5 13.5t13.5 32.5zM340 46q0 19 -13.5 32.5t-32.5 13.5t-32.5 -13.5t-13.5 -32.5t13.5 -32.5
t32.5 -13.5t32.5 13.5t13.5 32.5zM142 145q0 19 -13.5 32.5t-32.5 13.5t-32.5 -13.5t-13.5 -32.5t13.5 -32.5t32.5 -13.5t32.5 13.5t13.5 32.5zM241 46q0 19 -13.5 32.5t-32.5 13.5t-32.5 -13.5t-13.5 -32.5t13.5 -32.5t32.5 -13.5t32.5 13.5t13.5 32.5z" />
    <glyph glyph-name="p" unicode="p" 
d="M439 442q0 19 -13.5 32.5t-32.5 13.5q-20 0 -33 -13.5t-13 -32.5t13 -32.5t33 -13.5q19 0 32.5 13.5t13.5 32.5zM538 343q0 19 -13.5 32.5t-32.5 13.5q-20 0 -33 -13.5t-13 -32.5t13 -32.5t33 -13.5q19 0 32.5 13.5t13.5 32.5zM340 442q0 19 -13.5 32.5t-32.5 13.5
t-32.5 -13.5t-13.5 -32.5t13.5 -32.5t32.5 -13.5t32.5 13.5t13.5 32.5zM538 244q0 19 -13.5 32.5t-32.5 13.5q-20 0 -33 -13.5t-13 -32.5t13 -32.5t33 -13.5q19 0 32.5 13.5t13.5 32.5zM241 442q0 19 -13.5 32.5t-32.5 13.5t-32.5 -13.5t-13.5 -32.5t13.5 -32.5t32.5 -13.5
t32.5 13.5t13.5 32.5zM142 442q0 19 -13.5 32.5t-32.5 13.5t-32.5 -13.5t-13.5 -32.5t13.5 -32.5t32.5 -13.5t32.5 13.5t13.5 32.5zM439 145q0 19 -13.5 32.5t-32.5 13.5q-20 0 -33 -13.5t-13 -32.5t13 -32.5t33 -13.5q19 0 32.5 13.5t13.5 32.5zM142 343q0 19 -13.5 32.5
t-32.5 13.5t-32.5 -13.5t-13.5 -32.5t13.5 -32.5t32.5 -13.5t32.5 13.5t13.5 32.5zM340 145q0 19 -13.5 32.5t-32.5 13.5t-32.5 -13.5t-13.5 -32.5t13.5 -32.5t32.5 -13.5t32.5 13.5t13.5 32.5zM142 244q0 19 -13.5 32.5t-32.5 13.5t-32.5 -13.5t-13.5 -32.5t13.5 -32.5
t32.5 -13.5t32.5 13.5t13.5 32.5zM241 145q0 19 -13.5 32.5t-32.5 13.5t-32.5 -13.5t-13.5 -32.5t13.5 -32.5t32.5 -13.5t32.5 13.5t13.5 32.5zM142 145q0 19 -13.5 32.5t-32.5 13.5t-32.5 -13.5t-13.5 -32.5t13.5 -32.5t32.5 -13.5t32.5 13.5t13.5 32.5zM142 46
q0 19 -13.5 32.5t-32.5 13.5t-32.5 -13.5t-13.5 -32.5t13.5 -32.5t32.5 -13.5t32.5 13.5t13.5 32.5zM142 -53q0 20 -13.5 33t-32.5 13t-32.5 -13t-13.5 -33q0 -19 13.5 -32.5t32.5 -13.5t32.5 13.5t13.5 32.5z" />
    <glyph glyph-name="q" unicode="q" 
d="M538 442q0 19 -13.5 32.5t-32.5 13.5q-20 0 -33 -13.5t-13 -32.5t13 -32.5t33 -13.5q19 0 32.5 13.5t13.5 32.5zM439 442q0 19 -13.5 32.5t-32.5 13.5q-20 0 -33 -13.5t-13 -32.5t13 -32.5t33 -13.5q19 0 32.5 13.5t13.5 32.5zM538 343q0 19 -13.5 32.5t-32.5 13.5
q-20 0 -33 -13.5t-13 -32.5t13 -32.5t33 -13.5q19 0 32.5 13.5t13.5 32.5zM340 442q0 19 -13.5 32.5t-32.5 13.5t-32.5 -13.5t-13.5 -32.5t13.5 -32.5t32.5 -13.5t32.5 13.5t13.5 32.5zM538 244q0 19 -13.5 32.5t-32.5 13.5q-20 0 -33 -13.5t-13 -32.5t13 -32.5t33 -13.5
q19 0 32.5 13.5t13.5 32.5zM241 442q0 19 -13.5 32.5t-32.5 13.5t-32.5 -13.5t-13.5 -32.5t13.5 -32.5t32.5 -13.5t32.5 13.5t13.5 32.5zM538 145q0 19 -13.5 32.5t-32.5 13.5q-20 0 -33 -13.5t-13 -32.5t13 -32.5t33 -13.5q19 0 32.5 13.5t13.5 32.5zM439 145
q0 19 -13.5 32.5t-32.5 13.5q-20 0 -33 -13.5t-13 -32.5t13 -32.5t33 -13.5q19 0 32.5 13.5t13.5 32.5zM538 46q0 19 -13.5 32.5t-32.5 13.5q-20 0 -33 -13.5t-13 -32.5t13 -32.5t33 -13.5q19 0 32.5 13.5t13.5 32.5zM142 343q0 19 -13.5 32.5t-32.5 13.5t-32.5 -13.5
t-13.5 -32.5t13.5 -32.5t32.5 -13.5t32.5 13.5t13.5 32.5zM340 145q0 19 -13.5 32.5t-32.5 13.5t-32.5 -13.5t-13.5 -32.5t13.5 -32.5t32.5 -13.5t32.5 13.5t13.5 32.5zM538 -53q0 20 -13.5 33t-32.5 13q-20 0 -33 -13t-13 -33q0 -19 13 -32.5t33 -13.5q19 0 32.5 13.5
t13.5 32.5zM142 244q0 19 -13.5 32.5t-32.5 13.5t-32.5 -13.5t-13.5 -32.5t13.5 -32.5t32.5 -13.5t32.5 13.5t13.5 32.5zM241 145q0 19 -13.5 32.5t-32.5 13.5t-32.5 -13.5t-13.5 -32.5t13.5 -32.5t32.5 -13.5t32.5 13.5t13.5 32.5z" />
    <glyph glyph-name="r" unicode="r" 
d="M439 442q0 19 -13.5 32.5t-32.5 13.5q-20 0 -33 -13.5t-13 -32.5t13 -32.5t33 -13.5q19 0 32.5 13.5t13.5 32.5zM538 343q0 19 -13.5 32.5t-32.5 13.5q-20 0 -33 -13.5t-13 -32.5t13 -32.5t33 -13.5q19 0 32.5 13.5t13.5 32.5zM340 442q0 19 -13.5 32.5t-32.5 13.5
t-32.5 -13.5t-13.5 -32.5t13.5 -32.5t32.5 -13.5t32.5 13.5t13.5 32.5zM142 442q0 19 -13.5 32.5t-32.5 13.5t-32.5 -13.5t-13.5 -32.5t13.5 -32.5t32.5 -13.5t32.5 13.5t13.5 32.5zM241 343q0 19 -13.5 32.5t-32.5 13.5t-32.5 -13.5t-13.5 -32.5t13.5 -32.5t32.5 -13.5
t32.5 13.5t13.5 32.5zM241 244q0 19 -13.5 32.5t-32.5 13.5t-32.5 -13.5t-13.5 -32.5t13.5 -32.5t32.5 -13.5t32.5 13.5t13.5 32.5zM241 145q0 19 -13.5 32.5t-32.5 13.5t-32.5 -13.5t-13.5 -32.5t13.5 -32.5t32.5 -13.5t32.5 13.5t13.5 32.5zM241 46q0 19 -13.5 32.5
t-32.5 13.5t-32.5 -13.5t-13.5 -32.5t13.5 -32.5t32.5 -13.5t32.5 13.5t13.5 32.5z" />
    <glyph glyph-name="s" unicode="s" 
d="M538 442q0 19 -13.5 32.5t-32.5 13.5q-20 0 -33 -13.5t-13 -32.5t13 -32.5t33 -13.5q19 0 32.5 13.5t13.5 32.5zM439 442q0 19 -13.5 32.5t-32.5 13.5q-20 0 -33 -13.5t-13 -32.5t13 -32.5t33 -13.5q19 0 32.5 13.5t13.5 32.5zM340 442q0 19 -13.5 32.5t-32.5 13.5
t-32.5 -13.5t-13.5 -32.5t13.5 -32.5t32.5 -13.5t32.5 13.5t13.5 32.5zM241 442q0 19 -13.5 32.5t-32.5 13.5t-32.5 -13.5t-13.5 -32.5t13.5 -32.5t32.5 -13.5t32.5 13.5t13.5 32.5zM439 244q0 19 -13.5 32.5t-32.5 13.5q-20 0 -33 -13.5t-13 -32.5t13 -32.5t33 -13.5
q19 0 32.5 13.5t13.5 32.5zM538 145q0 19 -13.5 32.5t-32.5 13.5q-20 0 -33 -13.5t-13 -32.5t13 -32.5t33 -13.5q19 0 32.5 13.5t13.5 32.5zM340 244q0 19 -13.5 32.5t-32.5 13.5t-32.5 -13.5t-13.5 -32.5t13.5 -32.5t32.5 -13.5t32.5 13.5t13.5 32.5zM142 343
q0 19 -13.5 32.5t-32.5 13.5t-32.5 -13.5t-13.5 -32.5t13.5 -32.5t32.5 -13.5t32.5 13.5t13.5 32.5zM241 244q0 19 -13.5 32.5t-32.5 13.5t-32.5 -13.5t-13.5 -32.5t13.5 -32.5t32.5 -13.5t32.5 13.5t13.5 32.5zM439 46q0 19 -13.5 32.5t-32.5 13.5q-20 0 -33 -13.5
t-13 -32.5t13 -32.5t33 -13.5q19 0 32.5 13.5t13.5 32.5zM340 46q0 19 -13.5 32.5t-32.5 13.5t-32.5 -13.5t-13.5 -32.5t13.5 -32.5t32.5 -13.5t32.5 13.5t13.5 32.5zM241 46q0 19 -13.5 32.5t-32.5 13.5t-32.5 -13.5t-13.5 -32.5t13.5 -32.5t32.5 -13.5t32.5 13.5
t13.5 32.5zM142 46q0 19 -13.5 32.5t-32.5 13.5t-32.5 -13.5t-13.5 -32.5t13.5 -32.5t32.5 -13.5t32.5 13.5t13.5 32.5z" />
    <glyph glyph-name="t" unicode="t" horiz-adv-x="489" 
d="M241 640q0 19 -13.5 32.5t-32.5 13.5t-32.5 -13.5t-13.5 -32.5t13.5 -32.5t32.5 -13.5t32.5 13.5t13.5 32.5zM439 442q0 19 -13.5 32.5t-32.5 13.5q-20 0 -33 -13.5t-13 -32.5t13 -32.5t33 -13.5q19 0 32.5 13.5t13.5 32.5zM241 541q0 19 -13.5 32.5t-32.5 13.5
t-32.5 -13.5t-13.5 -32.5t13.5 -32.5t32.5 -13.5t32.5 13.5t13.5 32.5zM340 442q0 19 -13.5 32.5t-32.5 13.5q-20 0 -33 -13.5t-13 -32.5t13 -32.5t33 -13.5q19 0 32.5 13.5t13.5 32.5zM241 442q0 19 -13.5 32.5t-32.5 13.5t-32.5 -13.5t-13.5 -32.5t13.5 -32.5t32.5 -13.5
t32.5 13.5t13.5 32.5zM142 442q0 19 -13.5 32.5t-32.5 13.5t-32.5 -13.5t-13.5 -32.5t13.5 -32.5t32.5 -13.5t32.5 13.5t13.5 32.5zM241 343q0 19 -13.5 32.5t-32.5 13.5t-32.5 -13.5t-13.5 -32.5t13.5 -32.5t32.5 -13.5t32.5 13.5t13.5 32.5zM241 244q0 19 -13.5 32.5
t-32.5 13.5t-32.5 -13.5t-13.5 -32.5t13.5 -32.5t32.5 -13.5t32.5 13.5t13.5 32.5zM439 46q0 19 -13.5 32.5t-32.5 13.5q-20 0 -33 -13.5t-13 -32.5t13 -32.5t33 -13.5q19 0 32.5 13.5t13.5 32.5zM241 145q0 19 -13.5 32.5t-32.5 13.5t-32.5 -13.5t-13.5 -32.5t13.5 -32.5
t32.5 -13.5t32.5 13.5t13.5 32.5zM340 46q0 19 -13.5 32.5t-32.5 13.5q-20 0 -33 -13.5t-13 -32.5t13 -32.5t33 -13.5q19 0 32.5 13.5t13.5 32.5z" />
    <glyph glyph-name="u" unicode="u" 
d="M538 442q0 19 -13.5 32.5t-32.5 13.5q-20 0 -33 -13.5t-13 -32.5t13 -32.5t33 -13.5q19 0 32.5 13.5t13.5 32.5zM538 343q0 19 -13.5 32.5t-32.5 13.5q-20 0 -33 -13.5t-13 -32.5t13 -32.5t33 -13.5q19 0 32.5 13.5t13.5 32.5zM538 244q0 19 -13.5 32.5t-32.5 13.5
q-20 0 -33 -13.5t-13 -32.5t13 -32.5t33 -13.5q19 0 32.5 13.5t13.5 32.5zM538 145q0 19 -13.5 32.5t-32.5 13.5q-20 0 -33 -13.5t-13 -32.5t13 -32.5t33 -13.5q19 0 32.5 13.5t13.5 32.5zM142 442q0 19 -13.5 32.5t-32.5 13.5t-32.5 -13.5t-13.5 -32.5t13.5 -32.5
t32.5 -13.5t32.5 13.5t13.5 32.5zM538 46q0 19 -13.5 32.5t-32.5 13.5q-20 0 -33 -13.5t-13 -32.5t13 -32.5t33 -13.5q19 0 32.5 13.5t13.5 32.5zM142 343q0 19 -13.5 32.5t-32.5 13.5t-32.5 -13.5t-13.5 -32.5t13.5 -32.5t32.5 -13.5t32.5 13.5t13.5 32.5zM439 46
q0 19 -13.5 32.5t-32.5 13.5q-20 0 -33 -13.5t-13 -32.5t13 -32.5t33 -13.5q19 0 32.5 13.5t13.5 32.5zM142 244q0 19 -13.5 32.5t-32.5 13.5t-32.5 -13.5t-13.5 -32.5t13.5 -32.5t32.5 -13.5t32.5 13.5t13.5 32.5zM340 46q0 19 -13.5 32.5t-32.5 13.5t-32.5 -13.5
t-13.5 -32.5t13.5 -32.5t32.5 -13.5t32.5 13.5t13.5 32.5zM142 145q0 19 -13.5 32.5t-32.5 13.5t-32.5 -13.5t-13.5 -32.5t13.5 -32.5t32.5 -13.5t32.5 13.5t13.5 32.5zM241 46q0 19 -13.5 32.5t-32.5 13.5t-32.5 -13.5t-13.5 -32.5t13.5 -32.5t32.5 -13.5t32.5 13.5
t13.5 32.5z" />
    <glyph glyph-name="v" unicode="v" 
d="M538 442q0 19 -13.5 32.5t-32.5 13.5q-20 0 -33 -13.5t-13 -32.5t13 -32.5t33 -13.5q19 0 32.5 13.5t13.5 32.5zM538 343q0 19 -13.5 32.5t-32.5 13.5q-20 0 -33 -13.5t-13 -32.5t13 -32.5t33 -13.5q19 0 32.5 13.5t13.5 32.5zM439 244q0 19 -13.5 32.5t-32.5 13.5
q-20 0 -33 -13.5t-13 -32.5t13 -32.5t33 -13.5q19 0 32.5 13.5t13.5 32.5zM142 442q0 19 -13.5 32.5t-32.5 13.5t-32.5 -13.5t-13.5 -32.5t13.5 -32.5t32.5 -13.5t32.5 13.5t13.5 32.5zM439 145q0 19 -13.5 32.5t-32.5 13.5q-20 0 -33 -13.5t-13 -32.5t13 -32.5t33 -13.5
q19 0 32.5 13.5t13.5 32.5zM142 343q0 19 -13.5 32.5t-32.5 13.5t-32.5 -13.5t-13.5 -32.5t13.5 -32.5t32.5 -13.5t32.5 13.5t13.5 32.5zM241 244q0 19 -13.5 32.5t-32.5 13.5t-32.5 -13.5t-13.5 -32.5t13.5 -32.5t32.5 -13.5t32.5 13.5t13.5 32.5zM241 145q0 19 -13.5 32.5
t-32.5 13.5t-32.5 -13.5t-13.5 -32.5t13.5 -32.5t32.5 -13.5t32.5 13.5t13.5 32.5zM340 46q0 19 -13.5 32.5t-32.5 13.5t-32.5 -13.5t-13.5 -32.5t13.5 -32.5t32.5 -13.5t32.5 13.5t13.5 32.5z" />
    <glyph glyph-name="w" unicode="w" 
d="M538 442q0 19 -13.5 32.5t-32.5 13.5q-20 0 -33 -13.5t-13 -32.5t13 -32.5t33 -13.5q19 0 32.5 13.5t13.5 32.5zM538 343q0 19 -13.5 32.5t-32.5 13.5q-20 0 -33 -13.5t-13 -32.5t13 -32.5t33 -13.5q19 0 32.5 13.5t13.5 32.5zM340 442q0 19 -13.5 32.5t-32.5 13.5
t-32.5 -13.5t-13.5 -32.5t13.5 -32.5t32.5 -13.5t32.5 13.5t13.5 32.5zM538 244q0 19 -13.5 32.5t-32.5 13.5q-20 0 -33 -13.5t-13 -32.5t13 -32.5t33 -13.5q19 0 32.5 13.5t13.5 32.5zM340 343q0 19 -13.5 32.5t-32.5 13.5t-32.5 -13.5t-13.5 -32.5t13.5 -32.5t32.5 -13.5
t32.5 13.5t13.5 32.5zM538 145q0 19 -13.5 32.5t-32.5 13.5q-20 0 -33 -13.5t-13 -32.5t13 -32.5t33 -13.5q19 0 32.5 13.5t13.5 32.5zM142 442q0 19 -13.5 32.5t-32.5 13.5t-32.5 -13.5t-13.5 -32.5t13.5 -32.5t32.5 -13.5t32.5 13.5t13.5 32.5zM340 244q0 19 -13.5 32.5
t-32.5 13.5t-32.5 -13.5t-13.5 -32.5t13.5 -32.5t32.5 -13.5t32.5 13.5t13.5 32.5zM142 343q0 19 -13.5 32.5t-32.5 13.5t-32.5 -13.5t-13.5 -32.5t13.5 -32.5t32.5 -13.5t32.5 13.5t13.5 32.5zM340 145q0 19 -13.5 32.5t-32.5 13.5t-32.5 -13.5t-13.5 -32.5t13.5 -32.5
t32.5 -13.5t32.5 13.5t13.5 32.5zM439 46q0 19 -13.5 32.5t-32.5 13.5q-20 0 -33 -13.5t-13 -32.5t13 -32.5t33 -13.5q19 0 32.5 13.5t13.5 32.5zM142 244q0 19 -13.5 32.5t-32.5 13.5t-32.5 -13.5t-13.5 -32.5t13.5 -32.5t32.5 -13.5t32.5 13.5t13.5 32.5zM142 145
q0 19 -13.5 32.5t-32.5 13.5t-32.5 -13.5t-13.5 -32.5t13.5 -32.5t32.5 -13.5t32.5 13.5t13.5 32.5zM241 46q0 19 -13.5 32.5t-32.5 13.5t-32.5 -13.5t-13.5 -32.5t13.5 -32.5t32.5 -13.5t32.5 13.5t13.5 32.5z" />
    <glyph glyph-name="x" unicode="x" 
d="M538 442q0 19 -13.5 32.5t-32.5 13.5q-20 0 -33 -13.5t-13 -32.5t13 -32.5t33 -13.5q19 0 32.5 13.5t13.5 32.5zM439 343q0 19 -13.5 32.5t-32.5 13.5q-20 0 -33 -13.5t-13 -32.5t13 -32.5t33 -13.5q19 0 32.5 13.5t13.5 32.5zM142 442q0 19 -13.5 32.5t-32.5 13.5
t-32.5 -13.5t-13.5 -32.5t13.5 -32.5t32.5 -13.5t32.5 13.5t13.5 32.5zM241 343q0 19 -13.5 32.5t-32.5 13.5t-32.5 -13.5t-13.5 -32.5t13.5 -32.5t32.5 -13.5t32.5 13.5t13.5 32.5zM340 244q0 19 -13.5 32.5t-32.5 13.5t-32.5 -13.5t-13.5 -32.5t13.5 -32.5t32.5 -13.5
t32.5 13.5t13.5 32.5zM439 145q0 19 -13.5 32.5t-32.5 13.5q-20 0 -33 -13.5t-13 -32.5t13 -32.5t33 -13.5q19 0 32.5 13.5t13.5 32.5zM538 46q0 19 -13.5 32.5t-32.5 13.5q-20 0 -33 -13.5t-13 -32.5t13 -32.5t33 -13.5q19 0 32.5 13.5t13.5 32.5zM241 145q0 19 -13.5 32.5
t-32.5 13.5t-32.5 -13.5t-13.5 -32.5t13.5 -32.5t32.5 -13.5t32.5 13.5t13.5 32.5zM142 46q0 19 -13.5 32.5t-32.5 13.5t-32.5 -13.5t-13.5 -32.5t13.5 -32.5t32.5 -13.5t32.5 13.5t13.5 32.5z" />
    <glyph glyph-name="y" unicode="y" 
d="M538 442q0 19 -13.5 32.5t-32.5 13.5q-20 0 -33 -13.5t-13 -32.5t13 -32.5t33 -13.5q19 0 32.5 13.5t13.5 32.5zM538 343q0 19 -13.5 32.5t-32.5 13.5q-20 0 -33 -13.5t-13 -32.5t13 -32.5t33 -13.5q19 0 32.5 13.5t13.5 32.5zM538 244q0 19 -13.5 32.5t-32.5 13.5
q-20 0 -33 -13.5t-13 -32.5t13 -32.5t33 -13.5q19 0 32.5 13.5t13.5 32.5zM538 145q0 19 -13.5 32.5t-32.5 13.5q-20 0 -33 -13.5t-13 -32.5t13 -32.5t33 -13.5q19 0 32.5 13.5t13.5 32.5zM142 442q0 19 -13.5 32.5t-32.5 13.5t-32.5 -13.5t-13.5 -32.5t13.5 -32.5
t32.5 -13.5t32.5 13.5t13.5 32.5zM439 145q0 19 -13.5 32.5t-32.5 13.5q-20 0 -33 -13.5t-13 -32.5t13 -32.5t33 -13.5q19 0 32.5 13.5t13.5 32.5zM538 46q0 19 -13.5 32.5t-32.5 13.5q-20 0 -33 -13.5t-13 -32.5t13 -32.5t33 -13.5q19 0 32.5 13.5t13.5 32.5zM142 343
q0 19 -13.5 32.5t-32.5 13.5t-32.5 -13.5t-13.5 -32.5t13.5 -32.5t32.5 -13.5t32.5 13.5t13.5 32.5zM340 145q0 19 -13.5 32.5t-32.5 13.5t-32.5 -13.5t-13.5 -32.5t13.5 -32.5t32.5 -13.5t32.5 13.5t13.5 32.5zM142 244q0 19 -13.5 32.5t-32.5 13.5t-32.5 -13.5
t-13.5 -32.5t13.5 -32.5t32.5 -13.5t32.5 13.5t13.5 32.5zM241 145q0 19 -13.5 32.5t-32.5 13.5t-32.5 -13.5t-13.5 -32.5t13.5 -32.5t32.5 -13.5t32.5 13.5t13.5 32.5zM439 -53q0 20 -13.5 33t-32.5 13q-20 0 -33 -13t-13 -33q0 -19 13 -32.5t33 -13.5q19 0 32.5 13.5
t13.5 32.5zM340 -53q0 20 -13.5 33t-32.5 13t-32.5 -13t-13.5 -33q0 -19 13.5 -32.5t32.5 -13.5t32.5 13.5t13.5 32.5zM241 -53q0 20 -13.5 33t-32.5 13t-32.5 -13t-13.5 -33q0 -19 13.5 -32.5t32.5 -13.5t32.5 13.5t13.5 32.5z" />
    <glyph glyph-name="z" unicode="z" 
d="M538 442q0 19 -13.5 32.5t-32.5 13.5q-20 0 -33 -13.5t-13 -32.5t13 -32.5t33 -13.5q19 0 32.5 13.5t13.5 32.5zM439 442q0 19 -13.5 32.5t-32.5 13.5q-20 0 -33 -13.5t-13 -32.5t13 -32.5t33 -13.5q19 0 32.5 13.5t13.5 32.5zM340 442q0 19 -13.5 32.5t-32.5 13.5
t-32.5 -13.5t-13.5 -32.5t13.5 -32.5t32.5 -13.5t32.5 13.5t13.5 32.5zM439 343q0 19 -13.5 32.5t-32.5 13.5q-20 0 -33 -13.5t-13 -32.5t13 -32.5t33 -13.5q19 0 32.5 13.5t13.5 32.5zM241 442q0 19 -13.5 32.5t-32.5 13.5t-32.5 -13.5t-13.5 -32.5t13.5 -32.5t32.5 -13.5
t32.5 13.5t13.5 32.5zM142 442q0 19 -13.5 32.5t-32.5 13.5t-32.5 -13.5t-13.5 -32.5t13.5 -32.5t32.5 -13.5t32.5 13.5t13.5 32.5zM340 244q0 19 -13.5 32.5t-32.5 13.5t-32.5 -13.5t-13.5 -32.5t13.5 -32.5t32.5 -13.5t32.5 13.5t13.5 32.5zM538 46q0 19 -13.5 32.5
t-32.5 13.5q-20 0 -33 -13.5t-13 -32.5t13 -32.5t33 -13.5q19 0 32.5 13.5t13.5 32.5zM439 46q0 19 -13.5 32.5t-32.5 13.5q-20 0 -33 -13.5t-13 -32.5t13 -32.5t33 -13.5q19 0 32.5 13.5t13.5 32.5zM241 145q0 19 -13.5 32.5t-32.5 13.5t-32.5 -13.5t-13.5 -32.5
t13.5 -32.5t32.5 -13.5t32.5 13.5t13.5 32.5zM340 46q0 19 -13.5 32.5t-32.5 13.5t-32.5 -13.5t-13.5 -32.5t13.5 -32.5t32.5 -13.5t32.5 13.5t13.5 32.5zM241 46q0 19 -13.5 32.5t-32.5 13.5t-32.5 -13.5t-13.5 -32.5t13.5 -32.5t32.5 -13.5t32.5 13.5t13.5 32.5zM142 46
q0 19 -13.5 32.5t-32.5 13.5t-32.5 -13.5t-13.5 -32.5t13.5 -32.5t32.5 -13.5t32.5 13.5t13.5 32.5z" />
    <glyph glyph-name="braceleft" unicode="{" horiz-adv-x="390" 
d="M340 640q0 19 -13.5 32.5t-32.5 13.5q-20 0 -33 -13.5t-13 -32.5t13 -32.5t33 -13.5q19 0 32.5 13.5t13.5 32.5zM241 541q0 19 -13.5 32.5t-32.5 13.5t-32.5 -13.5t-13.5 -32.5t13.5 -32.5t32.5 -13.5t32.5 13.5t13.5 32.5zM241 442q0 19 -13.5 32.5t-32.5 13.5
t-32.5 -13.5t-13.5 -32.5t13.5 -32.5t32.5 -13.5t32.5 13.5t13.5 32.5zM142 343q0 19 -13.5 32.5t-32.5 13.5t-32.5 -13.5t-13.5 -32.5t13.5 -32.5t32.5 -13.5t32.5 13.5t13.5 32.5zM241 244q0 19 -13.5 32.5t-32.5 13.5t-32.5 -13.5t-13.5 -32.5t13.5 -32.5t32.5 -13.5
t32.5 13.5t13.5 32.5zM241 145q0 19 -13.5 32.5t-32.5 13.5t-32.5 -13.5t-13.5 -32.5t13.5 -32.5t32.5 -13.5t32.5 13.5t13.5 32.5zM340 46q0 19 -13.5 32.5t-32.5 13.5q-20 0 -33 -13.5t-13 -32.5t13 -32.5t33 -13.5q19 0 32.5 13.5t13.5 32.5z" />
    <glyph glyph-name="bar" unicode="|" horiz-adv-x="390" 
d="M241 640q0 19 -13.5 32.5t-32.5 13.5t-32.5 -13.5t-13.5 -32.5t13.5 -32.5t32.5 -13.5t32.5 13.5t13.5 32.5zM241 541q0 19 -13.5 32.5t-32.5 13.5t-32.5 -13.5t-13.5 -32.5t13.5 -32.5t32.5 -13.5t32.5 13.5t13.5 32.5zM241 442q0 19 -13.5 32.5t-32.5 13.5t-32.5 -13.5
t-13.5 -32.5t13.5 -32.5t32.5 -13.5t32.5 13.5t13.5 32.5zM241 343q0 19 -13.5 32.5t-32.5 13.5t-32.5 -13.5t-13.5 -32.5t13.5 -32.5t32.5 -13.5t32.5 13.5t13.5 32.5zM241 244q0 19 -13.5 32.5t-32.5 13.5t-32.5 -13.5t-13.5 -32.5t13.5 -32.5t32.5 -13.5t32.5 13.5
t13.5 32.5zM241 145q0 19 -13.5 32.5t-32.5 13.5t-32.5 -13.5t-13.5 -32.5t13.5 -32.5t32.5 -13.5t32.5 13.5t13.5 32.5zM241 46q0 19 -13.5 32.5t-32.5 13.5t-32.5 -13.5t-13.5 -32.5t13.5 -32.5t32.5 -13.5t32.5 13.5t13.5 32.5zM241 -53q0 20 -13.5 33t-32.5 13
t-32.5 -13t-13.5 -33q0 -19 13.5 -32.5t32.5 -13.5t32.5 13.5t13.5 32.5z" />
    <glyph glyph-name="braceright" unicode="}" horiz-adv-x="390" 
d="M142 640q0 19 -13.5 32.5t-32.5 13.5t-32.5 -13.5t-13.5 -32.5t13.5 -32.5t32.5 -13.5t32.5 13.5t13.5 32.5zM241 541q0 19 -13.5 32.5t-32.5 13.5t-32.5 -13.5t-13.5 -32.5t13.5 -32.5t32.5 -13.5t32.5 13.5t13.5 32.5zM241 442q0 19 -13.5 32.5t-32.5 13.5t-32.5 -13.5
t-13.5 -32.5t13.5 -32.5t32.5 -13.5t32.5 13.5t13.5 32.5zM340 343q0 19 -13.5 32.5t-32.5 13.5q-20 0 -33 -13.5t-13 -32.5t13 -32.5t33 -13.5q19 0 32.5 13.5t13.5 32.5zM241 244q0 19 -13.5 32.5t-32.5 13.5t-32.5 -13.5t-13.5 -32.5t13.5 -32.5t32.5 -13.5t32.5 13.5
t13.5 32.5zM241 145q0 19 -13.5 32.5t-32.5 13.5t-32.5 -13.5t-13.5 -32.5t13.5 -32.5t32.5 -13.5t32.5 13.5t13.5 32.5zM142 46q0 19 -13.5 32.5t-32.5 13.5t-32.5 -13.5t-13.5 -32.5t13.5 -32.5t32.5 -13.5t32.5 13.5t13.5 32.5z" />
    <glyph glyph-name="asciitilde" unicode="~" 
d="M538 739q0 19 -13.5 32.5t-32.5 13.5q-20 0 -33 -13.5t-13 -32.5t13 -32.5t33 -13.5q19 0 32.5 13.5t13.5 32.5zM439 640q0 19 -13.5 32.5t-32.5 13.5q-20 0 -33 -13.5t-13 -32.5t13 -32.5t33 -13.5q19 0 32.5 13.5t13.5 32.5zM241 739q0 19 -13.5 32.5t-32.5 13.5
t-32.5 -13.5t-13.5 -32.5t13.5 -32.5t32.5 -13.5t32.5 13.5t13.5 32.5zM340 640q0 19 -13.5 32.5t-32.5 13.5t-32.5 -13.5t-13.5 -32.5t13.5 -32.5t32.5 -13.5t32.5 13.5t13.5 32.5zM142 640q0 19 -13.5 32.5t-32.5 13.5t-32.5 -13.5t-13.5 -32.5t13.5 -32.5t32.5 -13.5
t32.5 13.5t13.5 32.5z" />
    <glyph glyph-name="nonbreakingspace" unicode="&#xa0;" 
 />
    <glyph glyph-name="exclamdown" unicode="&#xa1;" horiz-adv-x="390" 
d="M241 640q0 19 -13.5 32.5t-32.5 13.5t-32.5 -13.5t-13.5 -32.5t13.5 -32.5t32.5 -13.5t32.5 13.5t13.5 32.5zM241 442q0 19 -13.5 32.5t-32.5 13.5t-32.5 -13.5t-13.5 -32.5t13.5 -32.5t32.5 -13.5t32.5 13.5t13.5 32.5zM241 343q0 19 -13.5 32.5t-32.5 13.5t-32.5 -13.5
t-13.5 -32.5t13.5 -32.5t32.5 -13.5t32.5 13.5t13.5 32.5zM241 244q0 19 -13.5 32.5t-32.5 13.5t-32.5 -13.5t-13.5 -32.5t13.5 -32.5t32.5 -13.5t32.5 13.5t13.5 32.5zM241 145q0 19 -13.5 32.5t-32.5 13.5t-32.5 -13.5t-13.5 -32.5t13.5 -32.5t32.5 -13.5t32.5 13.5
t13.5 32.5zM241 46q0 19 -13.5 32.5t-32.5 13.5t-32.5 -13.5t-13.5 -32.5t13.5 -32.5t32.5 -13.5t32.5 13.5t13.5 32.5z" />
    <glyph glyph-name="cent" unicode="&#xa2;" 
d="M340 640q0 19 -13.5 32.5t-32.5 13.5t-32.5 -13.5t-13.5 -32.5t13.5 -32.5t32.5 -13.5t32.5 13.5t13.5 32.5zM439 541q0 19 -13.5 32.5t-32.5 13.5q-20 0 -33 -13.5t-13 -32.5t13 -32.5t33 -13.5q19 0 32.5 13.5t13.5 32.5zM538 442q0 19 -13.5 32.5t-32.5 13.5
q-20 0 -33 -13.5t-13 -32.5t13 -32.5t33 -13.5q19 0 32.5 13.5t13.5 32.5zM340 541q0 19 -13.5 32.5t-32.5 13.5t-32.5 -13.5t-13.5 -32.5t13.5 -32.5t32.5 -13.5t32.5 13.5t13.5 32.5zM241 541q0 19 -13.5 32.5t-32.5 13.5t-32.5 -13.5t-13.5 -32.5t13.5 -32.5t32.5 -13.5
t32.5 13.5t13.5 32.5zM538 145q0 19 -13.5 32.5t-32.5 13.5q-20 0 -33 -13.5t-13 -32.5t13 -32.5t33 -13.5q19 0 32.5 13.5t13.5 32.5zM142 442q0 19 -13.5 32.5t-32.5 13.5t-32.5 -13.5t-13.5 -32.5t13.5 -32.5t32.5 -13.5t32.5 13.5t13.5 32.5zM439 145q0 19 -13.5 32.5
t-32.5 13.5q-20 0 -33 -13.5t-13 -32.5t13 -32.5t33 -13.5q19 0 32.5 13.5t13.5 32.5zM142 343q0 19 -13.5 32.5t-32.5 13.5t-32.5 -13.5t-13.5 -32.5t13.5 -32.5t32.5 -13.5t32.5 13.5t13.5 32.5zM340 145q0 19 -13.5 32.5t-32.5 13.5t-32.5 -13.5t-13.5 -32.5t13.5 -32.5
t32.5 -13.5t32.5 13.5t13.5 32.5zM142 244q0 19 -13.5 32.5t-32.5 13.5t-32.5 -13.5t-13.5 -32.5t13.5 -32.5t32.5 -13.5t32.5 13.5t13.5 32.5zM241 145q0 19 -13.5 32.5t-32.5 13.5t-32.5 -13.5t-13.5 -32.5t13.5 -32.5t32.5 -13.5t32.5 13.5t13.5 32.5zM340 46
q0 19 -13.5 32.5t-32.5 13.5t-32.5 -13.5t-13.5 -32.5t13.5 -32.5t32.5 -13.5t32.5 13.5t13.5 32.5z" />
    <glyph glyph-name="sterling" unicode="&#xa3;" 
d="M439 640q0 19 -13.5 32.5t-32.5 13.5q-20 0 -33 -13.5t-13 -32.5t13 -32.5t33 -13.5q19 0 32.5 13.5t13.5 32.5zM340 640q0 19 -13.5 32.5t-32.5 13.5t-32.5 -13.5t-13.5 -32.5t13.5 -32.5t32.5 -13.5t32.5 13.5t13.5 32.5zM241 541q0 19 -13.5 32.5t-32.5 13.5
t-32.5 -13.5t-13.5 -32.5t13.5 -32.5t32.5 -13.5t32.5 13.5t13.5 32.5zM439 343q0 19 -13.5 32.5t-32.5 13.5q-20 0 -33 -13.5t-13 -32.5t13 -32.5t33 -13.5q19 0 32.5 13.5t13.5 32.5zM241 442q0 19 -13.5 32.5t-32.5 13.5t-32.5 -13.5t-13.5 -32.5t13.5 -32.5t32.5 -13.5
t32.5 13.5t13.5 32.5zM340 343q0 19 -13.5 32.5t-32.5 13.5t-32.5 -13.5t-13.5 -32.5t13.5 -32.5t32.5 -13.5t32.5 13.5t13.5 32.5zM241 343q0 19 -13.5 32.5t-32.5 13.5t-32.5 -13.5t-13.5 -32.5t13.5 -32.5t32.5 -13.5t32.5 13.5t13.5 32.5zM538 46q0 19 -13.5 32.5
t-32.5 13.5q-20 0 -33 -13.5t-13 -32.5t13 -32.5t33 -13.5q19 0 32.5 13.5t13.5 32.5zM142 343q0 19 -13.5 32.5t-32.5 13.5t-32.5 -13.5t-13.5 -32.5t13.5 -32.5t32.5 -13.5t32.5 13.5t13.5 32.5zM241 244q0 19 -13.5 32.5t-32.5 13.5t-32.5 -13.5t-13.5 -32.5t13.5 -32.5
t32.5 -13.5t32.5 13.5t13.5 32.5zM439 46q0 19 -13.5 32.5t-32.5 13.5q-20 0 -33 -13.5t-13 -32.5t13 -32.5t33 -13.5q19 0 32.5 13.5t13.5 32.5zM241 145q0 19 -13.5 32.5t-32.5 13.5t-32.5 -13.5t-13.5 -32.5t13.5 -32.5t32.5 -13.5t32.5 13.5t13.5 32.5zM340 46
q0 19 -13.5 32.5t-32.5 13.5t-32.5 -13.5t-13.5 -32.5t13.5 -32.5t32.5 -13.5t32.5 13.5t13.5 32.5zM241 46q0 19 -13.5 32.5t-32.5 13.5t-32.5 -13.5t-13.5 -32.5t13.5 -32.5t32.5 -13.5t32.5 13.5t13.5 32.5zM142 46q0 19 -13.5 32.5t-32.5 13.5t-32.5 -13.5t-13.5 -32.5
t13.5 -32.5t32.5 -13.5t32.5 13.5t13.5 32.5z" />
    <glyph glyph-name="currency" unicode="&#xa4;" 
d="M538 541q0 19 -13.5 32.5t-32.5 13.5q-20 0 -33 -13.5t-13 -32.5t13 -32.5t33 -13.5q19 0 32.5 13.5t13.5 32.5zM439 442q0 19 -13.5 32.5t-32.5 13.5q-20 0 -33 -13.5t-13 -32.5t13 -32.5t33 -13.5q19 0 32.5 13.5t13.5 32.5zM340 442q0 19 -13.5 32.5t-32.5 13.5
t-32.5 -13.5t-13.5 -32.5t13.5 -32.5t32.5 -13.5t32.5 13.5t13.5 32.5zM439 343q0 19 -13.5 32.5t-32.5 13.5q-20 0 -33 -13.5t-13 -32.5t13 -32.5t33 -13.5q19 0 32.5 13.5t13.5 32.5zM142 541q0 19 -13.5 32.5t-32.5 13.5t-32.5 -13.5t-13.5 -32.5t13.5 -32.5t32.5 -13.5
t32.5 13.5t13.5 32.5zM241 442q0 19 -13.5 32.5t-32.5 13.5t-32.5 -13.5t-13.5 -32.5t13.5 -32.5t32.5 -13.5t32.5 13.5t13.5 32.5zM439 244q0 19 -13.5 32.5t-32.5 13.5q-20 0 -33 -13.5t-13 -32.5t13 -32.5t33 -13.5q19 0 32.5 13.5t13.5 32.5zM538 145q0 19 -13.5 32.5
t-32.5 13.5q-20 0 -33 -13.5t-13 -32.5t13 -32.5t33 -13.5q19 0 32.5 13.5t13.5 32.5zM241 343q0 19 -13.5 32.5t-32.5 13.5t-32.5 -13.5t-13.5 -32.5t13.5 -32.5t32.5 -13.5t32.5 13.5t13.5 32.5zM340 244q0 19 -13.5 32.5t-32.5 13.5t-32.5 -13.5t-13.5 -32.5t13.5 -32.5
t32.5 -13.5t32.5 13.5t13.5 32.5zM241 244q0 19 -13.5 32.5t-32.5 13.5t-32.5 -13.5t-13.5 -32.5t13.5 -32.5t32.5 -13.5t32.5 13.5t13.5 32.5zM142 145q0 19 -13.5 32.5t-32.5 13.5t-32.5 -13.5t-13.5 -32.5t13.5 -32.5t32.5 -13.5t32.5 13.5t13.5 32.5z" />
    <glyph glyph-name="yen" unicode="&#xa5;" 
d="M538 640q0 19 -13.5 32.5t-32.5 13.5q-20 0 -33 -13.5t-13 -32.5t13 -32.5t33 -13.5q19 0 32.5 13.5t13.5 32.5zM538 541q0 19 -13.5 32.5t-32.5 13.5q-20 0 -33 -13.5t-13 -32.5t13 -32.5t33 -13.5q19 0 32.5 13.5t13.5 32.5zM538 343q0 19 -13.5 32.5t-32.5 13.5
q-20 0 -33 -13.5t-13 -32.5t13 -31t33 -12q19 0 32.5 12t13.5 31zM439 442q0 19 -13.5 32.5t-32.5 13.5q-20 0 -33 -13.5t-13 -32.5t13 -32.5t33 -13.5q19 0 32.5 13.5t13.5 32.5zM439 343q0 19 -13.5 32.5t-32.5 13.5q-20 0 -33 -13.5t-13 -32.5t13 -31t33 -12
q19 0 32.5 12t13.5 31zM142 640q0 19 -13.5 32.5t-32.5 13.5t-32.5 -13.5t-13.5 -32.5t13.5 -32.5t32.5 -13.5t32.5 13.5t13.5 32.5zM142 541q0 19 -13.5 32.5t-32.5 13.5t-32.5 -13.5t-13.5 -32.5t13.5 -32.5t32.5 -13.5t32.5 13.5t13.5 32.5zM241 442q0 19 -13.5 32.5
t-32.5 13.5t-32.5 -13.5t-13.5 -32.5t13.5 -32.5t32.5 -13.5t32.5 13.5t13.5 32.5zM340 343q0 19 -13.5 32.5t-32.5 13.5t-32.5 -13.5t-13.5 -32.5t13.5 -32.5t32.5 -13.5t32.5 13.5t13.5 32.5zM538 145q0 19 -13.5 32.5t-32.5 13.5q-20 0 -33 -13.5t-13 -32.5t13 -32.5
t33 -13.5q19 0 32.5 13.5t13.5 32.5zM241 343q0 19 -13.5 32.5t-32.5 13.5t-32.5 -13.5t-13.5 -32.5t13.5 -32.5t32.5 -13.5t32.5 13.5t13.5 32.5zM340 244q0 19 -13.5 32.5t-32.5 13.5t-32.5 -13.5t-13.5 -32.5t13.5 -32.5t32.5 -13.5t32.5 13.5t13.5 32.5zM439 145
q0 19 -13.5 32.5t-32.5 13.5q-20 0 -33 -13.5t-13 -32.5t13 -32.5t33 -13.5q19 0 32.5 13.5t13.5 32.5zM142 343q0 19 -13.5 32.5t-32.5 13.5t-32.5 -13.5t-13.5 -32.5t13.5 -32.5t32.5 -13.5t32.5 13.5t13.5 32.5zM340 145q0 19 -13.5 32.5t-32.5 13.5t-32.5 -13.5
t-13.5 -32.5t13.5 -32.5t32.5 -13.5t32.5 13.5t13.5 32.5zM241 145q0 19 -13.5 32.5t-32.5 13.5t-32.5 -13.5t-13.5 -32.5t13.5 -32.5t32.5 -13.5t32.5 13.5t13.5 32.5zM340 46q0 19 -13.5 32.5t-32.5 13.5t-32.5 -13.5t-13.5 -32.5t13.5 -32.5t32.5 -13.5t32.5 13.5
t13.5 32.5zM142 145q0 19 -13.5 32.5t-32.5 13.5t-32.5 -13.5t-13.5 -32.5t13.5 -32.5t32.5 -13.5t32.5 13.5t13.5 32.5z" />
    <glyph glyph-name="brokenbar" unicode="&#xa6;" horiz-adv-x="199" 
d="M142 640q0 19 -13.5 32.5t-32.5 13.5t-32.5 -13.5t-13.5 -32.5t13.5 -32.5t32.5 -13.5t32.5 13.5t13.5 32.5zM142 541q0 19 -13.5 32.5t-32.5 13.5t-32.5 -13.5t-13.5 -32.5t13.5 -32.5t32.5 -13.5t32.5 13.5t13.5 32.5zM142 442q0 19 -13.5 32.5t-32.5 13.5t-32.5 -13.5
t-13.5 -32.5t13.5 -32.5t32.5 -13.5t32.5 13.5t13.5 32.5zM142 244q0 19 -13.5 32.5t-32.5 13.5t-32.5 -13.5t-13.5 -32.5t13.5 -32.5t32.5 -13.5t32.5 13.5t13.5 32.5zM142 145q0 19 -13.5 32.5t-32.5 13.5t-32.5 -13.5t-13.5 -32.5t13.5 -32.5t32.5 -13.5t32.5 13.5
t13.5 32.5zM142 46q0 19 -13.5 32.5t-32.5 13.5t-32.5 -13.5t-13.5 -32.5t13.5 -32.5t32.5 -13.5t32.5 13.5t13.5 32.5z" />
    <glyph glyph-name="section" unicode="&#xa7;" 
d="M538 640q0 19 -13.5 32.5t-32.5 13.5q-20 0 -33 -13.5t-13 -32.5t13 -32.5t33 -13.5q19 0 32.5 13.5t13.5 32.5zM439 640q0 19 -13.5 32.5t-32.5 13.5q-20 0 -33 -13.5t-13 -32.5t13 -32.5t33 -13.5q19 0 32.5 13.5t13.5 32.5zM340 640q0 19 -13.5 32.5t-32.5 13.5
t-32.5 -13.5t-13.5 -32.5t13.5 -32.5t32.5 -13.5t32.5 13.5t13.5 32.5zM241 640q0 19 -13.5 32.5t-32.5 13.5t-32.5 -13.5t-13.5 -32.5t13.5 -32.5t32.5 -13.5t32.5 13.5t13.5 32.5zM439 442q0 19 -13.5 32.5t-32.5 13.5q-20 0 -33 -13.5t-13 -32.5t13 -32.5t33 -13.5
q19 0 32.5 13.5t13.5 32.5zM538 343q0 19 -13.5 32.5t-32.5 13.5q-20 0 -33 -13.5t-13 -32.5t13 -32.5t33 -13.5q19 0 32.5 13.5t13.5 32.5zM340 442q0 19 -13.5 32.5t-32.5 13.5t-32.5 -13.5t-13.5 -32.5t13.5 -32.5t32.5 -13.5t32.5 13.5t13.5 32.5zM142 541
q0 19 -13.5 32.5t-32.5 13.5t-32.5 -13.5t-13.5 -32.5t13.5 -32.5t32.5 -13.5t32.5 13.5t13.5 32.5zM241 442q0 19 -13.5 32.5t-32.5 13.5t-32.5 -13.5t-13.5 -32.5t13.5 -32.5t32.5 -13.5t32.5 13.5t13.5 32.5zM439 244q0 19 -13.5 32.5t-32.5 13.5q-20 0 -33 -13.5
t-13 -32.5t13 -32.5t33 -13.5q19 0 32.5 13.5t13.5 32.5zM538 145q0 19 -13.5 32.5t-32.5 13.5q-20 0 -33 -13.5t-13 -32.5t13 -32.5t33 -13.5q19 0 32.5 13.5t13.5 32.5zM340 244q0 19 -13.5 32.5t-32.5 13.5t-32.5 -13.5t-13.5 -32.5t13.5 -32.5t32.5 -13.5t32.5 13.5
t13.5 32.5zM142 343q0 19 -13.5 32.5t-32.5 13.5t-32.5 -13.5t-13.5 -32.5t13.5 -32.5t32.5 -13.5t32.5 13.5t13.5 32.5zM241 244q0 19 -13.5 32.5t-32.5 13.5t-32.5 -13.5t-13.5 -32.5t13.5 -32.5t32.5 -13.5t32.5 13.5t13.5 32.5zM439 46q0 19 -13.5 32.5t-32.5 13.5
q-20 0 -33 -13.5t-13 -32.5t13 -32.5t33 -13.5q19 0 32.5 13.5t13.5 32.5zM340 46q0 19 -13.5 32.5t-32.5 13.5t-32.5 -13.5t-13.5 -32.5t13.5 -32.5t32.5 -13.5t32.5 13.5t13.5 32.5zM241 46q0 19 -13.5 32.5t-32.5 13.5t-32.5 -13.5t-13.5 -32.5t13.5 -32.5t32.5 -13.5
t32.5 13.5t13.5 32.5zM142 46q0 19 -13.5 32.5t-32.5 13.5t-32.5 -13.5t-13.5 -32.5t13.5 -32.5t32.5 -13.5t32.5 13.5t13.5 32.5z" />
    <glyph glyph-name="dieresis" unicode="&#xa8;" 
d="M439 640q0 19 -13.5 32.5t-32.5 13.5q-20 0 -33 -13.5t-13 -32.5t13 -32.5t33 -13.5q19 0 32.5 13.5t13.5 32.5zM241 640q0 19 -13.5 32.5t-32.5 13.5t-32.5 -13.5t-13.5 -32.5t13.5 -32.5t32.5 -13.5t32.5 13.5t13.5 32.5z" />
    <glyph glyph-name="copyright" unicode="&#xa9;" 
d="M439 640q0 19 -13.5 32.5t-32.5 13.5q-20 0 -33 -13.5t-13 -32.5t13 -32.5t33 -13.5q19 0 32.5 13.5t13.5 32.5zM538 541q0 19 -13.5 32.5t-32.5 13.5q-20 0 -33 -13.5t-13 -32.5t13 -32.5t33 -13.5q19 0 32.5 13.5t13.5 32.5zM340 640q0 19 -13.5 32.5t-32.5 13.5
t-32.5 -13.5t-13.5 -32.5t13.5 -32.5t32.5 -13.5t32.5 13.5t13.5 32.5zM241 640q0 19 -13.5 32.5t-32.5 13.5t-32.5 -13.5t-13.5 -32.5t13.5 -32.5t32.5 -13.5t32.5 13.5t13.5 32.5zM439 442q0 19 -13.5 32.5t-32.5 13.5q-20 0 -33 -13.5t-13 -32.5t13 -32.5t33 -13.5
q19 0 32.5 13.5t13.5 32.5zM340 442q0 19 -13.5 32.5t-32.5 13.5t-32.5 -13.5t-13.5 -32.5t13.5 -32.5t32.5 -13.5t32.5 13.5t13.5 32.5zM142 541q0 19 -13.5 32.5t-32.5 13.5t-32.5 -13.5t-13.5 -32.5t13.5 -32.5t32.5 -13.5t32.5 13.5t13.5 32.5zM241 442q0 19 -13.5 32.5
t-32.5 13.5t-32.5 -13.5t-13.5 -32.5t13.5 -32.5t32.5 -13.5t32.5 13.5t13.5 32.5zM439 244q0 19 -13.5 32.5t-32.5 13.5q-20 0 -33 -13.5t-13 -32.5t13 -32.5t33 -13.5q19 0 32.5 13.5t13.5 32.5zM538 145q0 19 -13.5 32.5t-32.5 13.5q-20 0 -33 -13.5t-13 -32.5t13 -32.5
t33 -13.5q19 0 32.5 13.5t13.5 32.5zM241 343q0 19 -13.5 32.5t-32.5 13.5t-32.5 -13.5t-13.5 -32.5t13.5 -32.5t32.5 -13.5t32.5 13.5t13.5 32.5zM340 244q0 19 -13.5 32.5t-32.5 13.5t-32.5 -13.5t-13.5 -32.5t13.5 -32.5t32.5 -13.5t32.5 13.5t13.5 32.5zM241 244
q0 19 -13.5 32.5t-32.5 13.5t-32.5 -13.5t-13.5 -32.5t13.5 -32.5t32.5 -13.5t32.5 13.5t13.5 32.5zM439 46q0 19 -13.5 32.5t-32.5 13.5q-20 0 -33 -13.5t-13 -32.5t13 -32.5t33 -13.5q19 0 32.5 13.5t13.5 32.5zM340 46q0 19 -13.5 32.5t-32.5 13.5t-32.5 -13.5
t-13.5 -32.5t13.5 -32.5t32.5 -13.5t32.5 13.5t13.5 32.5zM142 145q0 19 -13.5 32.5t-32.5 13.5t-32.5 -13.5t-13.5 -32.5t13.5 -32.5t32.5 -13.5t32.5 13.5t13.5 32.5zM241 46q0 19 -13.5 32.5t-32.5 13.5t-32.5 -13.5t-13.5 -32.5t13.5 -32.5t32.5 -13.5t32.5 13.5
t13.5 32.5z" />
    <glyph glyph-name="ordfeminine" unicode="&#xaa;" horiz-adv-x="489" 
d="M340 640q0 19 -13.5 32.5t-32.5 13.5t-32.5 -13.5t-13.5 -32.5t13.5 -32.5t32.5 -13.5t32.5 13.5t13.5 32.5zM241 640q0 19 -13.5 32.5t-32.5 13.5t-32.5 -13.5t-13.5 -32.5t13.5 -32.5t32.5 -13.5t32.5 13.5t13.5 32.5zM340 541q0 19 -13.5 32.5t-32.5 13.5t-32.5 -13.5
t-13.5 -32.5t13.5 -32.5t32.5 -13.5t32.5 13.5t13.5 32.5zM439 442q0 19 -13.5 32.5t-32.5 13.5q-20 0 -33 -13.5t-13 -32.5t13 -32.5t33 -13.5q19 0 32.5 13.5t13.5 32.5zM340 442q0 19 -13.5 32.5t-32.5 13.5t-32.5 -13.5t-13.5 -32.5t13.5 -32.5t32.5 -13.5t32.5 13.5
t13.5 32.5zM142 541q0 19 -13.5 32.5t-32.5 13.5t-32.5 -13.5t-13.5 -32.5t13.5 -32.5t32.5 -13.5t32.5 13.5t13.5 32.5zM241 442q0 19 -13.5 32.5t-32.5 13.5t-32.5 -13.5t-13.5 -32.5t13.5 -32.5t32.5 -13.5t32.5 13.5t13.5 32.5zM439 244q0 19 -13.5 32.5t-32.5 13.5
q-20 0 -33 -13.5t-13 -32.5t13 -32.5t33 -13.5q19 0 32.5 13.5t13.5 32.5zM340 244q0 19 -13.5 32.5t-32.5 13.5t-32.5 -13.5t-13.5 -32.5t13.5 -32.5t32.5 -13.5t32.5 13.5t13.5 32.5zM241 244q0 19 -13.5 32.5t-32.5 13.5t-32.5 -13.5t-13.5 -32.5t13.5 -32.5t32.5 -13.5
t32.5 13.5t13.5 32.5zM142 244q0 19 -13.5 32.5t-32.5 13.5t-32.5 -13.5t-13.5 -32.5t13.5 -32.5t32.5 -13.5t32.5 13.5t13.5 32.5z" />
    <glyph glyph-name="guillemotleft" unicode="&#xab;" 
d="M538 442q0 19 -13.5 32.5t-32.5 13.5q-20 0 -33 -13.5t-13 -32.5t13 -32.5t33 -13.5q19 0 32.5 13.5t13.5 32.5zM439 343q0 19 -13.5 32.5t-32.5 13.5q-20 0 -33 -13.5t-13 -32.5t13 -32.5t33 -13.5q19 0 32.5 13.5t13.5 32.5zM538 244q0 19 -13.5 32.5t-32.5 13.5
q-20 0 -33 -13.5t-13 -32.5t13 -32.5t33 -13.5q19 0 32.5 13.5t13.5 32.5zM241 442q0 19 -13.5 32.5t-32.5 13.5t-32.5 -13.5t-13.5 -32.5t13.5 -32.5t32.5 -13.5t32.5 13.5t13.5 32.5zM142 343q0 19 -13.5 32.5t-32.5 13.5t-32.5 -13.5t-13.5 -32.5t13.5 -32.5t32.5 -13.5
t32.5 13.5t13.5 32.5zM241 244q0 19 -13.5 32.5t-32.5 13.5t-32.5 -13.5t-13.5 -32.5t13.5 -32.5t32.5 -13.5t32.5 13.5t13.5 32.5z" />
    <glyph glyph-name="logicalnot" unicode="&#xac;" horiz-adv-x="489" 
d="M439 343q0 19 -13.5 32.5t-32.5 13.5q-20 0 -33 -13.5t-13 -32.5t13 -32.5t33 -13.5q19 0 32.5 13.5t13.5 32.5zM340 343q0 19 -13.5 32.5t-32.5 13.5q-20 0 -33 -13.5t-13 -32.5t13 -32.5t33 -13.5q19 0 32.5 13.5t13.5 32.5zM439 244q0 19 -13.5 32.5t-32.5 13.5
q-20 0 -33 -13.5t-13 -32.5t13 -32.5t33 -13.5q19 0 32.5 13.5t13.5 32.5zM241 343q0 19 -13.5 32.5t-32.5 13.5t-32.5 -13.5t-13.5 -32.5t13.5 -32.5t32.5 -13.5t32.5 13.5t13.5 32.5zM142 343q0 19 -13.5 32.5t-32.5 13.5t-32.5 -13.5t-13.5 -32.5t13.5 -32.5t32.5 -13.5
t32.5 13.5t13.5 32.5z" />
    <glyph glyph-name="minus" unicode="&#xad;" 
d="M538 343q0 19 -13.5 32.5t-32.5 13.5q-20 0 -33 -13.5t-13 -32.5t13 -32.5t33 -13.5q19 0 32.5 13.5t13.5 32.5zM439 343q0 19 -13.5 32.5t-32.5 13.5q-20 0 -33 -13.5t-13 -32.5t13 -32.5t33 -13.5q19 0 32.5 13.5t13.5 32.5zM340 343q0 19 -13.5 32.5t-32.5 13.5
t-32.5 -13.5t-13.5 -32.5t13.5 -32.5t32.5 -13.5t32.5 13.5t13.5 32.5zM241 343q0 19 -13.5 32.5t-32.5 13.5t-32.5 -13.5t-13.5 -32.5t13.5 -32.5t32.5 -13.5t32.5 13.5t13.5 32.5zM142 343q0 19 -13.5 32.5t-32.5 13.5t-32.5 -13.5t-13.5 -32.5t13.5 -32.5t32.5 -13.5
t32.5 13.5t13.5 32.5z" />
    <glyph glyph-name="registered" unicode="&#xae;" 
d="M439 640q0 19 -13.5 32.5t-32.5 13.5q-20 0 -33 -13.5t-13 -32.5t13 -32.5t33 -13.5q19 0 32.5 13.5t13.5 32.5zM538 541q0 19 -13.5 32.5t-32.5 13.5q-20 0 -33 -13.5t-13 -32.5t13 -32.5t33 -13.5q19 0 32.5 13.5t13.5 32.5zM340 640q0 19 -13.5 32.5t-32.5 13.5
t-32.5 -13.5t-13.5 -32.5t13.5 -32.5t32.5 -13.5t32.5 13.5t13.5 32.5zM241 640q0 19 -13.5 32.5t-32.5 13.5t-32.5 -13.5t-13.5 -32.5t13.5 -32.5t32.5 -13.5t32.5 13.5t13.5 32.5zM439 442q0 19 -13.5 32.5t-32.5 13.5q-20 0 -33 -13.5t-13 -32.5t13 -32.5t33 -13.5
q19 0 32.5 13.5t13.5 32.5zM340 442q0 19 -13.5 32.5t-32.5 13.5t-32.5 -13.5t-13.5 -32.5t13.5 -32.5t32.5 -13.5t32.5 13.5t13.5 32.5zM142 541q0 19 -13.5 32.5t-32.5 13.5t-32.5 -13.5t-13.5 -32.5t13.5 -32.5t32.5 -13.5t32.5 13.5t13.5 32.5zM241 442q0 19 -13.5 32.5
t-32.5 13.5t-32.5 -13.5t-13.5 -32.5t13.5 -32.5t32.5 -13.5t32.5 13.5t13.5 32.5zM538 145q0 19 -13.5 32.5t-32.5 13.5q-20 0 -33 -13.5t-13 -32.5t13 -32.5t33 -13.5q19 0 32.5 13.5t13.5 32.5zM241 343q0 19 -13.5 32.5t-32.5 13.5t-32.5 -13.5t-13.5 -32.5t13.5 -32.5
t32.5 -13.5t32.5 13.5t13.5 32.5zM241 244q0 19 -13.5 32.5t-32.5 13.5t-32.5 -13.5t-13.5 -32.5t13.5 -32.5t32.5 -13.5t32.5 13.5t13.5 32.5zM439 46q0 19 -13.5 32.5t-32.5 13.5q-20 0 -33 -13.5t-13 -32.5t13 -32.5t33 -13.5q19 0 32.5 13.5t13.5 32.5zM340 46
q0 19 -13.5 32.5t-32.5 13.5t-32.5 -13.5t-13.5 -32.5t13.5 -32.5t32.5 -13.5t32.5 13.5t13.5 32.5zM142 145q0 19 -13.5 32.5t-32.5 13.5t-32.5 -13.5t-13.5 -32.5t13.5 -32.5t32.5 -13.5t32.5 13.5t13.5 32.5zM241 46q0 19 -13.5 32.5t-32.5 13.5t-32.5 -13.5t-13.5 -32.5
t13.5 -32.5t32.5 -13.5t32.5 13.5t13.5 32.5z" />
    <glyph glyph-name="macron" unicode="&#xaf;" horiz-adv-x="390" 
d="M340 640q0 19 -13.5 32.5t-32.5 13.5t-32.5 -13.5t-13.5 -32.5t13.5 -32.5t32.5 -13.5t32.5 13.5t13.5 32.5zM241 640q0 19 -13.5 32.5t-32.5 13.5t-32.5 -13.5t-13.5 -32.5t13.5 -32.5t32.5 -13.5t32.5 13.5t13.5 32.5zM142 640q0 19 -13.5 32.5t-32.5 13.5t-32.5 -13.5
t-13.5 -32.5t13.5 -32.5t32.5 -13.5t32.5 13.5t13.5 32.5z" />
    <glyph glyph-name="degree" unicode="&#xb0;" horiz-adv-x="390" 
d="M340 838q0 19 -13.5 32.5t-32.5 13.5q-20 0 -33 -13.5t-13 -32.5t13 -32.5t33 -13.5q19 0 32.5 13.5t13.5 32.5zM241 838q0 19 -13.5 32.5t-32.5 13.5t-32.5 -13.5t-13.5 -32.5t13.5 -32.5t32.5 -13.5t32.5 13.5t13.5 32.5zM340 739q0 19 -13.5 32.5t-32.5 13.5
q-20 0 -33 -13.5t-13 -32.5t13 -32.5t33 -13.5q19 0 32.5 13.5t13.5 32.5zM142 838q0 19 -13.5 32.5t-32.5 13.5t-32.5 -13.5t-13.5 -32.5t13.5 -32.5t32.5 -13.5t32.5 13.5t13.5 32.5zM340 640q0 19 -13.5 32.5t-32.5 13.5q-20 0 -33 -13.5t-13 -32.5t13 -32.5t33 -13.5
q19 0 32.5 13.5t13.5 32.5zM142 739q0 19 -13.5 32.5t-32.5 13.5t-32.5 -13.5t-13.5 -32.5t13.5 -32.5t32.5 -13.5t32.5 13.5t13.5 32.5zM241 640q0 19 -13.5 32.5t-32.5 13.5t-32.5 -13.5t-13.5 -32.5t13.5 -32.5t32.5 -13.5t32.5 13.5t13.5 32.5zM142 640q0 19 -13.5 32.5
t-32.5 13.5t-32.5 -13.5t-13.5 -32.5t13.5 -32.5t32.5 -13.5t32.5 13.5t13.5 32.5z" />
    <glyph glyph-name="plusminus" unicode="&#xb1;" 
d="M340 640q0 19 -13.5 32.5t-32.5 13.5t-32.5 -13.5t-13.5 -32.5t13.5 -32.5t32.5 -13.5t32.5 13.5t13.5 32.5zM538 442q0 19 -13.5 32.5t-32.5 13.5q-20 0 -33 -13.5t-13 -32.5t13 -32.5t33 -13.5q19 0 32.5 13.5t13.5 32.5zM340 541q0 19 -13.5 32.5t-32.5 13.5
t-32.5 -13.5t-13.5 -32.5t13.5 -32.5t32.5 -13.5t32.5 13.5t13.5 32.5zM439 442q0 19 -13.5 32.5t-32.5 13.5q-20 0 -33 -13.5t-13 -32.5t13 -32.5t33 -13.5q19 0 32.5 13.5t13.5 32.5zM340 442q0 19 -13.5 32.5t-32.5 13.5t-32.5 -13.5t-13.5 -32.5t13.5 -32.5t32.5 -13.5
t32.5 13.5t13.5 32.5zM241 442q0 19 -13.5 32.5t-32.5 13.5t-32.5 -13.5t-13.5 -32.5t13.5 -32.5t32.5 -13.5t32.5 13.5t13.5 32.5zM340 343q0 19 -13.5 32.5t-32.5 13.5t-32.5 -13.5t-13.5 -32.5t13.5 -32.5t32.5 -13.5t32.5 13.5t13.5 32.5zM142 442q0 19 -13.5 32.5
t-32.5 13.5t-32.5 -13.5t-13.5 -32.5t13.5 -32.5t32.5 -13.5t32.5 13.5t13.5 32.5zM340 244q0 19 -13.5 32.5t-32.5 13.5t-32.5 -13.5t-13.5 -32.5t13.5 -32.5t32.5 -13.5t32.5 13.5t13.5 32.5zM538 46q0 19 -13.5 32.5t-32.5 13.5q-20 0 -33 -13.5t-13 -32.5t13 -32.5
t33 -13.5q19 0 32.5 13.5t13.5 32.5zM439 46q0 19 -13.5 32.5t-32.5 13.5q-20 0 -33 -13.5t-13 -32.5t13 -32.5t33 -13.5q19 0 32.5 13.5t13.5 32.5zM340 46q0 19 -13.5 32.5t-32.5 13.5t-32.5 -13.5t-13.5 -32.5t13.5 -32.5t32.5 -13.5t32.5 13.5t13.5 32.5zM241 46
q0 19 -13.5 32.5t-32.5 13.5t-32.5 -13.5t-13.5 -32.5t13.5 -32.5t32.5 -13.5t32.5 13.5t13.5 32.5zM142 46q0 19 -13.5 32.5t-32.5 13.5t-32.5 -13.5t-13.5 -32.5t13.5 -32.5t32.5 -13.5t32.5 13.5t13.5 32.5z" />
    <glyph glyph-name="acute" unicode="&#xb4;" 
d="M439 640q0 19 -13.5 32.5t-32.5 13.5q-20 0 -33 -13.5t-13 -32.5t13 -32.5t33 -13.5q19 0 32.5 13.5t13.5 32.5zM340 541q0 19 -13.5 32.5t-32.5 13.5t-32.5 -13.5t-13.5 -32.5t13.5 -32.5t32.5 -13.5t32.5 13.5t13.5 32.5z" />
    <glyph glyph-name="mu" unicode="&#xb5;" 
d="M439 640q0 19 -13.5 32.5t-32.5 13.5q-20 0 -33 -13.5t-13 -32.5t13 -32.5t33 -13.5q19 0 32.5 13.5t13.5 32.5zM439 541q0 19 -13.5 32.5t-32.5 13.5q-20 0 -33 -13.5t-13 -32.5t13 -32.5t33 -13.5q19 0 32.5 13.5t13.5 32.5zM439 442q0 19 -13.5 32.5t-32.5 13.5
q-20 0 -33 -13.5t-13 -32.5t13 -32.5t33 -13.5q19 0 32.5 13.5t13.5 32.5zM142 640q0 19 -13.5 32.5t-32.5 13.5t-32.5 -13.5t-13.5 -32.5t13.5 -32.5t32.5 -13.5t32.5 13.5t13.5 32.5zM439 343q0 19 -13.5 32.5t-32.5 13.5q-20 0 -33 -13.5t-13 -32.5t13 -32.5t33 -13.5
q19 0 32.5 13.5t13.5 32.5zM538 244q0 19 -13.5 32.5t-32.5 13.5q-20 0 -33 -13.5t-13 -32.5t13 -32.5t33 -13.5q19 0 32.5 13.5t13.5 32.5zM142 541q0 19 -13.5 32.5t-32.5 13.5t-32.5 -13.5t-13.5 -32.5t13.5 -32.5t32.5 -13.5t32.5 13.5t13.5 32.5zM142 442
q0 19 -13.5 32.5t-32.5 13.5t-32.5 -13.5t-13.5 -32.5t13.5 -32.5t32.5 -13.5t32.5 13.5t13.5 32.5zM340 244q0 19 -13.5 32.5t-32.5 13.5t-32.5 -13.5t-13.5 -32.5t13.5 -32.5t32.5 -13.5t32.5 13.5t13.5 32.5zM142 343q0 19 -13.5 32.5t-32.5 13.5t-32.5 -13.5
t-13.5 -32.5t13.5 -32.5t32.5 -13.5t32.5 13.5t13.5 32.5zM241 244q0 19 -13.5 32.5t-32.5 13.5t-32.5 -13.5t-13.5 -32.5t13.5 -32.5t32.5 -13.5t32.5 13.5t13.5 32.5zM142 244q0 19 -13.5 32.5t-32.5 13.5t-32.5 -13.5t-13.5 -32.5t13.5 -32.5t32.5 -13.5t32.5 13.5
t13.5 32.5zM142 145q0 19 -13.5 32.5t-32.5 13.5t-32.5 -13.5t-13.5 -32.5t13.5 -32.5t32.5 -13.5t32.5 13.5t13.5 32.5zM142 46q0 19 -13.5 32.5t-32.5 13.5t-32.5 -13.5t-13.5 -32.5t13.5 -32.5t32.5 -13.5t32.5 13.5t13.5 32.5z" />
    <glyph glyph-name="paragraph" unicode="&#xb6;" 
d="M538 640q0 19 -13.5 32.5t-32.5 13.5q-20 0 -33 -13.5t-13 -32.5t13 -32.5t33 -13.5q19 0 32.5 13.5t13.5 32.5zM439 640q0 19 -13.5 32.5t-32.5 13.5q-20 0 -33 -13.5t-13 -32.5t13 -32.5t33 -13.5q19 0 32.5 13.5t13.5 32.5zM538 541q0 19 -13.5 32.5t-32.5 13.5
q-20 0 -33 -13.5t-13 -32.5t13 -32.5t33 -13.5q19 0 32.5 13.5t13.5 32.5zM340 640q0 19 -13.5 32.5t-32.5 13.5t-32.5 -13.5t-13.5 -32.5t13.5 -32.5t32.5 -13.5t32.5 13.5t13.5 32.5zM538 442q0 19 -13.5 32.5t-32.5 13.5q-20 0 -33 -13.5t-13 -32.5t13 -32.5t33 -13.5
q19 0 32.5 13.5t13.5 32.5zM241 640q0 19 -13.5 32.5t-32.5 13.5t-32.5 -13.5t-13.5 -32.5t13.5 -32.5t32.5 -13.5t32.5 13.5t13.5 32.5zM340 541q0 19 -13.5 32.5t-32.5 13.5t-32.5 -13.5t-13.5 -32.5t13.5 -32.5t32.5 -13.5t32.5 13.5t13.5 32.5zM538 343q0 19 -13.5 32.5
t-32.5 13.5q-20 0 -33 -13.5t-13 -32.5t13 -32.5t33 -13.5q19 0 32.5 13.5t13.5 32.5zM340 442q0 19 -13.5 32.5t-32.5 13.5t-32.5 -13.5t-13.5 -32.5t13.5 -32.5t32.5 -13.5t32.5 13.5t13.5 32.5zM439 343q0 19 -13.5 32.5t-32.5 13.5q-20 0 -33 -13.5t-13 -32.5t13 -32.5
t33 -13.5q19 0 32.5 13.5t13.5 32.5zM538 244q0 19 -13.5 32.5t-32.5 13.5q-20 0 -33 -13.5t-13 -32.5t13 -32.5t33 -13.5q19 0 32.5 13.5t13.5 32.5zM142 541q0 19 -13.5 32.5t-32.5 13.5t-32.5 -13.5t-13.5 -32.5t13.5 -32.5t32.5 -13.5t32.5 13.5t13.5 32.5zM340 343
q0 19 -13.5 32.5t-32.5 13.5t-32.5 -13.5t-13.5 -32.5t13.5 -32.5t32.5 -13.5t32.5 13.5t13.5 32.5zM538 145q0 19 -13.5 32.5t-32.5 13.5q-20 0 -33 -13.5t-13 -32.5t13 -32.5t33 -13.5q19 0 32.5 13.5t13.5 32.5zM142 442q0 19 -13.5 32.5t-32.5 13.5t-32.5 -13.5
t-13.5 -32.5t13.5 -32.5t32.5 -13.5t32.5 13.5t13.5 32.5zM241 343q0 19 -13.5 32.5t-32.5 13.5t-32.5 -13.5t-13.5 -32.5t13.5 -32.5t32.5 -13.5t32.5 13.5t13.5 32.5zM340 244q0 19 -13.5 32.5t-32.5 13.5t-32.5 -13.5t-13.5 -32.5t13.5 -32.5t32.5 -13.5t32.5 13.5
t13.5 32.5zM538 46q0 19 -13.5 32.5t-32.5 13.5q-20 0 -33 -13.5t-13 -32.5t13 -32.5t33 -13.5q19 0 32.5 13.5t13.5 32.5zM340 145q0 19 -13.5 32.5t-32.5 13.5t-32.5 -13.5t-13.5 -32.5t13.5 -32.5t32.5 -13.5t32.5 13.5t13.5 32.5zM340 46q0 19 -13.5 32.5t-32.5 13.5
t-32.5 -13.5t-13.5 -32.5t13.5 -32.5t32.5 -13.5t32.5 13.5t13.5 32.5z" />
    <glyph glyph-name="periodcentered" unicode="&#xb7;" horiz-adv-x="390" 
d="M241 343q0 19 -13.5 32.5t-32.5 13.5t-32.5 -13.5t-13.5 -32.5t13.5 -32.5t32.5 -13.5t32.5 13.5t13.5 32.5zM241 244q0 19 -13.5 32.5t-32.5 13.5t-32.5 -13.5t-13.5 -32.5t13.5 -32.5t32.5 -13.5t32.5 13.5t13.5 32.5z" />
    <glyph glyph-name="periodcentered" unicode="&#x2219;" horiz-adv-x="390" 
d="M241 343q0 19 -13.5 32.5t-32.5 13.5t-32.5 -13.5t-13.5 -32.5t13.5 -32.5t32.5 -13.5t32.5 13.5t13.5 32.5zM241 244q0 19 -13.5 32.5t-32.5 13.5t-32.5 -13.5t-13.5 -32.5t13.5 -32.5t32.5 -13.5t32.5 13.5t13.5 32.5z" />
    <glyph glyph-name="cedilla" unicode="&#xb8;" horiz-adv-x="291" 
d="M241 46q0 19 -13.5 32.5t-32.5 13.5t-32.5 -13.5t-13.5 -32.5t13.5 -32.5t32.5 -13.5t32.5 13.5t13.5 32.5zM241 -53q0 20 -13.5 33t-32.5 13t-32.5 -13t-13.5 -33q0 -19 13.5 -32.5t32.5 -13.5t32.5 13.5t13.5 32.5zM142 -53q0 20 -13.5 33t-32.5 13t-32.5 -13
t-13.5 -33q0 -19 13.5 -32.5t32.5 -13.5t32.5 13.5t13.5 32.5z" />
    <glyph glyph-name="ordmasculine" unicode="&#xba;" horiz-adv-x="489" 
d="M340 640q0 19 -13.5 32.5t-32.5 13.5t-32.5 -13.5t-13.5 -32.5t13.5 -32.5t32.5 -13.5t32.5 13.5t13.5 32.5zM439 541q0 19 -13.5 32.5t-32.5 13.5t-32.5 -13.5t-13.5 -32.5t13.5 -32.5t32.5 -13.5t32.5 13.5t13.5 32.5zM241 640q0 19 -13.5 32.5t-32.5 13.5t-32.5 -13.5
t-13.5 -32.5t13.5 -32.5t32.5 -13.5t32.5 13.5t13.5 32.5zM340 442q0 19 -13.5 32.5t-32.5 13.5t-32.5 -13.5t-13.5 -32.5t13.5 -32.5t32.5 -13.5t32.5 13.5t13.5 32.5zM142 541q0 19 -13.5 32.5t-32.5 13.5t-32.5 -13.5t-13.5 -32.5t13.5 -32.5t32.5 -13.5t32.5 13.5
t13.5 32.5zM241 442q0 19 -13.5 32.5t-32.5 13.5t-32.5 -13.5t-13.5 -32.5t13.5 -32.5t32.5 -13.5t32.5 13.5t13.5 32.5zM439 244q0 19 -13.5 32.5t-32.5 13.5q-20 0 -33 -13.5t-13 -32.5t13 -32.5t33 -13.5q19 0 32.5 13.5t13.5 32.5zM340 244q0 19 -13.5 32.5t-32.5 13.5
t-32.5 -13.5t-13.5 -32.5t13.5 -32.5t32.5 -13.5t32.5 13.5t13.5 32.5zM241 244q0 19 -13.5 32.5t-32.5 13.5t-32.5 -13.5t-13.5 -32.5t13.5 -32.5t32.5 -13.5t32.5 13.5t13.5 32.5zM142 244q0 19 -13.5 32.5t-32.5 13.5t-32.5 -13.5t-13.5 -32.5t13.5 -32.5t32.5 -13.5
t32.5 13.5t13.5 32.5z" />
    <glyph glyph-name="guillemotright" unicode="&#xbb;" 
d="M439 442q0 19 -13.5 32.5t-32.5 13.5q-20 0 -33 -13.5t-13 -32.5t13 -32.5t33 -13.5q19 0 32.5 13.5t13.5 32.5zM538 343q0 19 -13.5 32.5t-32.5 13.5q-20 0 -33 -13.5t-13 -32.5t13 -32.5t33 -13.5q19 0 32.5 13.5t13.5 32.5zM439 244q0 19 -13.5 32.5t-32.5 13.5
q-20 0 -33 -13.5t-13 -32.5t13 -32.5t33 -13.5q19 0 32.5 13.5t13.5 32.5zM142 442q0 19 -13.5 32.5t-32.5 13.5t-32.5 -13.5t-13.5 -32.5t13.5 -32.5t32.5 -13.5t32.5 13.5t13.5 32.5zM241 343q0 19 -13.5 32.5t-32.5 13.5t-32.5 -13.5t-13.5 -32.5t13.5 -32.5t32.5 -13.5
t32.5 13.5t13.5 32.5zM142 244q0 19 -13.5 32.5t-32.5 13.5t-32.5 -13.5t-13.5 -32.5t13.5 -32.5t32.5 -13.5t32.5 13.5t13.5 32.5z" />
    <glyph glyph-name="questiondown" unicode="&#xbf;" 
d="M340 640q0 19 -13.5 32.5t-32.5 13.5t-32.5 -13.5t-13.5 -32.5t13.5 -32.5t32.5 -13.5t32.5 13.5t13.5 32.5zM340 442q0 19 -13.5 32.5t-32.5 13.5t-32.5 -13.5t-13.5 -32.5t13.5 -32.5t32.5 -13.5t32.5 13.5t13.5 32.5zM538 145q0 19 -13.5 32.5t-32.5 13.5t-32.5 -13.5
t-13.5 -32.5t13.5 -32.5t32.5 -13.5t32.5 13.5t13.5 32.5zM241 343q0 19 -13 32.5t-33 13.5q-19 0 -32.5 -13.5t-13.5 -32.5t13.5 -32.5t32.5 -13.5q20 0 33 13.5t13 32.5zM439 46q0 19 -13.5 32.5t-32.5 13.5t-32.5 -13.5t-13.5 -32.5t13.5 -32.5t32.5 -13.5t32.5 13.5
t13.5 32.5zM142 244q0 19 -13 32.5t-33 13.5q-19 0 -32.5 -13.5t-13.5 -32.5t13.5 -32.5t32.5 -13.5q20 0 33 13.5t13 32.5zM340 46q0 19 -13.5 32.5t-32.5 13.5t-32.5 -13.5t-13.5 -32.5t13.5 -32.5t32.5 -13.5t32.5 13.5t13.5 32.5zM142 145q0 19 -13 32.5t-33 13.5
q-19 0 -32.5 -13.5t-13.5 -32.5t13.5 -32.5t32.5 -13.5q20 0 33 13.5t13 32.5zM241 46q0 19 -13 32.5t-33 13.5q-19 0 -32.5 -13.5t-13.5 -32.5t13.5 -32.5t32.5 -13.5q20 0 33 13.5t13 32.5z" />
    <glyph glyph-name="Agrave" unicode="&#xc0;" 
d="M241 838q0 19 -13.5 32.5t-32.5 13.5t-32.5 -13.5t-13.5 -32.5t13.5 -32.5t32.5 -13.5t32.5 13.5t13.5 32.5zM340 739q0 19 -13.5 32.5t-32.5 13.5t-32.5 -13.5t-13.5 -32.5t13.5 -32.5t32.5 -13.5t32.5 13.5t13.5 32.5zM340 640q0 19 -13.5 32.5t-32.5 13.5t-32.5 -13.5
t-13.5 -32.5t13.5 -32.5t32.5 -13.5t32.5 13.5t13.5 32.5zM439 541q0 19 -13.5 32.5t-32.5 13.5q-20 0 -33 -13.5t-13 -32.5t13 -32.5t33 -13.5q19 0 32.5 13.5t13.5 32.5zM538 442q0 19 -13.5 32.5t-32.5 13.5q-20 0 -33 -13.5t-13 -32.5t13 -32.5t33 -13.5q19 0 32.5 13.5
t13.5 32.5zM538 343q0 19 -13.5 32.5t-32.5 13.5q-20 0 -33 -13.5t-13 -32.5t13 -32.5t33 -13.5q19 0 32.5 13.5t13.5 32.5zM241 541q0 19 -13.5 32.5t-32.5 13.5t-32.5 -13.5t-13.5 -32.5t13.5 -32.5t32.5 -13.5t32.5 13.5t13.5 32.5zM538 244q0 19 -13.5 32.5t-32.5 13.5
q-20 0 -33 -13.5t-13 -32.5t13 -32.5t33 -13.5q19 0 32.5 13.5t13.5 32.5zM439 244q0 19 -13.5 32.5t-32.5 13.5q-20 0 -33 -13.5t-13 -32.5t13 -32.5t33 -13.5q19 0 32.5 13.5t13.5 32.5zM538 145q0 19 -13.5 32.5t-32.5 13.5q-20 0 -33 -13.5t-13 -32.5t13 -32.5t33 -13.5
q19 0 32.5 13.5t13.5 32.5zM142 442q0 19 -13.5 32.5t-32.5 13.5t-32.5 -13.5t-13.5 -32.5t13.5 -32.5t32.5 -13.5t32.5 13.5t13.5 32.5zM340 244q0 19 -13.5 32.5t-32.5 13.5t-32.5 -13.5t-13.5 -32.5t13.5 -32.5t32.5 -13.5t32.5 13.5t13.5 32.5zM538 46q0 19 -13.5 32.5
t-32.5 13.5q-20 0 -33 -13.5t-13 -32.5t13 -32.5t33 -13.5q19 0 32.5 13.5t13.5 32.5zM142 343q0 19 -13.5 32.5t-32.5 13.5t-32.5 -13.5t-13.5 -32.5t13.5 -32.5t32.5 -13.5t32.5 13.5t13.5 32.5zM241 244q0 19 -13.5 32.5t-32.5 13.5t-32.5 -13.5t-13.5 -32.5t13.5 -32.5
t32.5 -13.5t32.5 13.5t13.5 32.5zM142 244q0 19 -13.5 32.5t-32.5 13.5t-32.5 -13.5t-13.5 -32.5t13.5 -32.5t32.5 -13.5t32.5 13.5t13.5 32.5zM142 145q0 19 -13.5 32.5t-32.5 13.5t-32.5 -13.5t-13.5 -32.5t13.5 -32.5t32.5 -13.5t32.5 13.5t13.5 32.5zM142 46
q0 19 -13.5 32.5t-32.5 13.5t-32.5 -13.5t-13.5 -32.5t13.5 -32.5t32.5 -13.5t32.5 13.5t13.5 32.5z" />
    <glyph glyph-name="Aacute" unicode="&#xc1;" 
d="M439 838q0 19 -13.5 32.5t-32.5 13.5q-20 0 -33 -13.5t-13 -32.5t13 -32.5t33 -13.5q19 0 32.5 13.5t13.5 32.5zM340 739q0 19 -13.5 32.5t-32.5 13.5t-32.5 -13.5t-13.5 -32.5t13.5 -32.5t32.5 -13.5t32.5 13.5t13.5 32.5zM340 640q0 19 -13.5 32.5t-32.5 13.5
t-32.5 -13.5t-13.5 -32.5t13.5 -32.5t32.5 -13.5t32.5 13.5t13.5 32.5zM439 541q0 19 -13.5 32.5t-32.5 13.5q-20 0 -33 -13.5t-13 -32.5t13 -32.5t33 -13.5q19 0 32.5 13.5t13.5 32.5zM538 442q0 19 -13.5 32.5t-32.5 13.5q-20 0 -33 -13.5t-13 -32.5t13 -32.5t33 -13.5
q19 0 32.5 13.5t13.5 32.5zM538 343q0 19 -13.5 32.5t-32.5 13.5q-20 0 -33 -13.5t-13 -32.5t13 -32.5t33 -13.5q19 0 32.5 13.5t13.5 32.5zM241 541q0 19 -13.5 32.5t-32.5 13.5t-32.5 -13.5t-13.5 -32.5t13.5 -32.5t32.5 -13.5t32.5 13.5t13.5 32.5zM538 244
q0 19 -13.5 32.5t-32.5 13.5q-20 0 -33 -13.5t-13 -32.5t13 -32.5t33 -13.5q19 0 32.5 13.5t13.5 32.5zM439 244q0 19 -13.5 32.5t-32.5 13.5q-20 0 -33 -13.5t-13 -32.5t13 -32.5t33 -13.5q19 0 32.5 13.5t13.5 32.5zM538 145q0 19 -13.5 32.5t-32.5 13.5q-20 0 -33 -13.5
t-13 -32.5t13 -32.5t33 -13.5q19 0 32.5 13.5t13.5 32.5zM142 442q0 19 -13.5 32.5t-32.5 13.5t-32.5 -13.5t-13.5 -32.5t13.5 -32.5t32.5 -13.5t32.5 13.5t13.5 32.5zM340 244q0 19 -13.5 32.5t-32.5 13.5t-32.5 -13.5t-13.5 -32.5t13.5 -32.5t32.5 -13.5t32.5 13.5
t13.5 32.5zM538 46q0 19 -13.5 32.5t-32.5 13.5q-20 0 -33 -13.5t-13 -32.5t13 -32.5t33 -13.5q19 0 32.5 13.5t13.5 32.5zM142 343q0 19 -13.5 32.5t-32.5 13.5t-32.5 -13.5t-13.5 -32.5t13.5 -32.5t32.5 -13.5t32.5 13.5t13.5 32.5zM241 244q0 19 -13.5 32.5t-32.5 13.5
t-32.5 -13.5t-13.5 -32.5t13.5 -32.5t32.5 -13.5t32.5 13.5t13.5 32.5zM142 244q0 19 -13.5 32.5t-32.5 13.5t-32.5 -13.5t-13.5 -32.5t13.5 -32.5t32.5 -13.5t32.5 13.5t13.5 32.5zM142 145q0 19 -13.5 32.5t-32.5 13.5t-32.5 -13.5t-13.5 -32.5t13.5 -32.5t32.5 -13.5
t32.5 13.5t13.5 32.5zM142 46q0 19 -13.5 32.5t-32.5 13.5t-32.5 -13.5t-13.5 -32.5t13.5 -32.5t32.5 -13.5t32.5 13.5t13.5 32.5z" />
    <glyph glyph-name="Acircumflex" unicode="&#xc2;" 
d="M340 838q0 19 -13.5 32.5t-32.5 13.5t-32.5 -13.5t-13.5 -32.5t13.5 -32.5t32.5 -13.5t32.5 13.5t13.5 32.5zM439 739q0 19 -13.5 32.5t-32.5 13.5q-20 0 -33 -13.5t-13 -32.5t13 -32.5t33 -13.5q19 0 32.5 13.5t13.5 32.5zM241 739q0 19 -13.5 32.5t-32.5 13.5
t-32.5 -13.5t-13.5 -32.5t13.5 -32.5t32.5 -13.5t32.5 13.5t13.5 32.5zM340 640q0 19 -13.5 32.5t-32.5 13.5t-32.5 -13.5t-13.5 -32.5t13.5 -32.5t32.5 -13.5t32.5 13.5t13.5 32.5zM439 541q0 19 -13.5 32.5t-32.5 13.5q-20 0 -33 -13.5t-13 -32.5t13 -32.5t33 -13.5
q19 0 32.5 13.5t13.5 32.5zM538 442q0 19 -13.5 32.5t-32.5 13.5q-20 0 -33 -13.5t-13 -32.5t13 -32.5t33 -13.5q19 0 32.5 13.5t13.5 32.5zM538 343q0 19 -13.5 32.5t-32.5 13.5q-20 0 -33 -13.5t-13 -32.5t13 -32.5t33 -13.5q19 0 32.5 13.5t13.5 32.5zM241 541
q0 19 -13.5 32.5t-32.5 13.5t-32.5 -13.5t-13.5 -32.5t13.5 -32.5t32.5 -13.5t32.5 13.5t13.5 32.5zM538 244q0 19 -13.5 32.5t-32.5 13.5q-20 0 -33 -13.5t-13 -32.5t13 -32.5t33 -13.5q19 0 32.5 13.5t13.5 32.5zM439 244q0 19 -13.5 32.5t-32.5 13.5q-20 0 -33 -13.5
t-13 -32.5t13 -32.5t33 -13.5q19 0 32.5 13.5t13.5 32.5zM538 145q0 19 -13.5 32.5t-32.5 13.5q-20 0 -33 -13.5t-13 -32.5t13 -32.5t33 -13.5q19 0 32.5 13.5t13.5 32.5zM142 442q0 19 -13.5 32.5t-32.5 13.5t-32.5 -13.5t-13.5 -32.5t13.5 -32.5t32.5 -13.5t32.5 13.5
t13.5 32.5zM340 244q0 19 -13.5 32.5t-32.5 13.5t-32.5 -13.5t-13.5 -32.5t13.5 -32.5t32.5 -13.5t32.5 13.5t13.5 32.5zM538 46q0 19 -13.5 32.5t-32.5 13.5q-20 0 -33 -13.5t-13 -32.5t13 -32.5t33 -13.5q19 0 32.5 13.5t13.5 32.5zM142 343q0 19 -13.5 32.5t-32.5 13.5
t-32.5 -13.5t-13.5 -32.5t13.5 -32.5t32.5 -13.5t32.5 13.5t13.5 32.5zM241 244q0 19 -13.5 32.5t-32.5 13.5t-32.5 -13.5t-13.5 -32.5t13.5 -32.5t32.5 -13.5t32.5 13.5t13.5 32.5zM142 244q0 19 -13.5 32.5t-32.5 13.5t-32.5 -13.5t-13.5 -32.5t13.5 -32.5t32.5 -13.5
t32.5 13.5t13.5 32.5zM142 145q0 19 -13.5 32.5t-32.5 13.5t-32.5 -13.5t-13.5 -32.5t13.5 -32.5t32.5 -13.5t32.5 13.5t13.5 32.5zM142 46q0 19 -13.5 32.5t-32.5 13.5t-32.5 -13.5t-13.5 -32.5t13.5 -32.5t32.5 -13.5t32.5 13.5t13.5 32.5z" />
    <glyph glyph-name="Atilde" unicode="&#xc3;" 
d="M538 838q0 19 -13.5 32.5t-32.5 13.5q-20 0 -33 -13.5t-13 -32.5t13 -32.5t33 -13.5q19 0 32.5 13.5t13.5 32.5zM439 739q0 19 -13.5 32.5t-32.5 13.5q-20 0 -33 -13.5t-13 -32.5t13 -32.5t33 -13.5q19 0 32.5 13.5t13.5 32.5zM241 838q0 19 -13.5 32.5t-32.5 13.5
t-32.5 -13.5t-13.5 -32.5t13.5 -32.5t32.5 -13.5t32.5 13.5t13.5 32.5zM340 739q0 19 -13.5 32.5t-32.5 13.5t-32.5 -13.5t-13.5 -32.5t13.5 -32.5t32.5 -13.5t32.5 13.5t13.5 32.5zM340 640q0 19 -13.5 32.5t-32.5 13.5t-32.5 -13.5t-13.5 -32.5t13.5 -32.5t32.5 -13.5
t32.5 13.5t13.5 32.5zM439 541q0 19 -13.5 32.5t-32.5 13.5q-20 0 -33 -13.5t-13 -32.5t13 -32.5t33 -13.5q19 0 32.5 13.5t13.5 32.5zM538 442q0 19 -13.5 32.5t-32.5 13.5q-20 0 -33 -13.5t-13 -32.5t13 -32.5t33 -13.5q19 0 32.5 13.5t13.5 32.5zM142 739
q0 19 -13.5 32.5t-32.5 13.5t-32.5 -13.5t-13.5 -32.5t13.5 -32.5t32.5 -13.5t32.5 13.5t13.5 32.5zM538 343q0 19 -13.5 32.5t-32.5 13.5q-20 0 -33 -13.5t-13 -32.5t13 -32.5t33 -13.5q19 0 32.5 13.5t13.5 32.5zM241 541q0 19 -13.5 32.5t-32.5 13.5t-32.5 -13.5
t-13.5 -32.5t13.5 -32.5t32.5 -13.5t32.5 13.5t13.5 32.5zM538 244q0 19 -13.5 32.5t-32.5 13.5q-20 0 -33 -13.5t-13 -32.5t13 -32.5t33 -13.5q19 0 32.5 13.5t13.5 32.5zM439 244q0 19 -13.5 32.5t-32.5 13.5q-20 0 -33 -13.5t-13 -32.5t13 -32.5t33 -13.5q19 0 32.5 13.5
t13.5 32.5zM538 145q0 19 -13.5 32.5t-32.5 13.5q-20 0 -33 -13.5t-13 -32.5t13 -32.5t33 -13.5q19 0 32.5 13.5t13.5 32.5zM142 442q0 19 -13.5 32.5t-32.5 13.5t-32.5 -13.5t-13.5 -32.5t13.5 -32.5t32.5 -13.5t32.5 13.5t13.5 32.5zM340 244q0 19 -13.5 32.5t-32.5 13.5
t-32.5 -13.5t-13.5 -32.5t13.5 -32.5t32.5 -13.5t32.5 13.5t13.5 32.5zM538 46q0 19 -13.5 32.5t-32.5 13.5q-20 0 -33 -13.5t-13 -32.5t13 -32.5t33 -13.5q19 0 32.5 13.5t13.5 32.5zM142 343q0 19 -13.5 32.5t-32.5 13.5t-32.5 -13.5t-13.5 -32.5t13.5 -32.5t32.5 -13.5
t32.5 13.5t13.5 32.5zM241 244q0 19 -13.5 32.5t-32.5 13.5t-32.5 -13.5t-13.5 -32.5t13.5 -32.5t32.5 -13.5t32.5 13.5t13.5 32.5zM142 244q0 19 -13.5 32.5t-32.5 13.5t-32.5 -13.5t-13.5 -32.5t13.5 -32.5t32.5 -13.5t32.5 13.5t13.5 32.5zM142 145q0 19 -13.5 32.5
t-32.5 13.5t-32.5 -13.5t-13.5 -32.5t13.5 -32.5t32.5 -13.5t32.5 13.5t13.5 32.5zM142 46q0 19 -13.5 32.5t-32.5 13.5t-32.5 -13.5t-13.5 -32.5t13.5 -32.5t32.5 -13.5t32.5 13.5t13.5 32.5z" />
    <glyph glyph-name="Adieresis" unicode="&#xc4;" 
d="M439 838q0 19 -13.5 32.5t-32.5 13.5q-20 0 -33 -13.5t-13 -32.5t13 -32.5t33 -13.5q19 0 32.5 13.5t13.5 32.5zM241 838q0 19 -13.5 32.5t-32.5 13.5t-32.5 -13.5t-13.5 -32.5t13.5 -32.5t32.5 -13.5t32.5 13.5t13.5 32.5zM340 640q0 19 -13.5 32.5t-32.5 13.5
t-32.5 -13.5t-13.5 -32.5t13.5 -32.5t32.5 -13.5t32.5 13.5t13.5 32.5zM439 541q0 19 -13.5 32.5t-32.5 13.5q-20 0 -33 -13.5t-13 -32.5t13 -32.5t33 -13.5q19 0 32.5 13.5t13.5 32.5zM538 442q0 19 -13.5 32.5t-32.5 13.5q-20 0 -33 -13.5t-13 -32.5t13 -32.5t33 -13.5
q19 0 32.5 13.5t13.5 32.5zM538 343q0 19 -13.5 32.5t-32.5 13.5q-20 0 -33 -13.5t-13 -32.5t13 -32.5t33 -13.5q19 0 32.5 13.5t13.5 32.5zM241 541q0 19 -13.5 32.5t-32.5 13.5t-32.5 -13.5t-13.5 -32.5t13.5 -32.5t32.5 -13.5t32.5 13.5t13.5 32.5zM538 244
q0 19 -13.5 32.5t-32.5 13.5q-20 0 -33 -13.5t-13 -32.5t13 -32.5t33 -13.5q19 0 32.5 13.5t13.5 32.5zM439 244q0 19 -13.5 32.5t-32.5 13.5q-20 0 -33 -13.5t-13 -32.5t13 -32.5t33 -13.5q19 0 32.5 13.5t13.5 32.5zM538 145q0 19 -13.5 32.5t-32.5 13.5q-20 0 -33 -13.5
t-13 -32.5t13 -32.5t33 -13.5q19 0 32.5 13.5t13.5 32.5zM142 442q0 19 -13.5 32.5t-32.5 13.5t-32.5 -13.5t-13.5 -32.5t13.5 -32.5t32.5 -13.5t32.5 13.5t13.5 32.5zM340 244q0 19 -13.5 32.5t-32.5 13.5t-32.5 -13.5t-13.5 -32.5t13.5 -32.5t32.5 -13.5t32.5 13.5
t13.5 32.5zM538 46q0 19 -13.5 32.5t-32.5 13.5q-20 0 -33 -13.5t-13 -32.5t13 -32.5t33 -13.5q19 0 32.5 13.5t13.5 32.5zM142 343q0 19 -13.5 32.5t-32.5 13.5t-32.5 -13.5t-13.5 -32.5t13.5 -32.5t32.5 -13.5t32.5 13.5t13.5 32.5zM241 244q0 19 -13.5 32.5t-32.5 13.5
t-32.5 -13.5t-13.5 -32.5t13.5 -32.5t32.5 -13.5t32.5 13.5t13.5 32.5zM142 244q0 19 -13.5 32.5t-32.5 13.5t-32.5 -13.5t-13.5 -32.5t13.5 -32.5t32.5 -13.5t32.5 13.5t13.5 32.5zM142 145q0 19 -13.5 32.5t-32.5 13.5t-32.5 -13.5t-13.5 -32.5t13.5 -32.5t32.5 -13.5
t32.5 13.5t13.5 32.5zM142 46q0 19 -13.5 32.5t-32.5 13.5t-32.5 -13.5t-13.5 -32.5t13.5 -32.5t32.5 -13.5t32.5 13.5t13.5 32.5z" />
    <glyph glyph-name="Aring" unicode="&#xc5;" 
d="M340 838q0 19 -13.5 32.5t-32.5 13.5t-32.5 -13.5t-13.5 -32.5t13.5 -32.5t32.5 -13.5t32.5 13.5t13.5 32.5zM439 739q0 19 -13.5 32.5t-32.5 13.5q-20 0 -33 -13.5t-13 -32.5t13 -32.5t33 -13.5q19 0 32.5 13.5t13.5 32.5zM241 739q0 19 -13.5 32.5t-32.5 13.5
t-32.5 -13.5t-13.5 -32.5t13.5 -32.5t32.5 -13.5t32.5 13.5t13.5 32.5zM340 640q0 19 -13.5 32.5t-32.5 13.5t-32.5 -13.5t-13.5 -32.5t13.5 -32.5t32.5 -13.5t32.5 13.5t13.5 32.5zM439 541q0 19 -13.5 32.5t-32.5 13.5q-20 0 -33 -13.5t-13 -32.5t13 -32.5t33 -13.5
q19 0 32.5 13.5t13.5 32.5zM538 442q0 19 -13.5 32.5t-32.5 13.5q-20 0 -33 -13.5t-13 -32.5t13 -32.5t33 -13.5q19 0 32.5 13.5t13.5 32.5zM340 541q0 19 -13.5 32.5t-32.5 13.5t-32.5 -13.5t-13.5 -32.5t13.5 -32.5t32.5 -13.5t32.5 13.5t13.5 32.5zM538 343
q0 19 -13.5 32.5t-32.5 13.5q-20 0 -33 -13.5t-13 -32.5t13 -32.5t33 -13.5q19 0 32.5 13.5t13.5 32.5zM241 541q0 19 -13.5 32.5t-32.5 13.5t-32.5 -13.5t-13.5 -32.5t13.5 -32.5t32.5 -13.5t32.5 13.5t13.5 32.5zM538 244q0 19 -13.5 32.5t-32.5 13.5q-20 0 -33 -13.5
t-13 -32.5t13 -32.5t33 -13.5q19 0 32.5 13.5t13.5 32.5zM439 244q0 19 -13.5 32.5t-32.5 13.5q-20 0 -33 -13.5t-13 -32.5t13 -32.5t33 -13.5q19 0 32.5 13.5t13.5 32.5zM538 145q0 19 -13.5 32.5t-32.5 13.5q-20 0 -33 -13.5t-13 -32.5t13 -32.5t33 -13.5q19 0 32.5 13.5
t13.5 32.5zM142 442q0 19 -13.5 32.5t-32.5 13.5t-32.5 -13.5t-13.5 -32.5t13.5 -32.5t32.5 -13.5t32.5 13.5t13.5 32.5zM340 244q0 19 -13.5 32.5t-32.5 13.5t-32.5 -13.5t-13.5 -32.5t13.5 -32.5t32.5 -13.5t32.5 13.5t13.5 32.5zM538 46q0 19 -13.5 32.5t-32.5 13.5
q-20 0 -33 -13.5t-13 -32.5t13 -32.5t33 -13.5q19 0 32.5 13.5t13.5 32.5zM142 343q0 19 -13.5 32.5t-32.5 13.5t-32.5 -13.5t-13.5 -32.5t13.5 -32.5t32.5 -13.5t32.5 13.5t13.5 32.5zM241 244q0 19 -13.5 32.5t-32.5 13.5t-32.5 -13.5t-13.5 -32.5t13.5 -32.5t32.5 -13.5
t32.5 13.5t13.5 32.5zM142 244q0 19 -13.5 32.5t-32.5 13.5t-32.5 -13.5t-13.5 -32.5t13.5 -32.5t32.5 -13.5t32.5 13.5t13.5 32.5zM142 145q0 19 -13.5 32.5t-32.5 13.5t-32.5 -13.5t-13.5 -32.5t13.5 -32.5t32.5 -13.5t32.5 13.5t13.5 32.5zM142 46q0 19 -13.5 32.5
t-32.5 13.5t-32.5 -13.5t-13.5 -32.5t13.5 -32.5t32.5 -13.5t32.5 13.5t13.5 32.5z" />
    <glyph glyph-name="AE" unicode="&#xc6;" 
d="M538 640q0 19 -13.5 32.5t-32.5 13.5q-20 0 -33 -13.5t-13 -32.5t13 -32.5t33 -13.5q19 0 32.5 13.5t13.5 32.5zM439 640q0 19 -13.5 32.5t-32.5 13.5q-20 0 -33 -13.5t-13 -32.5t13 -32.5t33 -13.5q19 0 32.5 13.5t13.5 32.5zM340 640q0 19 -13.5 32.5t-32.5 13.5
t-32.5 -13.5t-13.5 -32.5t13.5 -32.5t32.5 -13.5t32.5 13.5t13.5 32.5zM241 640q0 19 -13.5 32.5t-32.5 13.5t-32.5 -13.5t-13.5 -32.5t13.5 -32.5t32.5 -13.5t32.5 13.5t13.5 32.5zM340 541q0 19 -13.5 32.5t-32.5 13.5t-32.5 -13.5t-13.5 -32.5t13.5 -32.5t32.5 -13.5
t32.5 13.5t13.5 32.5zM340 442q0 19 -13.5 32.5t-32.5 13.5t-32.5 -13.5t-13.5 -32.5t13.5 -32.5t32.5 -13.5t32.5 13.5t13.5 32.5zM439 343q0 19 -13.5 32.5t-32.5 13.5q-20 0 -33 -13.5t-13 -32.5t13 -32.5t33 -13.5q19 0 32.5 13.5t13.5 32.5zM142 541q0 19 -13.5 32.5
t-32.5 13.5t-32.5 -13.5t-13.5 -32.5t13.5 -32.5t32.5 -13.5t32.5 13.5t13.5 32.5zM340 343q0 19 -13.5 32.5t-32.5 13.5t-32.5 -13.5t-13.5 -32.5t13.5 -32.5t32.5 -13.5t32.5 13.5t13.5 32.5zM142 442q0 19 -13.5 32.5t-32.5 13.5t-32.5 -13.5t-13.5 -32.5t13.5 -32.5
t32.5 -13.5t32.5 13.5t13.5 32.5zM340 244q0 19 -13.5 32.5t-32.5 13.5t-32.5 -13.5t-13.5 -32.5t13.5 -32.5t32.5 -13.5t32.5 13.5t13.5 32.5zM538 46q0 19 -13.5 32.5t-32.5 13.5q-20 0 -33 -13.5t-13 -32.5t13 -32.5t33 -13.5q19 0 32.5 13.5t13.5 32.5zM142 343
q0 19 -13.5 32.5t-32.5 13.5t-32.5 -13.5t-13.5 -32.5t13.5 -32.5t32.5 -13.5t32.5 13.5t13.5 32.5zM241 244q0 19 -13.5 32.5t-32.5 13.5t-32.5 -13.5t-13.5 -32.5t13.5 -32.5t32.5 -13.5t32.5 13.5t13.5 32.5zM340 145q0 19 -13.5 32.5t-32.5 13.5t-32.5 -13.5
t-13.5 -32.5t13.5 -32.5t32.5 -13.5t32.5 13.5t13.5 32.5zM439 46q0 19 -13.5 32.5t-32.5 13.5q-20 0 -33 -13.5t-13 -32.5t13 -32.5t33 -13.5q19 0 32.5 13.5t13.5 32.5zM142 244q0 19 -13.5 32.5t-32.5 13.5t-32.5 -13.5t-13.5 -32.5t13.5 -32.5t32.5 -13.5t32.5 13.5
t13.5 32.5zM340 46q0 19 -13.5 32.5t-32.5 13.5t-32.5 -13.5t-13.5 -32.5t13.5 -32.5t32.5 -13.5t32.5 13.5t13.5 32.5zM142 145q0 19 -13.5 32.5t-32.5 13.5t-32.5 -13.5t-13.5 -32.5t13.5 -32.5t32.5 -13.5t32.5 13.5t13.5 32.5zM142 46q0 19 -13.5 32.5t-32.5 13.5
t-32.5 -13.5t-13.5 -32.5t13.5 -32.5t32.5 -13.5t32.5 13.5t13.5 32.5z" />
    <glyph glyph-name="Ccedilla" unicode="&#xc7;" 
d="M439 640q0 19 -13.5 32.5t-32.5 13.5q-20 0 -33 -13.5t-13 -32.5t13 -32.5t33 -13.5q19 0 32.5 13.5t13.5 32.5zM538 541q0 19 -13.5 32.5t-32.5 13.5q-20 0 -33 -13.5t-13 -32.5t13 -32.5t33 -13.5q19 0 32.5 13.5t13.5 32.5zM340 640q0 19 -13.5 32.5t-32.5 13.5
t-32.5 -13.5t-13.5 -32.5t13.5 -32.5t32.5 -13.5t32.5 13.5t13.5 32.5zM241 640q0 19 -13.5 32.5t-32.5 13.5t-32.5 -13.5t-13.5 -32.5t13.5 -32.5t32.5 -13.5t32.5 13.5t13.5 32.5zM538 244q0 19 -13.5 32.5t-32.5 13.5q-20 0 -33 -13.5t-13 -32.5t13 -32.5t33 -13.5
q19 0 32.5 13.5t13.5 32.5zM142 541q0 19 -13.5 32.5t-32.5 13.5t-32.5 -13.5t-13.5 -32.5t13.5 -32.5t32.5 -13.5t32.5 13.5t13.5 32.5zM142 442q0 19 -13.5 32.5t-32.5 13.5t-32.5 -13.5t-13.5 -32.5t13.5 -32.5t32.5 -13.5t32.5 13.5t13.5 32.5zM439 145q0 19 -13.5 32.5
t-32.5 13.5q-20 0 -33 -13.5t-13 -32.5t13 -32.5t33 -13.5q19 0 32.5 13.5t13.5 32.5zM142 343q0 19 -13.5 32.5t-32.5 13.5t-32.5 -13.5t-13.5 -32.5t13.5 -32.5t32.5 -13.5t32.5 13.5t13.5 32.5zM340 145q0 19 -13.5 32.5t-32.5 13.5q-20 0 -33 -13.5t-13 -32.5t13 -32.5
t33 -13.5q19 0 32.5 13.5t13.5 32.5zM142 244q0 19 -13.5 32.5t-32.5 13.5t-32.5 -13.5t-13.5 -32.5t13.5 -32.5t32.5 -13.5t32.5 13.5t13.5 32.5zM241 145q0 19 -13.5 32.5t-32.5 13.5t-32.5 -13.5t-13.5 -32.5t13.5 -32.5t32.5 -13.5t32.5 13.5t13.5 32.5zM340 46
q0 19 -13.5 32.5t-32.5 13.5t-32.5 -13.5t-13.5 -32.5t13.5 -32.5t32.5 -13.5t32.5 13.5t13.5 32.5zM340 -53q0 20 -13.5 33t-32.5 13t-32.5 -13t-13.5 -33q0 -19 13.5 -32.5t32.5 -13.5t32.5 13.5t13.5 32.5zM241 -53q0 20 -13.5 33t-32.5 13t-32.5 -13t-13.5 -33
q0 -19 13.5 -32.5t32.5 -13.5t32.5 13.5t13.5 32.5z" />
    <glyph glyph-name="Egrave" unicode="&#xc8;" 
d="M241 838q0 19 -13.5 32.5t-32.5 13.5t-32.5 -13.5t-13.5 -32.5t13.5 -32.5t32.5 -13.5t32.5 13.5t13.5 32.5zM340 739q0 19 -13.5 32.5t-32.5 13.5t-32.5 -13.5t-13.5 -32.5t13.5 -32.5t32.5 -13.5t32.5 13.5t13.5 32.5zM538 640q0 19 -13.5 32.5t-32.5 13.5
q-20 0 -33 -13.5t-13 -32.5t13 -32.5t33 -13.5q19 0 32.5 13.5t13.5 32.5zM439 640q0 19 -13.5 32.5t-32.5 13.5q-20 0 -33 -13.5t-13 -32.5t13 -32.5t33 -13.5q19 0 32.5 13.5t13.5 32.5zM340 640q0 19 -13.5 32.5t-32.5 13.5t-32.5 -13.5t-13.5 -32.5t13.5 -32.5
t32.5 -13.5t32.5 13.5t13.5 32.5zM241 640q0 19 -13.5 32.5t-32.5 13.5t-32.5 -13.5t-13.5 -32.5t13.5 -32.5t32.5 -13.5t32.5 13.5t13.5 32.5zM142 640q0 19 -13.5 32.5t-32.5 13.5t-32.5 -13.5t-13.5 -32.5t13.5 -32.5t32.5 -13.5t32.5 13.5t13.5 32.5zM439 343
q0 19 -13.5 32.5t-32.5 13.5q-20 0 -33 -13.5t-13 -32.5t13 -32.5t33 -13.5q19 0 32.5 13.5t13.5 32.5zM142 541q0 19 -13.5 32.5t-32.5 13.5t-32.5 -13.5t-13.5 -32.5t13.5 -32.5t32.5 -13.5t32.5 13.5t13.5 32.5zM340 343q0 19 -13.5 32.5t-32.5 13.5t-32.5 -13.5
t-13.5 -32.5t13.5 -32.5t32.5 -13.5t32.5 13.5t13.5 32.5zM142 442q0 19 -13.5 32.5t-32.5 13.5t-32.5 -13.5t-13.5 -32.5t13.5 -32.5t32.5 -13.5t32.5 13.5t13.5 32.5zM241 343q0 19 -13.5 32.5t-32.5 13.5t-32.5 -13.5t-13.5 -32.5t13.5 -32.5t32.5 -13.5t32.5 13.5
t13.5 32.5zM538 46q0 19 -13.5 32.5t-32.5 13.5q-20 0 -33 -13.5t-13 -32.5t13 -32.5t33 -13.5q19 0 32.5 13.5t13.5 32.5zM142 343q0 19 -13.5 32.5t-32.5 13.5t-32.5 -13.5t-13.5 -32.5t13.5 -32.5t32.5 -13.5t32.5 13.5t13.5 32.5zM439 46q0 19 -13.5 32.5t-32.5 13.5
q-20 0 -33 -13.5t-13 -32.5t13 -32.5t33 -13.5q19 0 32.5 13.5t13.5 32.5zM142 244q0 19 -13.5 32.5t-32.5 13.5t-32.5 -13.5t-13.5 -32.5t13.5 -32.5t32.5 -13.5t32.5 13.5t13.5 32.5zM340 46q0 19 -13.5 32.5t-32.5 13.5t-32.5 -13.5t-13.5 -32.5t13.5 -32.5t32.5 -13.5
t32.5 13.5t13.5 32.5zM142 145q0 19 -13.5 32.5t-32.5 13.5t-32.5 -13.5t-13.5 -32.5t13.5 -32.5t32.5 -13.5t32.5 13.5t13.5 32.5zM241 46q0 19 -13.5 32.5t-32.5 13.5t-32.5 -13.5t-13.5 -32.5t13.5 -32.5t32.5 -13.5t32.5 13.5t13.5 32.5zM142 46q0 19 -13.5 32.5
t-32.5 13.5t-32.5 -13.5t-13.5 -32.5t13.5 -32.5t32.5 -13.5t32.5 13.5t13.5 32.5z" />
    <glyph glyph-name="Eacute" unicode="&#xc9;" 
d="M439 838q0 19 -13.5 32.5t-32.5 13.5q-20 0 -33 -13.5t-13 -32.5t13 -32.5t33 -13.5q19 0 32.5 13.5t13.5 32.5zM340 739q0 19 -13.5 32.5t-32.5 13.5t-32.5 -13.5t-13.5 -32.5t13.5 -32.5t32.5 -13.5t32.5 13.5t13.5 32.5zM538 640q0 19 -13.5 32.5t-32.5 13.5
q-20 0 -33 -13.5t-13 -32.5t13 -32.5t33 -13.5q19 0 32.5 13.5t13.5 32.5zM439 640q0 19 -13.5 32.5t-32.5 13.5q-20 0 -33 -13.5t-13 -32.5t13 -32.5t33 -13.5q19 0 32.5 13.5t13.5 32.5zM340 640q0 19 -13.5 32.5t-32.5 13.5t-32.5 -13.5t-13.5 -32.5t13.5 -32.5
t32.5 -13.5t32.5 13.5t13.5 32.5zM241 640q0 19 -13.5 32.5t-32.5 13.5t-32.5 -13.5t-13.5 -32.5t13.5 -32.5t32.5 -13.5t32.5 13.5t13.5 32.5zM142 640q0 19 -13.5 32.5t-32.5 13.5t-32.5 -13.5t-13.5 -32.5t13.5 -32.5t32.5 -13.5t32.5 13.5t13.5 32.5zM439 343
q0 19 -13.5 32.5t-32.5 13.5q-20 0 -33 -13.5t-13 -32.5t13 -32.5t33 -13.5q19 0 32.5 13.5t13.5 32.5zM142 541q0 19 -13.5 32.5t-32.5 13.5t-32.5 -13.5t-13.5 -32.5t13.5 -32.5t32.5 -13.5t32.5 13.5t13.5 32.5zM340 343q0 19 -13.5 32.5t-32.5 13.5t-32.5 -13.5
t-13.5 -32.5t13.5 -32.5t32.5 -13.5t32.5 13.5t13.5 32.5zM142 442q0 19 -13.5 32.5t-32.5 13.5t-32.5 -13.5t-13.5 -32.5t13.5 -32.5t32.5 -13.5t32.5 13.5t13.5 32.5zM241 343q0 19 -13.5 32.5t-32.5 13.5t-32.5 -13.5t-13.5 -32.5t13.5 -32.5t32.5 -13.5t32.5 13.5
t13.5 32.5zM538 46q0 19 -13.5 32.5t-32.5 13.5q-20 0 -33 -13.5t-13 -32.5t13 -32.5t33 -13.5q19 0 32.5 13.5t13.5 32.5zM142 343q0 19 -13.5 32.5t-32.5 13.5t-32.5 -13.5t-13.5 -32.5t13.5 -32.5t32.5 -13.5t32.5 13.5t13.5 32.5zM439 46q0 19 -13.5 32.5t-32.5 13.5
q-20 0 -33 -13.5t-13 -32.5t13 -32.5t33 -13.5q19 0 32.5 13.5t13.5 32.5zM142 244q0 19 -13.5 32.5t-32.5 13.5t-32.5 -13.5t-13.5 -32.5t13.5 -32.5t32.5 -13.5t32.5 13.5t13.5 32.5zM340 46q0 19 -13.5 32.5t-32.5 13.5t-32.5 -13.5t-13.5 -32.5t13.5 -32.5t32.5 -13.5
t32.5 13.5t13.5 32.5zM142 145q0 19 -13.5 32.5t-32.5 13.5t-32.5 -13.5t-13.5 -32.5t13.5 -32.5t32.5 -13.5t32.5 13.5t13.5 32.5zM241 46q0 19 -13.5 32.5t-32.5 13.5t-32.5 -13.5t-13.5 -32.5t13.5 -32.5t32.5 -13.5t32.5 13.5t13.5 32.5zM142 46q0 19 -13.5 32.5
t-32.5 13.5t-32.5 -13.5t-13.5 -32.5t13.5 -32.5t32.5 -13.5t32.5 13.5t13.5 32.5z" />
    <glyph glyph-name="Ecircumflex" unicode="&#xca;" 
d="M340 838q0 19 -13.5 32.5t-32.5 13.5t-32.5 -13.5t-13.5 -32.5t13.5 -32.5t32.5 -13.5t32.5 13.5t13.5 32.5zM439 739q0 19 -13.5 32.5t-32.5 13.5q-20 0 -33 -13.5t-13 -32.5t13 -32.5t33 -13.5q19 0 32.5 13.5t13.5 32.5zM241 739q0 19 -13.5 32.5t-32.5 13.5
t-32.5 -13.5t-13.5 -32.5t13.5 -32.5t32.5 -13.5t32.5 13.5t13.5 32.5zM538 640q0 19 -13.5 32.5t-32.5 13.5q-20 0 -33 -13.5t-13 -32.5t13 -32.5t33 -13.5q19 0 32.5 13.5t13.5 32.5zM439 640q0 19 -13.5 32.5t-32.5 13.5q-20 0 -33 -13.5t-13 -32.5t13 -32.5t33 -13.5
q19 0 32.5 13.5t13.5 32.5zM340 640q0 19 -13.5 32.5t-32.5 13.5t-32.5 -13.5t-13.5 -32.5t13.5 -32.5t32.5 -13.5t32.5 13.5t13.5 32.5zM241 640q0 19 -13.5 32.5t-32.5 13.5t-32.5 -13.5t-13.5 -32.5t13.5 -32.5t32.5 -13.5t32.5 13.5t13.5 32.5zM142 640q0 19 -13.5 32.5
t-32.5 13.5t-32.5 -13.5t-13.5 -32.5t13.5 -32.5t32.5 -13.5t32.5 13.5t13.5 32.5zM439 343q0 19 -13.5 32.5t-32.5 13.5q-20 0 -33 -13.5t-13 -32.5t13 -32.5t33 -13.5q19 0 32.5 13.5t13.5 32.5zM142 541q0 19 -13.5 32.5t-32.5 13.5t-32.5 -13.5t-13.5 -32.5t13.5 -32.5
t32.5 -13.5t32.5 13.5t13.5 32.5zM340 343q0 19 -13.5 32.5t-32.5 13.5t-32.5 -13.5t-13.5 -32.5t13.5 -32.5t32.5 -13.5t32.5 13.5t13.5 32.5zM142 442q0 19 -13.5 32.5t-32.5 13.5t-32.5 -13.5t-13.5 -32.5t13.5 -32.5t32.5 -13.5t32.5 13.5t13.5 32.5zM241 343
q0 19 -13.5 32.5t-32.5 13.5t-32.5 -13.5t-13.5 -32.5t13.5 -32.5t32.5 -13.5t32.5 13.5t13.5 32.5zM538 46q0 19 -13.5 32.5t-32.5 13.5q-20 0 -33 -13.5t-13 -32.5t13 -32.5t33 -13.5q19 0 32.5 13.5t13.5 32.5zM142 343q0 19 -13.5 32.5t-32.5 13.5t-32.5 -13.5
t-13.5 -32.5t13.5 -32.5t32.5 -13.5t32.5 13.5t13.5 32.5zM439 46q0 19 -13.5 32.5t-32.5 13.5q-20 0 -33 -13.5t-13 -32.5t13 -32.5t33 -13.5q19 0 32.5 13.5t13.5 32.5zM142 244q0 19 -13.5 32.5t-32.5 13.5t-32.5 -13.5t-13.5 -32.5t13.5 -32.5t32.5 -13.5t32.5 13.5
t13.5 32.5zM340 46q0 19 -13.5 32.5t-32.5 13.5t-32.5 -13.5t-13.5 -32.5t13.5 -32.5t32.5 -13.5t32.5 13.5t13.5 32.5zM142 145q0 19 -13.5 32.5t-32.5 13.5t-32.5 -13.5t-13.5 -32.5t13.5 -32.5t32.5 -13.5t32.5 13.5t13.5 32.5zM241 46q0 19 -13.5 32.5t-32.5 13.5
t-32.5 -13.5t-13.5 -32.5t13.5 -32.5t32.5 -13.5t32.5 13.5t13.5 32.5zM142 46q0 19 -13.5 32.5t-32.5 13.5t-32.5 -13.5t-13.5 -32.5t13.5 -32.5t32.5 -13.5t32.5 13.5t13.5 32.5z" />
    <glyph glyph-name="Edieresis" unicode="&#xcb;" 
d="M439 838q0 19 -13.5 32.5t-32.5 13.5q-20 0 -33 -13.5t-13 -32.5t13 -32.5t33 -13.5q19 0 32.5 13.5t13.5 32.5zM241 838q0 19 -13.5 32.5t-32.5 13.5t-32.5 -13.5t-13.5 -32.5t13.5 -32.5t32.5 -13.5t32.5 13.5t13.5 32.5zM538 640q0 19 -13.5 32.5t-32.5 13.5
q-20 0 -33 -13.5t-13 -32.5t13 -32.5t33 -13.5q19 0 32.5 13.5t13.5 32.5zM439 640q0 19 -13.5 32.5t-32.5 13.5q-20 0 -33 -13.5t-13 -32.5t13 -32.5t33 -13.5q19 0 32.5 13.5t13.5 32.5zM340 640q0 19 -13.5 32.5t-32.5 13.5t-32.5 -13.5t-13.5 -32.5t13.5 -32.5
t32.5 -13.5t32.5 13.5t13.5 32.5zM241 640q0 19 -13.5 32.5t-32.5 13.5t-32.5 -13.5t-13.5 -32.5t13.5 -32.5t32.5 -13.5t32.5 13.5t13.5 32.5zM142 640q0 19 -13.5 32.5t-32.5 13.5t-32.5 -13.5t-13.5 -32.5t13.5 -32.5t32.5 -13.5t32.5 13.5t13.5 32.5zM439 343
q0 19 -13.5 32.5t-32.5 13.5q-20 0 -33 -13.5t-13 -32.5t13 -32.5t33 -13.5q19 0 32.5 13.5t13.5 32.5zM142 541q0 19 -13.5 32.5t-32.5 13.5t-32.5 -13.5t-13.5 -32.5t13.5 -32.5t32.5 -13.5t32.5 13.5t13.5 32.5zM340 343q0 19 -13.5 32.5t-32.5 13.5t-32.5 -13.5
t-13.5 -32.5t13.5 -32.5t32.5 -13.5t32.5 13.5t13.5 32.5zM142 442q0 19 -13.5 32.5t-32.5 13.5t-32.5 -13.5t-13.5 -32.5t13.5 -32.5t32.5 -13.5t32.5 13.5t13.5 32.5zM241 343q0 19 -13.5 32.5t-32.5 13.5t-32.5 -13.5t-13.5 -32.5t13.5 -32.5t32.5 -13.5t32.5 13.5
t13.5 32.5zM538 46q0 19 -13.5 32.5t-32.5 13.5q-20 0 -33 -13.5t-13 -32.5t13 -32.5t33 -13.5q19 0 32.5 13.5t13.5 32.5zM142 343q0 19 -13.5 32.5t-32.5 13.5t-32.5 -13.5t-13.5 -32.5t13.5 -32.5t32.5 -13.5t32.5 13.5t13.5 32.5zM439 46q0 19 -13.5 32.5t-32.5 13.5
q-20 0 -33 -13.5t-13 -32.5t13 -32.5t33 -13.5q19 0 32.5 13.5t13.5 32.5zM142 244q0 19 -13.5 32.5t-32.5 13.5t-32.5 -13.5t-13.5 -32.5t13.5 -32.5t32.5 -13.5t32.5 13.5t13.5 32.5zM340 46q0 19 -13.5 32.5t-32.5 13.5t-32.5 -13.5t-13.5 -32.5t13.5 -32.5t32.5 -13.5
t32.5 13.5t13.5 32.5zM142 145q0 19 -13.5 32.5t-32.5 13.5t-32.5 -13.5t-13.5 -32.5t13.5 -32.5t32.5 -13.5t32.5 13.5t13.5 32.5zM241 46q0 19 -13.5 32.5t-32.5 13.5t-32.5 -13.5t-13.5 -32.5t13.5 -32.5t32.5 -13.5t32.5 13.5t13.5 32.5zM142 46q0 19 -13.5 32.5
t-32.5 13.5t-32.5 -13.5t-13.5 -32.5t13.5 -32.5t32.5 -13.5t32.5 13.5t13.5 32.5z" />
    <glyph glyph-name="Igrave" unicode="&#xcc;" horiz-adv-x="390" 
d="M142 838q0 19 -13.5 32.5t-32.5 13.5t-32.5 -13.5t-13.5 -32.5t13.5 -32.5t32.5 -13.5t32.5 13.5t13.5 32.5zM241 739q0 19 -13.5 32.5t-32.5 13.5t-32.5 -13.5t-13.5 -32.5t13.5 -32.5t32.5 -13.5t32.5 13.5t13.5 32.5zM340 640q0 19 -13.5 32.5t-32.5 13.5
q-20 0 -33 -13.5t-13 -32.5t13 -32.5t33 -13.5q19 0 32.5 13.5t13.5 32.5zM241 640q0 19 -13.5 32.5t-32.5 13.5t-32.5 -13.5t-13.5 -32.5t13.5 -32.5t32.5 -13.5t32.5 13.5t13.5 32.5zM142 640q0 19 -13.5 32.5t-32.5 13.5t-32.5 -13.5t-13.5 -32.5t13.5 -32.5t32.5 -13.5
t32.5 13.5t13.5 32.5zM241 541q0 19 -13.5 32.5t-32.5 13.5t-32.5 -13.5t-13.5 -32.5t13.5 -32.5t32.5 -13.5t32.5 13.5t13.5 32.5zM241 442q0 19 -13.5 32.5t-32.5 13.5t-32.5 -13.5t-13.5 -32.5t13.5 -32.5t32.5 -13.5t32.5 13.5t13.5 32.5zM241 343q0 19 -13.5 32.5
t-32.5 13.5t-32.5 -13.5t-13.5 -32.5t13.5 -32.5t32.5 -13.5t32.5 13.5t13.5 32.5zM241 244q0 19 -13.5 32.5t-32.5 13.5t-32.5 -13.5t-13.5 -32.5t13.5 -32.5t32.5 -13.5t32.5 13.5t13.5 32.5zM241 145q0 19 -13.5 32.5t-32.5 13.5t-32.5 -13.5t-13.5 -32.5t13.5 -32.5
t32.5 -13.5t32.5 13.5t13.5 32.5zM340 46q0 19 -13.5 32.5t-32.5 13.5q-20 0 -33 -13.5t-13 -32.5t13 -32.5t33 -13.5q19 0 32.5 13.5t13.5 32.5zM241 46q0 19 -13.5 32.5t-32.5 13.5t-32.5 -13.5t-13.5 -32.5t13.5 -32.5t32.5 -13.5t32.5 13.5t13.5 32.5zM142 46
q0 19 -13.5 32.5t-32.5 13.5t-32.5 -13.5t-13.5 -32.5t13.5 -32.5t32.5 -13.5t32.5 13.5t13.5 32.5z" />
    <glyph glyph-name="Iacute" unicode="&#xcd;" horiz-adv-x="390" 
d="M340 838q0 19 -13.5 32.5t-32.5 13.5q-20 0 -33 -13.5t-13 -32.5t13 -32.5t33 -13.5q19 0 32.5 13.5t13.5 32.5zM241 739q0 19 -13.5 32.5t-32.5 13.5t-32.5 -13.5t-13.5 -32.5t13.5 -32.5t32.5 -13.5t32.5 13.5t13.5 32.5zM340 640q0 19 -13.5 32.5t-32.5 13.5
q-20 0 -33 -13.5t-13 -32.5t13 -32.5t33 -13.5q19 0 32.5 13.5t13.5 32.5zM241 640q0 19 -13.5 32.5t-32.5 13.5t-32.5 -13.5t-13.5 -32.5t13.5 -32.5t32.5 -13.5t32.5 13.5t13.5 32.5zM142 640q0 19 -13.5 32.5t-32.5 13.5t-32.5 -13.5t-13.5 -32.5t13.5 -32.5t32.5 -13.5
t32.5 13.5t13.5 32.5zM241 541q0 19 -13.5 32.5t-32.5 13.5t-32.5 -13.5t-13.5 -32.5t13.5 -32.5t32.5 -13.5t32.5 13.5t13.5 32.5zM241 442q0 19 -13.5 32.5t-32.5 13.5t-32.5 -13.5t-13.5 -32.5t13.5 -32.5t32.5 -13.5t32.5 13.5t13.5 32.5zM241 343q0 19 -13.5 32.5
t-32.5 13.5t-32.5 -13.5t-13.5 -32.5t13.5 -32.5t32.5 -13.5t32.5 13.5t13.5 32.5zM241 244q0 19 -13.5 32.5t-32.5 13.5t-32.5 -13.5t-13.5 -32.5t13.5 -32.5t32.5 -13.5t32.5 13.5t13.5 32.5zM241 145q0 19 -13.5 32.5t-32.5 13.5t-32.5 -13.5t-13.5 -32.5t13.5 -32.5
t32.5 -13.5t32.5 13.5t13.5 32.5zM340 46q0 19 -13.5 32.5t-32.5 13.5q-20 0 -33 -13.5t-13 -32.5t13 -32.5t33 -13.5q19 0 32.5 13.5t13.5 32.5zM241 46q0 19 -13.5 32.5t-32.5 13.5t-32.5 -13.5t-13.5 -32.5t13.5 -32.5t32.5 -13.5t32.5 13.5t13.5 32.5zM142 46
q0 19 -13.5 32.5t-32.5 13.5t-32.5 -13.5t-13.5 -32.5t13.5 -32.5t32.5 -13.5t32.5 13.5t13.5 32.5z" />
    <glyph glyph-name="Icircumflex" unicode="&#xce;" horiz-adv-x="390" 
d="M241 838q0 19 -13.5 32.5t-32.5 13.5t-32.5 -13.5t-13.5 -32.5t13.5 -32.5t32.5 -13.5t32.5 13.5t13.5 32.5zM340 739q0 19 -13.5 32.5t-32.5 13.5q-20 0 -33 -13.5t-13 -32.5t13 -32.5t33 -13.5q19 0 32.5 13.5t13.5 32.5zM142 739q0 19 -13.5 32.5t-32.5 13.5
t-32.5 -13.5t-13.5 -32.5t13.5 -32.5t32.5 -13.5t32.5 13.5t13.5 32.5zM340 640q0 19 -13.5 32.5t-32.5 13.5q-20 0 -33 -13.5t-13 -32.5t13 -32.5t33 -13.5q19 0 32.5 13.5t13.5 32.5zM241 640q0 19 -13.5 32.5t-32.5 13.5t-32.5 -13.5t-13.5 -32.5t13.5 -32.5t32.5 -13.5
t32.5 13.5t13.5 32.5zM142 640q0 19 -13.5 32.5t-32.5 13.5t-32.5 -13.5t-13.5 -32.5t13.5 -32.5t32.5 -13.5t32.5 13.5t13.5 32.5zM241 541q0 19 -13.5 32.5t-32.5 13.5t-32.5 -13.5t-13.5 -32.5t13.5 -32.5t32.5 -13.5t32.5 13.5t13.5 32.5zM241 442q0 19 -13.5 32.5
t-32.5 13.5t-32.5 -13.5t-13.5 -32.5t13.5 -32.5t32.5 -13.5t32.5 13.5t13.5 32.5zM241 343q0 19 -13.5 32.5t-32.5 13.5t-32.5 -13.5t-13.5 -32.5t13.5 -32.5t32.5 -13.5t32.5 13.5t13.5 32.5zM241 244q0 19 -13.5 32.5t-32.5 13.5t-32.5 -13.5t-13.5 -32.5t13.5 -32.5
t32.5 -13.5t32.5 13.5t13.5 32.5zM241 145q0 19 -13.5 32.5t-32.5 13.5t-32.5 -13.5t-13.5 -32.5t13.5 -32.5t32.5 -13.5t32.5 13.5t13.5 32.5zM340 46q0 19 -13.5 32.5t-32.5 13.5q-20 0 -33 -13.5t-13 -32.5t13 -32.5t33 -13.5q19 0 32.5 13.5t13.5 32.5zM241 46
q0 19 -13.5 32.5t-32.5 13.5t-32.5 -13.5t-13.5 -32.5t13.5 -32.5t32.5 -13.5t32.5 13.5t13.5 32.5zM142 46q0 19 -13.5 32.5t-32.5 13.5t-32.5 -13.5t-13.5 -32.5t13.5 -32.5t32.5 -13.5t32.5 13.5t13.5 32.5z" />
    <glyph glyph-name="Idieresis" unicode="&#xcf;" horiz-adv-x="390" 
d="M340 838q0 19 -13.5 32.5t-32.5 13.5q-20 0 -33 -13.5t-13 -32.5t13 -32.5t33 -13.5q19 0 32.5 13.5t13.5 32.5zM142 838q0 19 -13.5 32.5t-32.5 13.5t-32.5 -13.5t-13.5 -32.5t13.5 -32.5t32.5 -13.5t32.5 13.5t13.5 32.5zM340 640q0 19 -13.5 32.5t-32.5 13.5
q-20 0 -33 -13.5t-13 -32.5t13 -32.5t33 -13.5q19 0 32.5 13.5t13.5 32.5zM241 640q0 19 -13.5 32.5t-32.5 13.5t-32.5 -13.5t-13.5 -32.5t13.5 -32.5t32.5 -13.5t32.5 13.5t13.5 32.5zM142 640q0 19 -13.5 32.5t-32.5 13.5t-32.5 -13.5t-13.5 -32.5t13.5 -32.5t32.5 -13.5
t32.5 13.5t13.5 32.5zM241 541q0 19 -13.5 32.5t-32.5 13.5t-32.5 -13.5t-13.5 -32.5t13.5 -32.5t32.5 -13.5t32.5 13.5t13.5 32.5zM241 442q0 19 -13.5 32.5t-32.5 13.5t-32.5 -13.5t-13.5 -32.5t13.5 -32.5t32.5 -13.5t32.5 13.5t13.5 32.5zM241 343q0 19 -13.5 32.5
t-32.5 13.5t-32.5 -13.5t-13.5 -32.5t13.5 -32.5t32.5 -13.5t32.5 13.5t13.5 32.5zM241 244q0 19 -13.5 32.5t-32.5 13.5t-32.5 -13.5t-13.5 -32.5t13.5 -32.5t32.5 -13.5t32.5 13.5t13.5 32.5zM241 145q0 19 -13.5 32.5t-32.5 13.5t-32.5 -13.5t-13.5 -32.5t13.5 -32.5
t32.5 -13.5t32.5 13.5t13.5 32.5zM340 46q0 19 -13.5 32.5t-32.5 13.5q-20 0 -33 -13.5t-13 -32.5t13 -32.5t33 -13.5q19 0 32.5 13.5t13.5 32.5zM241 46q0 19 -13.5 32.5t-32.5 13.5t-32.5 -13.5t-13.5 -32.5t13.5 -32.5t32.5 -13.5t32.5 13.5t13.5 32.5zM142 46
q0 19 -13.5 32.5t-32.5 13.5t-32.5 -13.5t-13.5 -32.5t13.5 -32.5t32.5 -13.5t32.5 13.5t13.5 32.5z" />
    <glyph glyph-name="Ntilde" unicode="&#xd1;" 
d="M538 838q0 19 -13.5 32.5t-32.5 13.5q-20 0 -33 -13.5t-13 -32.5t13 -32.5t33 -13.5q19 0 32.5 13.5t13.5 32.5zM439 739q0 19 -13.5 32.5t-32.5 13.5q-20 0 -33 -13.5t-13 -32.5t13 -32.5t33 -13.5q19 0 32.5 13.5t13.5 32.5zM241 838q0 19 -13.5 32.5t-32.5 13.5
t-32.5 -13.5t-13.5 -32.5t13.5 -32.5t32.5 -13.5t32.5 13.5t13.5 32.5zM340 739q0 19 -13.5 32.5t-32.5 13.5t-32.5 -13.5t-13.5 -32.5t13.5 -32.5t32.5 -13.5t32.5 13.5t13.5 32.5zM538 541q0 19 -13.5 32.5t-32.5 13.5q-20 0 -33 -13.5t-13 -32.5t13 -32.5t33 -13.5
q19 0 32.5 13.5t13.5 32.5zM538 442q0 19 -13.5 32.5t-32.5 13.5q-20 0 -33 -13.5t-13 -32.5t13 -32.5t33 -13.5q19 0 32.5 13.5t13.5 32.5zM142 739q0 19 -13.5 32.5t-32.5 13.5t-32.5 -13.5t-13.5 -32.5t13.5 -32.5t32.5 -13.5t32.5 13.5t13.5 32.5zM538 343
q0 19 -13.5 32.5t-32.5 13.5q-20 0 -33 -13.5t-13 -32.5t13 -32.5t33 -13.5q19 0 32.5 13.5t13.5 32.5zM538 244q0 19 -13.5 32.5t-32.5 13.5q-20 0 -33 -13.5t-13 -32.5t13 -32.5t33 -13.5q19 0 32.5 13.5t13.5 32.5zM142 541q0 19 -13.5 32.5t-32.5 13.5t-32.5 -13.5
t-13.5 -32.5t13.5 -32.5t32.5 -13.5t32.5 13.5t13.5 32.5zM241 442q0 19 -13.5 32.5t-32.5 13.5t-32.5 -13.5t-13.5 -32.5t13.5 -32.5t32.5 -13.5t32.5 13.5t13.5 32.5zM340 343q0 19 -13.5 32.5t-32.5 13.5t-32.5 -13.5t-13.5 -32.5t13.5 -32.5t32.5 -13.5t32.5 13.5
t13.5 32.5zM439 244q0 19 -13.5 32.5t-32.5 13.5q-20 0 -33 -13.5t-13 -32.5t13 -32.5t33 -13.5q19 0 32.5 13.5t13.5 32.5zM538 145q0 19 -13.5 32.5t-32.5 13.5q-20 0 -33 -13.5t-13 -32.5t13 -32.5t33 -13.5q19 0 32.5 13.5t13.5 32.5zM142 442q0 19 -13.5 32.5
t-32.5 13.5t-32.5 -13.5t-13.5 -32.5t13.5 -32.5t32.5 -13.5t32.5 13.5t13.5 32.5zM538 46q0 19 -13.5 32.5t-32.5 13.5q-20 0 -33 -13.5t-13 -32.5t13 -32.5t33 -13.5q19 0 32.5 13.5t13.5 32.5zM142 343q0 19 -13.5 32.5t-32.5 13.5t-32.5 -13.5t-13.5 -32.5t13.5 -32.5
t32.5 -13.5t32.5 13.5t13.5 32.5zM142 244q0 19 -13.5 32.5t-32.5 13.5t-32.5 -13.5t-13.5 -32.5t13.5 -32.5t32.5 -13.5t32.5 13.5t13.5 32.5zM142 145q0 19 -13.5 32.5t-32.5 13.5t-32.5 -13.5t-13.5 -32.5t13.5 -32.5t32.5 -13.5t32.5 13.5t13.5 32.5zM142 46
q0 19 -13.5 32.5t-32.5 13.5t-32.5 -13.5t-13.5 -32.5t13.5 -32.5t32.5 -13.5t32.5 13.5t13.5 32.5z" />
    <glyph glyph-name="Ograve" unicode="&#xd2;" 
d="M241 838q0 19 -13.5 32.5t-32.5 13.5t-32.5 -13.5t-13.5 -32.5t13.5 -32.5t32.5 -13.5t32.5 13.5t13.5 32.5zM340 739q0 19 -13.5 32.5t-32.5 13.5t-32.5 -13.5t-13.5 -32.5t13.5 -32.5t32.5 -13.5t32.5 13.5t13.5 32.5zM439 640q0 19 -13.5 32.5t-32.5 13.5
q-20 0 -33 -13.5t-13 -32.5t13 -32.5t33 -13.5q19 0 32.5 13.5t13.5 32.5zM538 541q0 19 -13.5 32.5t-32.5 13.5q-20 0 -33 -13.5t-13 -32.5t13 -32.5t33 -13.5q19 0 32.5 13.5t13.5 32.5zM340 640q0 19 -13.5 32.5t-32.5 13.5t-32.5 -13.5t-13.5 -32.5t13.5 -32.5
t32.5 -13.5t32.5 13.5t13.5 32.5zM538 442q0 19 -13.5 32.5t-32.5 13.5q-20 0 -33 -13.5t-13 -32.5t13 -32.5t33 -13.5q19 0 32.5 13.5t13.5 32.5zM241 640q0 19 -13.5 32.5t-32.5 13.5t-32.5 -13.5t-13.5 -32.5t13.5 -32.5t32.5 -13.5t32.5 13.5t13.5 32.5zM538 343
q0 19 -13.5 32.5t-32.5 13.5q-20 0 -33 -13.5t-13 -32.5t13 -32.5t33 -13.5q19 0 32.5 13.5t13.5 32.5zM538 244q0 19 -13.5 32.5t-32.5 13.5q-20 0 -33 -13.5t-13 -32.5t13 -32.5t33 -13.5q19 0 32.5 13.5t13.5 32.5zM142 541q0 19 -13.5 32.5t-32.5 13.5t-32.5 -13.5
t-13.5 -32.5t13.5 -32.5t32.5 -13.5t32.5 13.5t13.5 32.5zM538 145q0 19 -13.5 32.5t-32.5 13.5q-20 0 -33 -13.5t-13 -32.5t13 -32.5t33 -13.5q19 0 32.5 13.5t13.5 32.5zM142 442q0 19 -13.5 32.5t-32.5 13.5t-32.5 -13.5t-13.5 -32.5t13.5 -32.5t32.5 -13.5t32.5 13.5
t13.5 32.5zM142 343q0 19 -13.5 32.5t-32.5 13.5t-32.5 -13.5t-13.5 -32.5t13.5 -32.5t32.5 -13.5t32.5 13.5t13.5 32.5zM439 46q0 19 -13.5 32.5t-32.5 13.5q-20 0 -33 -13.5t-13 -32.5t13 -32.5t33 -13.5q19 0 32.5 13.5t13.5 32.5zM142 244q0 19 -13.5 32.5t-32.5 13.5
t-32.5 -13.5t-13.5 -32.5t13.5 -32.5t32.5 -13.5t32.5 13.5t13.5 32.5zM340 46q0 19 -13.5 32.5t-32.5 13.5t-32.5 -13.5t-13.5 -32.5t13.5 -32.5t32.5 -13.5t32.5 13.5t13.5 32.5zM142 145q0 19 -13.5 32.5t-32.5 13.5t-32.5 -13.5t-13.5 -32.5t13.5 -32.5t32.5 -13.5
t32.5 13.5t13.5 32.5zM241 46q0 19 -13.5 32.5t-32.5 13.5t-32.5 -13.5t-13.5 -32.5t13.5 -32.5t32.5 -13.5t32.5 13.5t13.5 32.5z" />
    <glyph glyph-name="Oacute" unicode="&#xd3;" 
d="M439 838q0 19 -13.5 32.5t-32.5 13.5q-20 0 -33 -13.5t-13 -32.5t13 -32.5t33 -13.5q19 0 32.5 13.5t13.5 32.5zM340 739q0 19 -13.5 32.5t-32.5 13.5t-32.5 -13.5t-13.5 -32.5t13.5 -32.5t32.5 -13.5t32.5 13.5t13.5 32.5zM439 640q0 19 -13.5 32.5t-32.5 13.5
q-20 0 -33 -13.5t-13 -32.5t13 -32.5t33 -13.5q19 0 32.5 13.5t13.5 32.5zM538 541q0 19 -13.5 32.5t-32.5 13.5q-20 0 -33 -13.5t-13 -32.5t13 -32.5t33 -13.5q19 0 32.5 13.5t13.5 32.5zM340 640q0 19 -13.5 32.5t-32.5 13.5t-32.5 -13.5t-13.5 -32.5t13.5 -32.5
t32.5 -13.5t32.5 13.5t13.5 32.5zM538 442q0 19 -13.5 32.5t-32.5 13.5q-20 0 -33 -13.5t-13 -32.5t13 -32.5t33 -13.5q19 0 32.5 13.5t13.5 32.5zM241 640q0 19 -13.5 32.5t-32.5 13.5t-32.5 -13.5t-13.5 -32.5t13.5 -32.5t32.5 -13.5t32.5 13.5t13.5 32.5zM538 343
q0 19 -13.5 32.5t-32.5 13.5q-20 0 -33 -13.5t-13 -32.5t13 -32.5t33 -13.5q19 0 32.5 13.5t13.5 32.5zM538 244q0 19 -13.5 32.5t-32.5 13.5q-20 0 -33 -13.5t-13 -32.5t13 -32.5t33 -13.5q19 0 32.5 13.5t13.5 32.5zM142 541q0 19 -13.5 32.5t-32.5 13.5t-32.5 -13.5
t-13.5 -32.5t13.5 -32.5t32.5 -13.5t32.5 13.5t13.5 32.5zM538 145q0 19 -13.5 32.5t-32.5 13.5q-20 0 -33 -13.5t-13 -32.5t13 -32.5t33 -13.5q19 0 32.5 13.5t13.5 32.5zM142 442q0 19 -13.5 32.5t-32.5 13.5t-32.5 -13.5t-13.5 -32.5t13.5 -32.5t32.5 -13.5t32.5 13.5
t13.5 32.5zM142 343q0 19 -13.5 32.5t-32.5 13.5t-32.5 -13.5t-13.5 -32.5t13.5 -32.5t32.5 -13.5t32.5 13.5t13.5 32.5zM439 46q0 19 -13.5 32.5t-32.5 13.5q-20 0 -33 -13.5t-13 -32.5t13 -32.5t33 -13.5q19 0 32.5 13.5t13.5 32.5zM142 244q0 19 -13.5 32.5t-32.5 13.5
t-32.5 -13.5t-13.5 -32.5t13.5 -32.5t32.5 -13.5t32.5 13.5t13.5 32.5zM340 46q0 19 -13.5 32.5t-32.5 13.5t-32.5 -13.5t-13.5 -32.5t13.5 -32.5t32.5 -13.5t32.5 13.5t13.5 32.5zM142 145q0 19 -13.5 32.5t-32.5 13.5t-32.5 -13.5t-13.5 -32.5t13.5 -32.5t32.5 -13.5
t32.5 13.5t13.5 32.5zM241 46q0 19 -13.5 32.5t-32.5 13.5t-32.5 -13.5t-13.5 -32.5t13.5 -32.5t32.5 -13.5t32.5 13.5t13.5 32.5z" />
    <glyph glyph-name="Ocircumflex" unicode="&#xd4;" 
d="M340 838q0 19 -13.5 32.5t-32.5 13.5t-32.5 -13.5t-13.5 -32.5t13.5 -32.5t32.5 -13.5t32.5 13.5t13.5 32.5zM439 739q0 19 -13.5 32.5t-32.5 13.5q-20 0 -33 -13.5t-13 -32.5t13 -32.5t33 -13.5q19 0 32.5 13.5t13.5 32.5zM241 739q0 19 -13.5 32.5t-32.5 13.5
t-32.5 -13.5t-13.5 -32.5t13.5 -32.5t32.5 -13.5t32.5 13.5t13.5 32.5zM439 640q0 19 -13.5 32.5t-32.5 13.5q-20 0 -33 -13.5t-13 -32.5t13 -32.5t33 -13.5q19 0 32.5 13.5t13.5 32.5zM538 541q0 19 -13.5 32.5t-32.5 13.5q-20 0 -33 -13.5t-13 -32.5t13 -32.5t33 -13.5
q19 0 32.5 13.5t13.5 32.5zM340 640q0 19 -13.5 32.5t-32.5 13.5t-32.5 -13.5t-13.5 -32.5t13.5 -32.5t32.5 -13.5t32.5 13.5t13.5 32.5zM538 442q0 19 -13.5 32.5t-32.5 13.5q-20 0 -33 -13.5t-13 -32.5t13 -32.5t33 -13.5q19 0 32.5 13.5t13.5 32.5zM241 640
q0 19 -13.5 32.5t-32.5 13.5t-32.5 -13.5t-13.5 -32.5t13.5 -32.5t32.5 -13.5t32.5 13.5t13.5 32.5zM538 343q0 19 -13.5 32.5t-32.5 13.5q-20 0 -33 -13.5t-13 -32.5t13 -32.5t33 -13.5q19 0 32.5 13.5t13.5 32.5zM538 244q0 19 -13.5 32.5t-32.5 13.5q-20 0 -33 -13.5
t-13 -32.5t13 -32.5t33 -13.5q19 0 32.5 13.5t13.5 32.5zM142 541q0 19 -13.5 32.5t-32.5 13.5t-32.5 -13.5t-13.5 -32.5t13.5 -32.5t32.5 -13.5t32.5 13.5t13.5 32.5zM538 145q0 19 -13.5 32.5t-32.5 13.5q-20 0 -33 -13.5t-13 -32.5t13 -32.5t33 -13.5q19 0 32.5 13.5
t13.5 32.5zM142 442q0 19 -13.5 32.5t-32.5 13.5t-32.5 -13.5t-13.5 -32.5t13.5 -32.5t32.5 -13.5t32.5 13.5t13.5 32.5zM142 343q0 19 -13.5 32.5t-32.5 13.5t-32.5 -13.5t-13.5 -32.5t13.5 -32.5t32.5 -13.5t32.5 13.5t13.5 32.5zM439 46q0 19 -13.5 32.5t-32.5 13.5
q-20 0 -33 -13.5t-13 -32.5t13 -32.5t33 -13.5q19 0 32.5 13.5t13.5 32.5zM142 244q0 19 -13.5 32.5t-32.5 13.5t-32.5 -13.5t-13.5 -32.5t13.5 -32.5t32.5 -13.5t32.5 13.5t13.5 32.5zM340 46q0 19 -13.5 32.5t-32.5 13.5t-32.5 -13.5t-13.5 -32.5t13.5 -32.5t32.5 -13.5
t32.5 13.5t13.5 32.5zM142 145q0 19 -13.5 32.5t-32.5 13.5t-32.5 -13.5t-13.5 -32.5t13.5 -32.5t32.5 -13.5t32.5 13.5t13.5 32.5zM241 46q0 19 -13.5 32.5t-32.5 13.5t-32.5 -13.5t-13.5 -32.5t13.5 -32.5t32.5 -13.5t32.5 13.5t13.5 32.5z" />
    <glyph glyph-name="Otilde" unicode="&#xd5;" 
d="M538 838q0 19 -13.5 32.5t-32.5 13.5q-20 0 -33 -13.5t-13 -32.5t13 -32.5t33 -13.5q19 0 32.5 13.5t13.5 32.5zM439 739q0 19 -13.5 32.5t-32.5 13.5q-20 0 -33 -13.5t-13 -32.5t13 -32.5t33 -13.5q19 0 32.5 13.5t13.5 32.5zM241 838q0 19 -13.5 32.5t-32.5 13.5
t-32.5 -13.5t-13.5 -32.5t13.5 -32.5t32.5 -13.5t32.5 13.5t13.5 32.5zM340 739q0 19 -13.5 32.5t-32.5 13.5t-32.5 -13.5t-13.5 -32.5t13.5 -32.5t32.5 -13.5t32.5 13.5t13.5 32.5zM439 541q0 19 -13.5 32.5t-32.5 13.5q-20 0 -33 -13.5t-13 -32.5t13 -32.5t33 -13.5
q19 0 32.5 13.5t13.5 32.5zM538 442q0 19 -13.5 32.5t-32.5 13.5q-20 0 -33 -13.5t-13 -32.5t13 -32.5t33 -13.5q19 0 32.5 13.5t13.5 32.5zM142 739q0 19 -13.5 32.5t-32.5 13.5t-32.5 -13.5t-13.5 -32.5t13.5 -32.5t32.5 -13.5t32.5 13.5t13.5 32.5zM340 541
q0 19 -13.5 32.5t-32.5 13.5t-32.5 -13.5t-13.5 -32.5t13.5 -32.5t32.5 -13.5t32.5 13.5t13.5 32.5zM538 343q0 19 -13.5 32.5t-32.5 13.5q-20 0 -33 -13.5t-13 -32.5t13 -32.5t33 -13.5q19 0 32.5 13.5t13.5 32.5zM241 541q0 19 -13.5 32.5t-32.5 13.5t-32.5 -13.5
t-13.5 -32.5t13.5 -32.5t32.5 -13.5t32.5 13.5t13.5 32.5zM538 244q0 19 -13.5 32.5t-32.5 13.5q-20 0 -33 -13.5t-13 -32.5t13 -32.5t33 -13.5q19 0 32.5 13.5t13.5 32.5zM538 145q0 19 -13.5 32.5t-32.5 13.5q-20 0 -33 -13.5t-13 -32.5t13 -32.5t33 -13.5q19 0 32.5 13.5
t13.5 32.5zM142 442q0 19 -13.5 32.5t-32.5 13.5t-32.5 -13.5t-13.5 -32.5t13.5 -32.5t32.5 -13.5t32.5 13.5t13.5 32.5zM142 343q0 19 -13.5 32.5t-32.5 13.5t-32.5 -13.5t-13.5 -32.5t13.5 -32.5t32.5 -13.5t32.5 13.5t13.5 32.5zM439 46q0 19 -13.5 32.5t-32.5 13.5
q-20 0 -33 -13.5t-13 -32.5t13 -32.5t33 -13.5q19 0 32.5 13.5t13.5 32.5zM142 244q0 19 -13.5 32.5t-32.5 13.5t-32.5 -13.5t-13.5 -32.5t13.5 -32.5t32.5 -13.5t32.5 13.5t13.5 32.5zM340 46q0 19 -13.5 32.5t-32.5 13.5t-32.5 -13.5t-13.5 -32.5t13.5 -32.5t32.5 -13.5
t32.5 13.5t13.5 32.5zM142 145q0 19 -13.5 32.5t-32.5 13.5t-32.5 -13.5t-13.5 -32.5t13.5 -32.5t32.5 -13.5t32.5 13.5t13.5 32.5zM241 46q0 19 -13.5 32.5t-32.5 13.5t-32.5 -13.5t-13.5 -32.5t13.5 -32.5t32.5 -13.5t32.5 13.5t13.5 32.5z" />
    <glyph glyph-name="Odieresis" unicode="&#xd6;" 
d="M439 838q0 19 -13.5 32.5t-32.5 13.5q-20 0 -33 -13.5t-13 -32.5t13 -32.5t33 -13.5q19 0 32.5 13.5t13.5 32.5zM241 838q0 19 -13.5 32.5t-32.5 13.5t-32.5 -13.5t-13.5 -32.5t13.5 -32.5t32.5 -13.5t32.5 13.5t13.5 32.5zM439 640q0 19 -13.5 32.5t-32.5 13.5
q-20 0 -33 -13.5t-13 -32.5t13 -32.5t33 -13.5q19 0 32.5 13.5t13.5 32.5zM538 541q0 19 -13.5 32.5t-32.5 13.5q-20 0 -33 -13.5t-13 -32.5t13 -32.5t33 -13.5q19 0 32.5 13.5t13.5 32.5zM340 640q0 19 -13.5 32.5t-32.5 13.5t-32.5 -13.5t-13.5 -32.5t13.5 -32.5
t32.5 -13.5t32.5 13.5t13.5 32.5zM538 442q0 19 -13.5 32.5t-32.5 13.5q-20 0 -33 -13.5t-13 -32.5t13 -32.5t33 -13.5q19 0 32.5 13.5t13.5 32.5zM241 640q0 19 -13.5 32.5t-32.5 13.5t-32.5 -13.5t-13.5 -32.5t13.5 -32.5t32.5 -13.5t32.5 13.5t13.5 32.5zM538 343
q0 19 -13.5 32.5t-32.5 13.5q-20 0 -33 -13.5t-13 -32.5t13 -32.5t33 -13.5q19 0 32.5 13.5t13.5 32.5zM538 244q0 19 -13.5 32.5t-32.5 13.5q-20 0 -33 -13.5t-13 -32.5t13 -32.5t33 -13.5q19 0 32.5 13.5t13.5 32.5zM142 541q0 19 -13.5 32.5t-32.5 13.5t-32.5 -13.5
t-13.5 -32.5t13.5 -32.5t32.5 -13.5t32.5 13.5t13.5 32.5zM538 145q0 19 -13.5 32.5t-32.5 13.5q-20 0 -33 -13.5t-13 -32.5t13 -32.5t33 -13.5q19 0 32.5 13.5t13.5 32.5zM142 442q0 19 -13.5 32.5t-32.5 13.5t-32.5 -13.5t-13.5 -32.5t13.5 -32.5t32.5 -13.5t32.5 13.5
t13.5 32.5zM142 343q0 19 -13.5 32.5t-32.5 13.5t-32.5 -13.5t-13.5 -32.5t13.5 -32.5t32.5 -13.5t32.5 13.5t13.5 32.5zM439 46q0 19 -13.5 32.5t-32.5 13.5q-20 0 -33 -13.5t-13 -32.5t13 -32.5t33 -13.5q19 0 32.5 13.5t13.5 32.5zM142 244q0 19 -13.5 32.5t-32.5 13.5
t-32.5 -13.5t-13.5 -32.5t13.5 -32.5t32.5 -13.5t32.5 13.5t13.5 32.5zM340 46q0 19 -13.5 32.5t-32.5 13.5t-32.5 -13.5t-13.5 -32.5t13.5 -32.5t32.5 -13.5t32.5 13.5t13.5 32.5zM142 145q0 19 -13.5 32.5t-32.5 13.5t-32.5 -13.5t-13.5 -32.5t13.5 -32.5t32.5 -13.5
t32.5 13.5t13.5 32.5zM241 46q0 19 -13.5 32.5t-32.5 13.5t-32.5 -13.5t-13.5 -32.5t13.5 -32.5t32.5 -13.5t32.5 13.5t13.5 32.5z" />
    <glyph glyph-name="multiply" unicode="&#xd7;" 
d="M538 541q0 19 -13.5 32.5t-32.5 13.5q-20 0 -33 -13.5t-13 -32.5t13 -32.5t33 -13.5q19 0 32.5 13.5t13.5 32.5zM439 442q0 19 -13.5 32.5t-32.5 13.5q-20 0 -33 -13.5t-13 -32.5t13 -32.5t33 -13.5q19 0 32.5 13.5t13.5 32.5zM142 541q0 19 -13.5 32.5t-32.5 13.5
t-32.5 -13.5t-13.5 -32.5t13.5 -32.5t32.5 -13.5t32.5 13.5t13.5 32.5zM241 442q0 19 -13.5 32.5t-32.5 13.5t-32.5 -13.5t-13.5 -32.5t13.5 -32.5t32.5 -13.5t32.5 13.5t13.5 32.5zM340 343q0 19 -13.5 32.5t-32.5 13.5t-32.5 -13.5t-13.5 -32.5t13.5 -32.5t32.5 -13.5
t32.5 13.5t13.5 32.5zM439 244q0 19 -13.5 32.5t-32.5 13.5q-20 0 -33 -13.5t-13 -32.5t13 -32.5t33 -13.5q19 0 32.5 13.5t13.5 32.5zM538 145q0 19 -13.5 32.5t-32.5 13.5q-20 0 -33 -13.5t-13 -32.5t13 -32.5t33 -13.5q19 0 32.5 13.5t13.5 32.5zM241 244
q0 19 -13.5 32.5t-32.5 13.5t-32.5 -13.5t-13.5 -32.5t13.5 -32.5t32.5 -13.5t32.5 13.5t13.5 32.5zM142 145q0 19 -13.5 32.5t-32.5 13.5t-32.5 -13.5t-13.5 -32.5t13.5 -32.5t32.5 -13.5t32.5 13.5t13.5 32.5z" />
    <glyph glyph-name="Oslash" unicode="&#xd8;" 
d="M538 739q0 19 -13.5 32.5t-32.5 13.5q-20 0 -33 -13.5t-13 -32.5t13 -32.5t33 -13.5q19 0 32.5 13.5t13.5 32.5zM439 640q0 19 -13.5 32.5t-32.5 13.5q-20 0 -33 -13.5t-13 -32.5t13 -32.5t33 -13.5q19 0 32.5 13.5t13.5 32.5zM538 541q0 19 -13.5 32.5t-32.5 13.5
q-20 0 -33 -13.5t-13 -32.5t13 -32.5t33 -13.5q19 0 32.5 13.5t13.5 32.5zM340 640q0 19 -13.5 32.5t-32.5 13.5t-32.5 -13.5t-13.5 -32.5t13.5 -32.5t32.5 -13.5t32.5 13.5t13.5 32.5zM439 541q0 19 -13.5 32.5t-32.5 13.5q-20 0 -33 -13.5t-13 -32.5t13 -32.5t33 -13.5
q19 0 32.5 13.5t13.5 32.5zM538 442q0 19 -13.5 32.5t-32.5 13.5q-20 0 -33 -13.5t-13 -32.5t13 -32.5t33 -13.5q19 0 32.5 13.5t13.5 32.5zM241 640q0 19 -13.5 32.5t-32.5 13.5t-32.5 -13.5t-13.5 -32.5t13.5 -32.5t32.5 -13.5t32.5 13.5t13.5 32.5zM538 343
q0 19 -13.5 32.5t-32.5 13.5q-20 0 -33 -13.5t-13 -32.5t13 -32.5t33 -13.5q19 0 32.5 13.5t13.5 32.5zM340 442q0 19 -13.5 32.5t-32.5 13.5t-32.5 -13.5t-13.5 -32.5t13.5 -32.5t32.5 -13.5t32.5 13.5t13.5 32.5zM538 244q0 19 -13.5 32.5t-32.5 13.5q-20 0 -33 -13.5
t-13 -32.5t13 -32.5t33 -13.5q19 0 32.5 13.5t13.5 32.5zM142 541q0 19 -13.5 32.5t-32.5 13.5t-32.5 -13.5t-13.5 -32.5t13.5 -32.5t32.5 -13.5t32.5 13.5t13.5 32.5zM340 343q0 19 -13.5 32.5t-32.5 13.5t-32.5 -13.5t-13.5 -32.5t13.5 -32.5t32.5 -13.5t32.5 13.5
t13.5 32.5zM538 145q0 19 -13.5 32.5t-32.5 13.5q-20 0 -33 -13.5t-13 -32.5t13 -32.5t33 -13.5q19 0 32.5 13.5t13.5 32.5zM142 442q0 19 -13.5 32.5t-32.5 13.5t-32.5 -13.5t-13.5 -32.5t13.5 -32.5t32.5 -13.5t32.5 13.5t13.5 32.5zM340 244q0 19 -13.5 32.5t-32.5 13.5
t-32.5 -13.5t-13.5 -32.5t13.5 -32.5t32.5 -13.5t32.5 13.5t13.5 32.5zM142 343q0 19 -13.5 32.5t-32.5 13.5t-32.5 -13.5t-13.5 -32.5t13.5 -32.5t32.5 -13.5t32.5 13.5t13.5 32.5zM439 46q0 19 -13.5 32.5t-32.5 13.5q-20 0 -33 -13.5t-13 -32.5t13 -32.5t33 -13.5
q19 0 32.5 13.5t13.5 32.5zM142 244q0 19 -13.5 32.5t-32.5 13.5t-32.5 -13.5t-13.5 -32.5t13.5 -32.5t32.5 -13.5t32.5 13.5t13.5 32.5zM241 145q0 19 -13.5 32.5t-32.5 13.5t-32.5 -13.5t-13.5 -32.5t13.5 -32.5t32.5 -13.5t32.5 13.5t13.5 32.5zM340 46q0 19 -13.5 32.5
t-32.5 13.5t-32.5 -13.5t-13.5 -32.5t13.5 -32.5t32.5 -13.5t32.5 13.5t13.5 32.5zM142 145q0 19 -13.5 32.5t-32.5 13.5t-32.5 -13.5t-13.5 -32.5t13.5 -32.5t32.5 -13.5t32.5 13.5t13.5 32.5zM241 46q0 19 -13.5 32.5t-32.5 13.5t-32.5 -13.5t-13.5 -32.5t13.5 -32.5
t32.5 -13.5t32.5 13.5t13.5 32.5zM142 -53q0 19 -13.5 32.5t-32.5 13.5t-32.5 -13.5t-13.5 -32.5t13.5 -32.5t32.5 -13.5t32.5 13.5t13.5 32.5z" />
    <glyph glyph-name="Ugrave" unicode="&#xd9;" 
d="M241 838q0 19 -13.5 32.5t-32.5 13.5t-32.5 -13.5t-13.5 -32.5t13.5 -32.5t32.5 -13.5t32.5 13.5t13.5 32.5zM340 739q0 19 -13.5 32.5t-32.5 13.5t-32.5 -13.5t-13.5 -32.5t13.5 -32.5t32.5 -13.5t32.5 13.5t13.5 32.5zM538 640q0 19 -13.5 32.5t-32.5 13.5
q-20 0 -33 -13.5t-13 -32.5t13 -32.5t33 -13.5q19 0 32.5 13.5t13.5 32.5zM538 541q0 19 -13.5 32.5t-32.5 13.5q-20 0 -33 -13.5t-13 -32.5t13 -32.5t33 -13.5q19 0 32.5 13.5t13.5 32.5zM538 442q0 19 -13.5 32.5t-32.5 13.5q-20 0 -33 -13.5t-13 -32.5t13 -32.5t33 -13.5
q19 0 32.5 13.5t13.5 32.5zM538 343q0 19 -13.5 32.5t-32.5 13.5q-20 0 -33 -13.5t-13 -32.5t13 -32.5t33 -13.5q19 0 32.5 13.5t13.5 32.5zM142 640q0 19 -13.5 32.5t-32.5 13.5t-32.5 -13.5t-13.5 -32.5t13.5 -32.5t32.5 -13.5t32.5 13.5t13.5 32.5zM538 244
q0 19 -13.5 32.5t-32.5 13.5q-20 0 -33 -13.5t-13 -32.5t13 -32.5t33 -13.5q19 0 32.5 13.5t13.5 32.5zM142 541q0 19 -13.5 32.5t-32.5 13.5t-32.5 -13.5t-13.5 -32.5t13.5 -32.5t32.5 -13.5t32.5 13.5t13.5 32.5zM538 145q0 19 -13.5 32.5t-32.5 13.5q-20 0 -33 -13.5
t-13 -32.5t13 -32.5t33 -13.5q19 0 32.5 13.5t13.5 32.5zM142 442q0 19 -13.5 32.5t-32.5 13.5t-32.5 -13.5t-13.5 -32.5t13.5 -32.5t32.5 -13.5t32.5 13.5t13.5 32.5zM142 343q0 19 -13.5 32.5t-32.5 13.5t-32.5 -13.5t-13.5 -32.5t13.5 -32.5t32.5 -13.5t32.5 13.5
t13.5 32.5zM439 46q0 19 -13.5 32.5t-32.5 13.5q-20 0 -33 -13.5t-13 -32.5t13 -32.5t33 -13.5q19 0 32.5 13.5t13.5 32.5zM142 244q0 19 -13.5 32.5t-32.5 13.5t-32.5 -13.5t-13.5 -32.5t13.5 -32.5t32.5 -13.5t32.5 13.5t13.5 32.5zM340 46q0 19 -13.5 32.5t-32.5 13.5
t-32.5 -13.5t-13.5 -32.5t13.5 -32.5t32.5 -13.5t32.5 13.5t13.5 32.5zM142 145q0 19 -13.5 32.5t-32.5 13.5t-32.5 -13.5t-13.5 -32.5t13.5 -32.5t32.5 -13.5t32.5 13.5t13.5 32.5zM241 46q0 19 -13.5 32.5t-32.5 13.5t-32.5 -13.5t-13.5 -32.5t13.5 -32.5t32.5 -13.5
t32.5 13.5t13.5 32.5z" />
    <glyph glyph-name="Uacute" unicode="&#xda;" 
d="M439 838q0 19 -13.5 32.5t-32.5 13.5q-20 0 -33 -13.5t-13 -32.5t13 -32.5t33 -13.5q19 0 32.5 13.5t13.5 32.5zM340 739q0 19 -13.5 32.5t-32.5 13.5t-32.5 -13.5t-13.5 -32.5t13.5 -32.5t32.5 -13.5t32.5 13.5t13.5 32.5zM538 640q0 19 -13.5 32.5t-32.5 13.5
q-20 0 -33 -13.5t-13 -32.5t13 -32.5t33 -13.5q19 0 32.5 13.5t13.5 32.5zM538 541q0 19 -13.5 32.5t-32.5 13.5q-20 0 -33 -13.5t-13 -32.5t13 -32.5t33 -13.5q19 0 32.5 13.5t13.5 32.5zM538 442q0 19 -13.5 32.5t-32.5 13.5q-20 0 -33 -13.5t-13 -32.5t13 -32.5t33 -13.5
q19 0 32.5 13.5t13.5 32.5zM538 343q0 19 -13.5 32.5t-32.5 13.5q-20 0 -33 -13.5t-13 -32.5t13 -32.5t33 -13.5q19 0 32.5 13.5t13.5 32.5zM142 640q0 19 -13.5 32.5t-32.5 13.5t-32.5 -13.5t-13.5 -32.5t13.5 -32.5t32.5 -13.5t32.5 13.5t13.5 32.5zM538 244
q0 19 -13.5 32.5t-32.5 13.5q-20 0 -33 -13.5t-13 -32.5t13 -32.5t33 -13.5q19 0 32.5 13.5t13.5 32.5zM142 541q0 19 -13.5 32.5t-32.5 13.5t-32.5 -13.5t-13.5 -32.5t13.5 -32.5t32.5 -13.5t32.5 13.5t13.5 32.5zM538 145q0 19 -13.5 32.5t-32.5 13.5q-20 0 -33 -13.5
t-13 -32.5t13 -32.5t33 -13.5q19 0 32.5 13.5t13.5 32.5zM142 442q0 19 -13.5 32.5t-32.5 13.5t-32.5 -13.5t-13.5 -32.5t13.5 -32.5t32.5 -13.5t32.5 13.5t13.5 32.5zM142 343q0 19 -13.5 32.5t-32.5 13.5t-32.5 -13.5t-13.5 -32.5t13.5 -32.5t32.5 -13.5t32.5 13.5
t13.5 32.5zM439 46q0 19 -13.5 32.5t-32.5 13.5q-20 0 -33 -13.5t-13 -32.5t13 -32.5t33 -13.5q19 0 32.5 13.5t13.5 32.5zM142 244q0 19 -13.5 32.5t-32.5 13.5t-32.5 -13.5t-13.5 -32.5t13.5 -32.5t32.5 -13.5t32.5 13.5t13.5 32.5zM340 46q0 19 -13.5 32.5t-32.5 13.5
t-32.5 -13.5t-13.5 -32.5t13.5 -32.5t32.5 -13.5t32.5 13.5t13.5 32.5zM142 145q0 19 -13.5 32.5t-32.5 13.5t-32.5 -13.5t-13.5 -32.5t13.5 -32.5t32.5 -13.5t32.5 13.5t13.5 32.5zM241 46q0 19 -13.5 32.5t-32.5 13.5t-32.5 -13.5t-13.5 -32.5t13.5 -32.5t32.5 -13.5
t32.5 13.5t13.5 32.5z" />
    <glyph glyph-name="Ucircumflex" unicode="&#xdb;" 
d="M340 838q0 19 -13.5 32.5t-32.5 13.5t-32.5 -13.5t-13.5 -32.5t13.5 -32.5t32.5 -13.5t32.5 13.5t13.5 32.5zM439 739q0 19 -13.5 32.5t-32.5 13.5q-20 0 -33 -13.5t-13 -32.5t13 -32.5t33 -13.5q19 0 32.5 13.5t13.5 32.5zM241 739q0 19 -13.5 32.5t-32.5 13.5
t-32.5 -13.5t-13.5 -32.5t13.5 -32.5t32.5 -13.5t32.5 13.5t13.5 32.5zM538 640q0 19 -13.5 32.5t-32.5 13.5q-20 0 -33 -13.5t-13 -32.5t13 -32.5t33 -13.5q19 0 32.5 13.5t13.5 32.5zM538 541q0 19 -13.5 32.5t-32.5 13.5q-20 0 -33 -13.5t-13 -32.5t13 -32.5t33 -13.5
q19 0 32.5 13.5t13.5 32.5zM538 442q0 19 -13.5 32.5t-32.5 13.5q-20 0 -33 -13.5t-13 -32.5t13 -32.5t33 -13.5q19 0 32.5 13.5t13.5 32.5zM538 343q0 19 -13.5 32.5t-32.5 13.5q-20 0 -33 -13.5t-13 -32.5t13 -32.5t33 -13.5q19 0 32.5 13.5t13.5 32.5zM142 640
q0 19 -13.5 32.5t-32.5 13.5t-32.5 -13.5t-13.5 -32.5t13.5 -32.5t32.5 -13.5t32.5 13.5t13.5 32.5zM538 244q0 19 -13.5 32.5t-32.5 13.5q-20 0 -33 -13.5t-13 -32.5t13 -32.5t33 -13.5q19 0 32.5 13.5t13.5 32.5zM142 541q0 19 -13.5 32.5t-32.5 13.5t-32.5 -13.5
t-13.5 -32.5t13.5 -32.5t32.5 -13.5t32.5 13.5t13.5 32.5zM538 145q0 19 -13.5 32.5t-32.5 13.5q-20 0 -33 -13.5t-13 -32.5t13 -32.5t33 -13.5q19 0 32.5 13.5t13.5 32.5zM142 442q0 19 -13.5 32.5t-32.5 13.5t-32.5 -13.5t-13.5 -32.5t13.5 -32.5t32.5 -13.5t32.5 13.5
t13.5 32.5zM142 343q0 19 -13.5 32.5t-32.5 13.5t-32.5 -13.5t-13.5 -32.5t13.5 -32.5t32.5 -13.5t32.5 13.5t13.5 32.5zM439 46q0 19 -13.5 32.5t-32.5 13.5q-20 0 -33 -13.5t-13 -32.5t13 -32.5t33 -13.5q19 0 32.5 13.5t13.5 32.5zM142 244q0 19 -13.5 32.5t-32.5 13.5
t-32.5 -13.5t-13.5 -32.5t13.5 -32.5t32.5 -13.5t32.5 13.5t13.5 32.5zM340 46q0 19 -13.5 32.5t-32.5 13.5t-32.5 -13.5t-13.5 -32.5t13.5 -32.5t32.5 -13.5t32.5 13.5t13.5 32.5zM142 145q0 19 -13.5 32.5t-32.5 13.5t-32.5 -13.5t-13.5 -32.5t13.5 -32.5t32.5 -13.5
t32.5 13.5t13.5 32.5zM241 46q0 19 -13.5 32.5t-32.5 13.5t-32.5 -13.5t-13.5 -32.5t13.5 -32.5t32.5 -13.5t32.5 13.5t13.5 32.5z" />
    </font>
</defs>
</svg>
